<svg width="60" height="60" viewBox="0 0 60 60" fill="none" xmlns="http://www.w3.org/2000/svg">
<rect width="60" height="60" rx="11" fill="url(#paint0_linear_409_440)"/>
<path d="M25.3196 38.2878C26.1648 39.133 27.5352 39.133 28.3804 38.2878L36.2523 30.4159C37.0167 29.6515 37.0167 28.4121 36.2523 27.6477V27.6477C35.4879 26.8833 34.2485 26.8833 33.4841 27.6477L26.8023 34.3295L24.1534 31.6807C23.4022 30.9294 22.1842 30.9294 21.433 31.6807V31.6807C20.6817 32.4319 20.6817 33.6499 21.433 34.4011L25.3196 38.2878ZM19.5 45.5455C16.6045 45.5455 14.1304 44.5432 12.0775 42.5386C10.0245 40.5341 8.99873 38.0841 9 35.1886C9 32.7068 9.74773 30.4955 11.2432 28.5545C12.7386 26.6136 14.6955 25.3727 17.1136 24.8318C17.9091 21.9045 19.5 19.5341 21.8864 17.7205C24.2727 15.9068 26.9773 15 30 15C33.7227 15 36.881 16.2969 39.4748 18.8907C42.0686 21.4845 43.3649 24.6422 43.3636 28.3636C45.5591 28.6182 47.381 29.5651 48.8294 31.2044C50.2777 32.8436 51.0013 34.7604 51 36.9545C51 39.3409 50.1645 41.3696 48.4934 43.0407C46.8223 44.7118 44.7942 45.5467 42.4091 45.5455H19.5ZM19.5 41.7273H42.4091C43.7455 41.7273 44.875 41.2659 45.7977 40.3432C46.7205 39.4204 47.1818 38.2909 47.1818 36.9545C47.1818 35.6182 46.7205 34.4886 45.7977 33.5659C44.875 32.6432 43.7455 32.1818 42.4091 32.1818H41.5455C40.4409 32.1818 39.5455 31.2864 39.5455 30.1818V28.3636C39.5455 25.7227 38.6145 23.4713 36.7525 21.6093C34.8905 19.7473 32.6396 18.8169 30 18.8182C27.3591 18.8182 25.1076 19.7492 23.2456 21.6112C21.6119 23.2449 20.6954 25.1779 20.4961 27.4102C20.4492 27.9352 20.0271 28.3636 19.5 28.3636V28.3636C17.6545 28.3636 16.0795 29.0159 14.775 30.3205C13.4705 31.625 12.8182 33.2 12.8182 35.0455C12.8182 36.8909 13.4705 38.4659 14.775 39.7705C16.0795 41.075 17.6545 41.7273 19.5 41.7273Z" fill="white"/>
<defs>
<linearGradient id="paint0_linear_409_440" x1="1.25436" y1="0.416667" x2="58.1247" y2="58.7394" gradientUnits="userSpaceOnUse">
<stop stop-color="#93D9FF"/>
<stop offset="0.5" stop-color="#52C3FF"/>
<stop offset="1" stop-color="#42BDFF"/>
</linearGradient>
</defs>
</svg>
