<svg width="60" height="60" viewBox="0 0 60 60" fill="none" xmlns="http://www.w3.org/2000/svg">
<rect width="60" height="60" rx="11" fill="url(#paint0_linear_413_487)"/>
<rect x="13.8" y="15.8" width="32.4" height="22.5" rx="2.2" stroke="white" stroke-width="3.6"/>
<path fill-rule="evenodd" clip-rule="evenodd" d="M22.2243 28.0143C21.4897 28.0143 21 28.6603 21 29.3986V32.63C21 33.4137 21.5299 34.0143 22.2243 34.0143H23.9785C24.7144 34.0143 25.2857 33.4137 25.2857 32.63V29.3986C25.2857 28.6149 24.7144 28.0143 23.9785 28.0143H22.2243Z" fill="white"/>
<path fill-rule="evenodd" clip-rule="evenodd" d="M35.9399 20.3C35.2455 20.3 34.7143 20.8825 34.7143 21.5481V32.7663C34.7143 33.5151 35.2856 34.0143 35.9399 34.0143H37.7355C38.4701 34.0143 39 33.4319 39 32.7663V21.5481C39 20.8415 38.4701 20.3 37.7355 20.3H35.9399Z" fill="white"/>
<path fill-rule="evenodd" clip-rule="evenodd" d="M29.1222 24.5858C28.4282 24.5858 27.8571 25.145 27.8571 25.8234V32.8159C27.8571 33.535 28.4282 34.0143 29.1222 34.0143H30.917C31.6111 34.0143 32.1407 33.4944 32.1407 32.8159V25.8234C32.1821 25.145 31.6111 24.5858 30.917 24.5858H29.1222Z" fill="white"/>
<path d="M24.186 43.25H35.814C36.0849 43.25 36.3275 43.4181 36.4226 43.6718L37.6226 46.8718C37.7819 47.2967 37.4678 47.75 37.014 47.75H22.986C22.5321 47.75 22.218 47.2967 22.3774 46.8718L23.5774 43.6718C23.6725 43.4181 23.915 43.25 24.186 43.25Z" stroke="white" stroke-width="2.7"/>
<defs>
<linearGradient id="paint0_linear_413_487" x1="1.25436" y1="0.416667" x2="58.1247" y2="58.7394" gradientUnits="userSpaceOnUse">
<stop stop-color="#93D9FF"/>
<stop offset="0.5" stop-color="#52C3FF"/>
<stop offset="1" stop-color="#42BDFF"/>
</linearGradient>
</defs>
</svg>
