<svg width="36" height="36" viewBox="0 0 36 36" fill="none" xmlns="http://www.w3.org/2000/svg">
<rect x="1.8" y="1.8" width="32.4" height="22.5" rx="2.2" stroke="#1DABF8" stroke-width="3.6"/>
<path d="M12.186 29.25H23.814C24.0849 29.25 24.3275 29.4181 24.4226 29.6718L25.6226 32.8718C25.782 33.2967 25.4678 33.75 25.014 33.75H10.986C10.5322 33.75 10.218 33.2967 10.3774 32.8718L11.5774 29.6718C11.6725 29.4181 11.915 29.25 12.186 29.25Z" stroke="#1DABF8" stroke-width="2.7"/>
<path fill-rule="evenodd" clip-rule="evenodd" d="M27.2259 6C25.7685 6 24.5906 7.18009 24.5906 8.70581C24.5906 9.12193 24.6588 9.46759 24.7975 9.81543L21.1913 13.4922C20.8434 13.283 20.4273 13.2148 20.0817 13.2148C19.7338 13.2148 19.2494 13.283 18.9016 13.4922L17.0984 11.6186C17.3076 11.2729 17.3758 10.8568 17.3758 10.509C17.3758 9.05147 16.1275 7.80315 14.67 7.80315C13.2148 7.80315 11.9664 9.05147 11.9664 10.509C11.9664 10.9251 12.1051 11.2729 12.2438 11.6186L9.81543 14.047C9.46759 13.9083 9.05147 13.8378 8.70581 13.8378C7.24834 13.8378 6 15.0179 6 16.4732C6 18.0011 7.24834 19.179 8.70581 19.179C10.1633 19.179 11.4116 18.0011 11.4116 16.4732C11.4116 16.0571 11.2729 15.7114 11.1342 15.3635L13.5604 12.9374C13.9083 13.0761 14.3244 13.2148 14.67 13.2148C15.0179 13.2148 15.434 13.0761 15.7797 12.9374L17.6533 14.7405C17.4463 15.0861 17.3758 15.5727 17.3758 15.9184C17.3758 17.3759 18.5559 18.5559 20.0817 18.5559C21.5369 18.5559 22.717 17.3759 22.717 15.9184C22.717 15.434 22.6466 15.0861 22.5079 14.7405L26.1163 11.1342C26.462 11.2729 26.8781 11.4116 27.2259 11.4116C28.7517 11.4116 30 10.1611 30 8.70581C30 7.18009 28.7517 6 27.2259 6V6Z" fill="#1DABF8"/>
</svg>
