<svg width="38" height="37" viewBox="0 0 38 37" fill="none" xmlns="http://www.w3.org/2000/svg">
<path d="M12.5 7.58535C12.5 8.41378 11.8284 9.08535 11 9.08535C10.1716 9.08535 9.5 8.41378 9.5 7.58535C9.5 6.75693 10.1716 6.08535 11 6.08535C11.8284 6.08535 12.5 6.75693 12.5 7.58535Z" fill="#1DABF8"/>
<path fill-rule="evenodd" clip-rule="evenodd" d="M33.75 22V26.1427C36.1854 26.7087 38 28.8924 38 31.5C38 34.5376 35.5376 37 32.5 37C29.4624 37 27 34.5376 27 31.5C27 29.264 28.3343 27.3397 30.25 26.4798V23.5H21V27H24V37H14V27H17V23.5H7.75002V26.4798C9.66576 27.3397 11 29.2641 11 31.5C11 34.5376 8.53757 37 5.5 37C2.46243 37 0 34.5376 0 31.5C0 28.8924 1.81465 26.7086 4.25002 26.1427V22C4.25002 21.337 4.51341 20.7011 4.98225 20.2322C5.45109 19.7634 6.08698 19.5 6.75002 19.5H17V14.5H6.50002C5.83698 14.5 5.20109 14.2366 4.73225 13.7678C4.26341 13.2989 4.00002 12.663 4.00002 12V3.5C4.00002 2.83696 4.26341 2.20107 4.73225 1.73223C5.20109 1.26339 5.83698 1 6.50002 1H31.5C32.1631 1 32.7989 1.26339 33.2678 1.73223C33.7366 2.20107 34 2.83696 34 3.5V12C34 12.663 33.7366 13.2989 33.2678 13.7678C32.7989 14.2366 32.1631 14.5 31.5 14.5H21V19.5H30.25C30.3333 19.5 30.4252 19.4974 30.5239 19.4945C31.2109 19.4747 32.2308 19.4453 33.0178 20.2322C33.4866 20.7011 33.75 21.337 33.75 22ZM17 34.0787H21V29.9213H17V34.0787ZM7.50002 4.5V11H30.5V4.5H7.50002ZM32.5 34C33.8807 34 35 32.8807 35 31.5C35 30.1193 33.8807 29 32.5 29C31.1193 29 30 30.1193 30 31.5C30 32.8807 31.1193 34 32.5 34ZM8 31.5C8 32.8807 6.88071 34 5.5 34C4.11929 34 3 32.8807 3 31.5C3 30.1193 4.11929 29 5.5 29C6.88071 29 8 30.1193 8 31.5Z" fill="#1DABF8"/>
</svg>
