<svg width="50" height="50" viewBox="0 0 50 50" fill="none" xmlns="http://www.w3.org/2000/svg">
<path d="M8.4331 15.3603V19.1495C8.4331 20.2701 9.41063 21.182 10.6109 21.182H14.6747C15.8759 21.182 16.8526 20.2701 16.8526 19.1495V16.76L19.2568 14.725C19.5987 14.4349 19.6251 13.9412 19.3141 13.6214C19.0031 13.3025 18.473 13.2779 18.1311 13.568L16.748 14.7386C16.4652 13.9217 15.6432 13.3288 14.6747 13.3288H10.6109C9.41063 13.3279 8.4331 14.2398 8.4331 15.3603ZM15.1776 15.3603V16.0678L13.93 17.1239L12.5214 15.8099C12.195 15.5045 11.6649 15.5045 11.3375 15.8099C11.0101 16.1153 11.0101 16.6098 11.3375 16.9144L13.3098 18.7551C13.4735 18.9069 13.6872 18.9833 13.9027 18.9833C14.1037 18.9833 14.3055 18.9163 14.4656 18.7805L15.1776 18.1783V19.1495C15.1776 19.404 14.9475 19.6195 14.6747 19.6195H10.6109C10.3381 19.6195 10.1081 19.404 10.1081 19.1495V15.3603C10.1081 15.1059 10.3381 14.8904 10.6109 14.8904H14.6747C14.9466 14.8904 15.1776 15.1059 15.1776 15.3603ZM18.1311 24.1975L16.748 25.3681C16.4652 24.5504 15.6432 23.9575 14.6747 23.9575H10.6109C9.40972 23.9575 8.4331 24.8685 8.4331 25.9891V29.7791C8.4331 30.8997 9.40972 31.8107 10.6109 31.8107H14.6747C15.875 31.8107 16.8526 30.8997 16.8526 29.7791V27.3887L19.2568 25.3546C19.5987 25.0645 19.6251 24.5708 19.3141 24.251C19.0031 23.9312 18.473 23.9074 18.1311 24.1975ZM15.1776 29.7791C15.1776 30.0336 14.9475 30.2482 14.6747 30.2482H10.6109C10.3381 30.2482 10.1081 30.0336 10.1081 29.7791V25.9891C10.1081 25.7346 10.3381 25.52 10.6109 25.52H14.6747C14.9466 25.52 15.1776 25.7346 15.1776 25.9891V26.6974L13.93 27.7526L12.5214 26.4387C12.195 26.1341 11.6649 26.1341 11.3375 26.4387C11.0101 26.744 11.0101 27.2386 11.3375 27.5439L13.3098 29.3838C13.4735 29.5357 13.6872 29.6129 13.9027 29.6129C14.1037 29.6129 14.3055 29.5458 14.4656 29.4101L15.1776 28.807V29.7791ZM18.1311 34.8263L16.748 35.9969C16.4652 35.18 15.6432 34.5871 14.6747 34.5871H10.6109C9.40972 34.5871 8.4331 35.4981 8.4331 36.6187V40.4078C8.4331 41.5284 9.40972 42.4403 10.6109 42.4403H14.6747C15.875 42.4403 16.8526 41.5284 16.8526 40.4078V38.0183L19.2568 35.9833C19.5987 35.694 19.6251 35.1995 19.3141 34.8797C19.0031 34.5608 18.473 34.5362 18.1311 34.8263ZM15.1776 40.4078C15.1776 40.6623 14.9475 40.8778 14.6747 40.8778H10.6109C10.3381 40.8778 10.1081 40.6623 10.1081 40.4078V36.6187C10.1081 36.3642 10.3381 36.1487 10.6109 36.1487H14.6747C14.9466 36.1487 15.1776 36.3642 15.1776 36.6187V37.3261L13.93 38.3822L12.5214 37.0682C12.195 36.7629 11.6649 36.7629 11.3375 37.0682C11.0101 37.3736 11.0101 37.8681 11.3375 38.1727L13.3098 40.0134C13.4735 40.1652 13.6872 40.2416 13.9027 40.2416C14.1037 40.2416 14.3055 40.1746 14.4656 40.0388L15.1776 39.4366V40.4078ZM22.1412 3.80785C22.1412 4.34565 21.6702 4.7842 21.0937 4.7842C20.5172 4.7842 20.047 4.34565 20.047 3.80785C20.047 3.27005 20.5172 2.8315 21.0937 2.8315C21.6702 2.8315 22.1412 3.27005 22.1412 3.80785ZM48.4526 9.21807L47.6706 8.79733C46.192 8.00081 44.2942 8.47499 43.4413 9.85427L42.1873 11.8791V7.08893C42.1873 5.46027 40.767 4.13613 39.021 4.13613H30.8953V3.60427C30.8953 3.17335 30.5198 2.82302 30.0578 2.82302H25.553C24.8392 1.13413 23.0905 0 21.0937 0C19.0977 0 17.3481 1.13413 16.6343 2.82302H12.1304C11.6676 2.82302 11.292 3.17335 11.292 3.60427V4.13613H3.16628C1.42037 4.13613 0 5.46027 0 7.08893V47.0472C0 48.675 1.42037 50 3.16628 50H39.022C40.767 50 42.1873 48.675 42.1873 47.0472V25.1154L49.5856 13.1633C50.4395 11.7841 49.9312 10.0146 48.4526 9.21807ZM44.8917 10.6347C45.2172 10.1104 45.8701 9.87208 46.4712 10.0137L34.7336 28.9758L33.8379 28.4931L44.8917 10.6347ZM33.5314 30.1328L35.7129 31.3068L33.5314 32.4817V30.1328ZM39.022 5.69863C39.844 5.69863 40.5123 6.3221 40.5123 7.08893V14.5859L38.9483 17.112V7.93804C38.9483 7.50713 38.5737 7.15679 38.1108 7.15679H30.8953V5.69863H39.022ZM12.9679 4.38552H17.2463C17.6328 4.38552 17.9701 4.13867 18.0601 3.78749C18.3993 2.47778 19.6469 1.5625 21.0937 1.5625C22.5413 1.5625 23.788 2.47778 24.1272 3.78749C24.2181 4.13867 24.5546 4.38552 24.941 4.38552H29.2203V8.46906H12.9679V4.38552ZM30.0578 10.0324C30.5207 10.0324 30.8953 9.68207 30.8953 9.25115V8.71929H37.2733V19.8188L31.9683 28.3888C31.8947 28.5076 31.8565 28.6424 31.8565 28.779V33.8355C31.8565 34.1146 32.0156 34.3725 32.2748 34.5116C32.4048 34.5811 32.5494 34.6168 32.694 34.6168C32.8385 34.6168 32.9831 34.5811 33.1122 34.5116L37.2733 32.2713V45.4168H4.914V8.71929H11.292V9.25031C11.292 9.68207 11.6676 10.0316 12.1295 10.0316H30.0578V10.0324ZM40.5123 47.0472C40.5123 47.814 39.8431 48.4375 39.022 48.4375H3.16628C2.34425 48.4375 1.67589 47.814 1.67589 47.0472V7.08893C1.67589 6.3221 2.34425 5.69863 3.16628 5.69863H11.292V7.15679H4.07651C3.61458 7.15679 3.23902 7.50713 3.23902 7.93804V46.1981C3.23902 46.629 3.61458 46.9793 4.07651 46.9793H38.1108C38.5737 46.9793 38.9483 46.629 38.9483 46.1981V30.3483L40.5123 27.8222V47.0472ZM48.1352 12.3821L37.0815 30.2397L36.1849 29.7571L47.9215 10.7958C48.3544 11.2098 48.4599 11.857 48.1352 12.3821ZM20.7681 18.9578C20.7681 18.5261 21.1428 18.1766 21.6056 18.1766H26.396C26.8579 18.1766 27.2334 18.5261 27.2334 18.9578C27.2334 19.3896 26.8579 19.7391 26.396 19.7391H21.6056C21.1428 19.7391 20.7681 19.3896 20.7681 18.9578ZM20.7681 15.552C20.7681 15.1203 21.1428 14.7708 21.6056 14.7708H31.1854C31.6482 14.7708 32.0238 15.1203 32.0238 15.552C32.0238 15.9838 31.6482 16.3333 31.1854 16.3333H21.6056C21.1428 16.3333 20.7681 15.9838 20.7681 15.552ZM20.7681 28.5067C20.7681 28.075 21.1428 27.7255 21.6056 27.7255H26.396C26.8579 27.7255 27.2334 28.075 27.2334 28.5067C27.2334 28.9376 26.8579 29.288 26.396 29.288H21.6056C21.1428 29.288 20.7681 28.9376 20.7681 28.5067ZM20.7681 25.1009C20.7681 24.6692 21.1428 24.3197 21.6056 24.3197H31.1854C31.6482 24.3197 32.0238 24.6692 32.0238 25.1009C32.0238 25.5319 31.6482 25.8822 31.1854 25.8822H21.6056C21.1428 25.8822 20.7681 25.5319 20.7681 25.1009ZM20.7681 40.2161C20.7681 39.7844 21.1428 39.4349 21.6056 39.4349H26.396C26.8579 39.4349 27.2334 39.7844 27.2334 40.2161C27.2334 40.6479 26.8579 40.9974 26.396 40.9974H21.6056C21.1428 40.9974 20.7681 40.6479 20.7681 40.2161ZM20.7681 36.8104C20.7681 36.3794 21.1428 36.0291 21.6056 36.0291H31.1854C31.6482 36.0291 32.0238 36.3794 32.0238 36.8104C32.0238 37.2421 31.6482 37.5916 31.1854 37.5916H21.6056C21.1428 37.5916 20.7681 37.2421 20.7681 36.8104Z" fill="#0FA1EF"/>
</svg>
