<svg width="476" height="438" viewBox="0 0 476 438" fill="none" xmlns="http://www.w3.org/2000/svg">
<g clip-path="url(#clip0_1031_2403)">
<path d="M237.802 438C369.136 438 475.604 379.504 475.604 307.346C475.604 235.187 369.136 176.691 237.802 176.691C106.468 176.691 0 235.187 0 307.346C0 379.504 106.468 438 237.802 438Z" fill="#EFF8FE"/>
<path d="M104.1 319.344L242.49 239.478C244.957 238.052 247.757 237.301 250.607 237.301C253.457 237.301 256.257 238.052 258.724 239.478L292.675 259.445C293.48 259.91 294.149 260.579 294.614 261.384C295.078 262.189 295.323 263.103 295.323 264.033C295.323 264.963 295.078 265.877 294.614 266.682C294.149 267.487 293.48 268.156 292.675 268.621L154.292 348.487C151.822 349.909 149.022 350.658 146.171 350.658C143.321 350.658 140.521 349.909 138.051 348.487L104.1 328.521C103.295 328.055 102.626 327.387 102.161 326.581C101.696 325.776 101.451 324.862 101.451 323.932C101.451 323.002 101.696 322.089 102.161 321.283C102.626 320.478 103.295 319.809 104.1 319.344Z" fill="#D8EAF6"/>
<path d="M284.896 302.495L329.075 276.816C332.063 275.092 335.451 274.184 338.901 274.184C342.35 274.184 345.739 275.092 348.726 276.816L389.796 300.921C390.77 301.484 391.579 302.293 392.142 303.268C392.704 304.243 393 305.348 393 306.473C393 307.599 392.704 308.704 392.142 309.679C391.579 310.653 390.77 311.463 389.796 312.025L345.616 337.705C342.629 339.429 339.24 340.337 335.791 340.337C332.341 340.337 328.952 339.429 325.965 337.705L284.896 313.6C283.921 313.037 283.112 312.227 282.55 311.253C281.987 310.278 281.691 309.173 281.691 308.048C281.691 306.922 281.987 305.817 282.55 304.842C283.112 303.868 283.921 303.058 284.896 302.495Z" fill="#D8EAF6"/>
<path d="M226.363 299.7L203.617 312.647C201.849 313.659 199.848 314.191 197.811 314.191C195.775 314.191 193.774 313.659 192.006 312.647L177.415 304.2L175.756 303.24C174.027 302.241 172.591 300.805 171.593 299.075C170.594 297.346 170.067 295.385 170.066 293.388V251.381L204.208 231.945V274.819C204.208 276.543 204.661 278.237 205.522 279.731C206.383 281.224 207.623 282.465 209.115 283.328L226.379 293.311C226.941 293.634 227.409 294.1 227.733 294.662C228.057 295.223 228.228 295.861 228.226 296.51C228.224 297.159 228.051 297.795 227.724 298.356C227.397 298.916 226.928 299.38 226.363 299.7Z" fill="#263238"/>
<path d="M198.748 314.122C200.461 313.992 202.124 313.483 203.617 312.632L226.363 299.7C226.925 299.378 227.391 298.913 227.716 298.353C228.04 297.793 228.211 297.157 228.211 296.509C228.211 295.862 228.04 295.226 227.716 294.666C227.391 294.105 226.925 293.641 226.363 293.318L214.575 286.507H198.748V314.122Z" fill="#37474F"/>
<path d="M225.979 290.485L226.609 290.984C227.117 291.39 227.527 291.906 227.809 292.492C228.091 293.078 228.237 293.72 228.237 294.37V296.498H225.933L225.979 290.485Z" fill="#37474F"/>
<path d="M206.835 235.193V273.767C206.83 275.442 207.267 277.088 208.102 278.54C208.937 279.992 210.139 281.198 211.588 282.038L225.979 290.485C226.516 290.798 226.962 291.246 227.272 291.785C227.581 292.324 227.744 292.935 227.744 293.557C227.744 294.178 227.581 294.789 227.272 295.328C226.962 295.867 226.516 296.315 225.979 296.628L224.344 297.557L203.955 309.169C202.241 310.142 200.303 310.651 198.332 310.644C196.361 310.637 194.427 310.116 192.72 309.13L178.574 300.783C177.121 299.958 175.911 298.765 175.066 297.324C174.221 295.883 173.77 294.244 173.76 292.574V254L206.835 235.193Z" fill="#455A64"/>
<path d="M206.835 273.767V235.193L173.813 254V292.574C173.812 294.244 174.251 295.884 175.085 297.331C175.92 298.777 177.121 299.979 178.567 300.814L211.135 281.7C209.817 280.837 208.734 279.661 207.984 278.276C207.233 276.891 206.838 275.342 206.835 273.767Z" fill="#263238"/>
<path d="M117.155 312.333L113.999 314.16V319.928C111.973 319.929 109.984 319.38 108.247 318.338L108.001 318.192C107.278 317.763 106.649 317.191 106.154 316.511C105.659 315.831 105.308 315.057 105.121 314.237C105.007 313.885 104.947 313.517 104.945 313.147V305.291L117.155 312.333Z" fill="#263238"/>
<path d="M254.231 100.413L253.986 100.259C252.25 99.2269 250.269 98.6805 248.249 98.6772C247.602 98.6701 246.964 98.8401 246.406 99.1687L110.481 177.337C108.81 178.303 107.423 179.691 106.458 181.362C105.492 183.034 104.984 184.929 104.983 186.859V305.291L117.185 312.333L246.322 238.096C247.993 237.13 249.38 235.742 250.345 234.071C251.311 232.4 251.819 230.504 251.82 228.574V105.773H257.311C257.308 104.689 257.022 103.624 256.482 102.684C255.942 101.744 255.166 100.961 254.231 100.413Z" fill="#37474F"/>
<path d="M106.12 181.929C105.35 183.459 104.948 185.147 104.945 186.859V305.29L117.155 312.332L121.724 309.698V191.59L106.12 181.929Z" fill="#263238"/>
<path d="M110.443 308.462V316.318C110.446 316.946 110.613 317.563 110.928 318.106C111.243 318.65 111.694 319.102 112.238 319.417C112.781 319.732 113.397 319.9 114.026 319.903C114.654 319.906 115.272 319.745 115.819 319.436L251.743 241.268C253.415 240.302 254.802 238.914 255.767 237.243C256.732 235.571 257.241 233.675 257.242 231.745V223.674L110.443 308.462Z" fill="#37474F"/>
<path d="M257.28 105.458C257.278 104.83 257.11 104.213 256.796 103.67C256.481 103.126 256.029 102.674 255.486 102.359C254.942 102.044 254.326 101.876 253.698 101.873C253.07 101.87 252.452 102.031 251.905 102.34L115.98 180.508C114.309 181.474 112.921 182.862 111.956 184.534C110.991 186.205 110.483 188.101 110.482 190.031V308.462L257.28 223.674" fill="#455A64"/>
<path d="M249.401 110.91C248.781 110.906 248.168 111.048 247.612 111.325L119.827 184.771C118.345 185.626 117.114 186.857 116.261 188.34C115.407 189.824 114.961 191.506 114.966 193.218V294.086C114.967 294.522 115.056 294.953 115.227 295.353C115.406 295.765 115.67 296.134 116.002 296.437C116.334 296.74 116.725 296.969 117.152 297.109C117.578 297.25 118.029 297.299 118.476 297.253C118.922 297.207 119.354 297.068 119.743 296.843L247.482 223.398C248.962 222.541 250.191 221.309 251.043 219.826C251.895 218.343 252.341 216.661 252.335 214.95V114.082C252.335 113.281 252.033 112.509 251.49 111.921C250.946 111.333 250.2 110.972 249.401 110.91Z" fill="#0FA1EF"/>
<path opacity="0.4" d="M249.401 110.91C248.781 110.906 248.168 111.048 247.612 111.325L119.827 184.771C118.345 185.626 117.114 186.857 116.261 188.34C115.407 189.824 114.961 191.506 114.966 193.218V294.086C114.967 294.522 115.056 294.953 115.227 295.353C115.406 295.765 115.67 296.134 116.002 296.437C116.334 296.74 116.725 296.969 117.152 297.109C117.578 297.25 118.029 297.299 118.476 297.253C118.922 297.207 119.354 297.068 119.743 296.843L247.482 223.398C248.962 222.541 250.191 221.309 251.043 219.826C251.895 218.343 252.341 216.661 252.335 214.95V114.082C252.335 113.281 252.033 112.509 251.49 111.921C250.946 111.333 250.2 110.972 249.401 110.91Z" fill="white"/>
<path d="M126.631 199.431V312.663C126.631 314.475 127.299 315.696 128.321 316.103L132.659 318.484V314.644L133.281 198.233L127.606 195.368C126.994 196.637 126.662 198.022 126.631 199.431Z" fill="#D8EAF6"/>
<path d="M127.606 195.353L133.281 198.217L270.573 117.699L273.845 115.802L269.322 113.253L269.199 113.176C268.772 112.958 268.293 112.861 267.815 112.896C267.337 112.932 266.878 113.097 266.488 113.376L130.755 191.628C129.357 192.528 128.261 193.825 127.606 195.353Z" fill="#EFF8FE"/>
<path d="M131.523 201.896V314.383C131.523 315.919 132.022 317.071 132.821 317.593L133.074 317.739C133.484 317.9 133.926 317.957 134.363 317.907C134.799 317.856 135.217 317.698 135.578 317.447L270.574 239.686C272.816 238.388 274.636 234.917 274.636 231.93V119.45C274.636 117.914 274.167 116.839 273.423 116.294C273.297 116.196 273.157 116.119 273.008 116.063C272.606 115.92 272.175 115.874 271.752 115.93C271.328 115.986 270.924 116.143 270.574 116.386L135.609 194.147C134.29 195.006 133.247 196.227 132.606 197.664C131.934 198.976 131.564 200.422 131.523 201.896Z" fill="white"/>
<path d="M256.466 191.713L192.19 228.842C191.865 229.032 191.496 229.132 191.12 229.133C190.744 229.134 190.374 229.035 190.048 228.848C189.722 228.66 189.452 228.389 189.264 228.063C189.077 227.737 188.979 227.368 188.98 226.992V192.588C188.98 190.83 189.443 189.102 190.322 187.579C191.201 186.056 192.465 184.791 193.987 183.91L256.789 147.648C257.255 147.379 257.785 147.237 258.324 147.237C258.863 147.237 259.392 147.378 259.859 147.648C260.326 147.917 260.714 148.304 260.983 148.771C261.253 149.237 261.396 149.767 261.396 150.306V183.212C261.393 184.937 260.935 186.63 260.07 188.122C259.204 189.615 257.961 190.853 256.466 191.713Z" fill="#0FA1EF"/>
<path d="M199.148 248.371L191.207 252.979C189.817 253.785 188.688 252.933 188.688 251.074V242.788C188.702 241.843 188.938 240.915 189.375 240.078C189.812 239.24 190.44 238.517 191.207 237.965L199.148 233.358C200.537 232.551 201.666 233.404 201.666 235.262V243.525C201.658 244.474 201.425 245.408 200.987 246.25C200.549 247.092 199.919 247.819 199.148 248.371Z" fill="#0FA1EF"/>
<path d="M218.515 237.251L210.574 241.859C209.185 242.627 208.056 241.813 208.056 239.954V231.668C208.069 230.725 208.304 229.797 208.742 228.961C209.179 228.125 209.807 227.403 210.574 226.853L218.515 222.246C219.905 221.478 221.034 222.292 221.034 224.15V232.413C221.024 233.361 220.79 234.293 220.353 235.133C219.915 235.974 219.286 236.7 218.515 237.251Z" fill="#0FA1EF"/>
<path d="M238.451 225.732L230.51 230.34C229.12 231.108 227.991 230.294 227.991 228.435V220.142C228.007 219.198 228.243 218.272 228.68 217.436C229.117 216.6 229.744 215.877 230.51 215.327L238.451 210.719C239.841 209.951 240.97 210.773 240.97 212.631V220.894C240.96 221.842 240.726 222.774 240.289 223.614C239.851 224.455 239.221 225.181 238.451 225.732Z" fill="#0FA1EF"/>
<path d="M258.394 214.213L250.453 218.821C249.063 219.589 247.935 218.767 247.935 216.916V208.623C247.95 207.679 248.186 206.753 248.623 205.917C249.06 205.081 249.687 204.358 250.453 203.808L258.394 199.2C259.784 198.432 260.913 199.254 260.913 201.105V209.375C260.902 210.323 260.669 211.255 260.231 212.095C259.793 212.936 259.164 213.661 258.394 214.213Z" fill="#0FA1EF"/>
<path d="M199.148 270.249L191.207 274.857C189.817 275.625 188.688 274.803 188.688 272.953V264.659C188.702 263.715 188.938 262.788 189.375 261.952C189.813 261.116 190.44 260.394 191.207 259.844L199.148 255.236C200.537 254.43 201.666 255.29 201.666 257.141V265.411C201.655 266.359 201.42 267.29 200.983 268.13C200.545 268.971 199.917 269.697 199.148 270.249Z" fill="#0FA1EF"/>
<path d="M218.515 259.13L210.574 263.737C209.185 264.544 208.056 263.684 208.056 261.833V253.539C208.071 252.596 208.307 251.669 208.744 250.833C209.182 249.997 209.808 249.275 210.574 248.724L218.515 244.117C219.905 243.349 221.034 244.17 221.034 246.021V254.315C221.02 255.258 220.784 256.186 220.347 257.022C219.909 257.858 219.282 258.58 218.515 259.13Z" fill="#0FA1EF"/>
<path d="M238.451 247.611L230.51 252.218C229.12 252.986 227.991 252.165 227.991 250.314V242.02C228.006 241.077 228.241 240.15 228.678 239.313C229.116 238.477 229.743 237.755 230.51 237.205L238.451 232.598C239.841 231.791 240.97 232.644 240.97 234.502V242.796C240.954 243.739 240.718 244.666 240.281 245.502C239.844 246.338 239.217 247.06 238.451 247.611Z" fill="#0FA1EF"/>
<path d="M258.394 236.084L250.453 240.692C249.063 241.498 247.935 240.646 247.935 238.787V230.501C247.948 229.558 248.183 228.63 248.621 227.794C249.058 226.958 249.686 226.236 250.453 225.686L258.394 221.079C259.784 220.273 260.913 221.125 260.913 222.983V231.246C260.903 232.194 260.669 233.126 260.232 233.967C259.794 234.807 259.164 235.533 258.394 236.084Z" fill="#0FA1EF"/>
<g opacity="0.7">
<path d="M256.466 191.713L192.19 228.842C191.865 229.032 191.496 229.132 191.12 229.133C190.744 229.134 190.374 229.035 190.049 228.848C189.723 228.66 189.452 228.389 189.265 228.063C189.077 227.737 188.979 227.368 188.98 226.992V192.588C188.981 190.83 189.444 189.102 190.322 187.579C191.201 186.056 192.465 184.791 193.987 183.91L256.789 147.648C257.256 147.379 257.785 147.237 258.324 147.237C258.863 147.237 259.392 147.378 259.859 147.648C260.326 147.917 260.714 148.304 260.984 148.771C261.254 149.237 261.396 149.767 261.396 150.306V183.212C261.393 184.937 260.935 186.63 260.07 188.122C259.205 189.615 257.962 190.853 256.466 191.713Z" fill="white"/>
<path d="M199.148 248.371L191.207 252.979C189.817 253.785 188.688 252.933 188.688 251.074V242.788C188.702 241.843 188.938 240.915 189.375 240.078C189.812 239.24 190.44 238.517 191.207 237.965L199.148 233.358C200.537 232.551 201.666 233.404 201.666 235.262V243.525C201.658 244.474 201.425 245.408 200.987 246.25C200.549 247.092 199.919 247.819 199.148 248.371Z" fill="white"/>
<path d="M218.515 237.251L210.574 241.859C209.185 242.627 208.056 241.813 208.056 239.954V231.668C208.069 230.725 208.304 229.797 208.742 228.961C209.179 228.125 209.807 227.403 210.574 226.853L218.515 222.246C219.905 221.478 221.034 222.292 221.034 224.15V232.413C221.024 233.361 220.79 234.293 220.353 235.133C219.915 235.974 219.286 236.7 218.515 237.251Z" fill="white"/>
<path d="M238.451 225.732L230.51 230.34C229.12 231.108 227.991 230.294 227.991 228.435V220.142C228.007 219.198 228.243 218.272 228.68 217.436C229.117 216.6 229.744 215.877 230.51 215.327L238.451 210.719C239.841 209.951 240.97 210.773 240.97 212.631V220.894C240.96 221.842 240.726 222.774 240.289 223.614C239.851 224.455 239.221 225.181 238.451 225.732Z" fill="white"/>
<path d="M258.394 214.213L250.453 218.821C249.063 219.589 247.935 218.767 247.935 216.916V208.623C247.95 207.679 248.186 206.753 248.623 205.917C249.06 205.081 249.687 204.358 250.453 203.808L258.394 199.2C259.784 198.432 260.913 199.254 260.913 201.105V209.375C260.902 210.323 260.669 211.255 260.231 212.095C259.793 212.936 259.164 213.661 258.394 214.213Z" fill="white"/>
<path d="M199.148 270.25L191.207 274.857C189.817 275.625 188.688 274.804 188.688 272.953V264.659C188.702 263.716 188.938 262.789 189.375 261.952C189.813 261.116 190.44 260.394 191.207 259.844L199.148 255.237C200.537 254.43 201.666 255.29 201.666 257.141V265.412C201.655 266.359 201.42 267.29 200.983 268.131C200.545 268.971 199.917 269.697 199.148 270.25Z" fill="white"/>
<path d="M218.515 259.13L210.574 263.737C209.185 264.544 208.056 263.684 208.056 261.833V253.539C208.071 252.596 208.307 251.669 208.744 250.833C209.182 249.997 209.808 249.275 210.574 248.724L218.515 244.117C219.905 243.349 221.034 244.17 221.034 246.021V254.315C221.02 255.258 220.784 256.186 220.347 257.022C219.909 257.858 219.282 258.58 218.515 259.13Z" fill="white"/>
<path d="M238.451 247.611L230.51 252.218C229.12 252.986 227.991 252.165 227.991 250.314V242.02C228.006 241.077 228.241 240.15 228.678 239.313C229.116 238.477 229.743 237.755 230.51 237.205L238.451 232.598C239.841 231.791 240.97 232.644 240.97 234.502V242.796C240.954 243.739 240.718 244.666 240.281 245.502C239.844 246.338 239.217 247.06 238.451 247.611Z" fill="white"/>
<path d="M258.394 236.084L250.453 240.692C249.063 241.498 247.935 240.646 247.935 238.787V230.501C247.948 229.558 248.183 228.63 248.621 227.794C249.058 226.958 249.686 226.236 250.453 225.686L258.394 221.079C259.784 220.273 260.913 221.125 260.913 222.983V231.246C260.903 232.194 260.669 233.126 260.232 233.967C259.794 234.807 259.164 235.533 258.394 236.084Z" fill="white"/>
</g>
<path d="M176.647 293.925L135.362 317.746C134.958 317.982 134.499 318.106 134.031 318.107C133.563 318.108 133.104 317.985 132.698 317.751C132.293 317.518 131.957 317.181 131.724 316.776C131.49 316.37 131.368 315.91 131.369 315.443V204.476L176.624 178.366L176.647 293.925Z" fill="#0FA1EF"/>
<path opacity="0.7" d="M176.647 293.925L135.362 317.746C134.958 317.982 134.499 318.106 134.031 318.107C133.563 318.108 133.104 317.985 132.698 317.751C132.293 317.518 131.957 317.181 131.724 316.776C131.49 316.37 131.368 315.91 131.369 315.443V204.476L176.624 178.366L176.647 293.925Z" fill="white"/>
<path d="M143.879 211.802C143.814 212.88 143.498 213.928 142.955 214.861C142.412 215.795 141.658 216.588 140.754 217.177C139.033 218.176 137.636 217.369 137.636 215.38C137.7 214.303 138.015 213.256 138.556 212.323C139.098 211.389 139.85 210.595 140.754 210.005C142.481 209.007 143.879 209.851 143.879 211.802Z" fill="#EFF8FE"/>
<path d="M143.879 223.759C143.814 224.837 143.498 225.884 142.955 226.818C142.412 227.752 141.658 228.545 140.754 229.134C139.033 230.133 137.636 229.326 137.636 227.337C137.694 226.254 138.006 225.199 138.548 224.258C139.09 223.318 139.845 222.518 140.754 221.924C142.481 220.964 143.879 221.77 143.879 223.759Z" fill="#EFF8FE"/>
<path d="M143.879 235.716C143.814 236.793 143.498 237.841 142.955 238.775C142.412 239.708 141.658 240.502 140.754 241.091C139.033 242.089 137.636 241.283 137.636 239.286C137.7 238.209 138.015 237.162 138.556 236.229C139.098 235.295 139.85 234.501 140.754 233.911C142.481 232.89 143.879 233.727 143.879 235.716Z" fill="#EFF8FE"/>
<path d="M143.879 247.672C143.814 248.75 143.498 249.798 142.955 250.731C142.412 251.665 141.658 252.458 140.754 253.048C139.033 254.046 137.636 253.232 137.636 251.243C137.7 250.166 138.015 249.119 138.556 248.185C139.098 247.252 139.85 246.458 140.754 245.868C142.481 244.869 143.879 245.676 143.879 247.672Z" fill="#EFF8FE"/>
<path d="M150.837 208.922C150.586 208.925 150.342 208.845 150.142 208.693C149.942 208.542 149.798 208.329 149.733 208.087C149.668 207.845 149.685 207.588 149.782 207.357C149.879 207.126 150.05 206.934 150.268 206.81L168.56 196.251C168.82 196.102 169.129 196.061 169.418 196.139C169.708 196.217 169.954 196.406 170.104 196.666C170.254 196.926 170.294 197.234 170.216 197.524C170.139 197.813 169.949 198.06 169.689 198.209L151.397 208.769C151.227 208.867 151.033 208.92 150.837 208.922Z" fill="#EFF8FE"/>
<path d="M150.837 220.879C150.586 220.882 150.342 220.801 150.142 220.65C149.942 220.499 149.798 220.286 149.733 220.044C149.668 219.802 149.685 219.545 149.782 219.314C149.879 219.083 150.05 218.89 150.268 218.767L168.561 208.2C168.82 208.055 169.126 208.017 169.413 208.094C169.7 208.172 169.946 208.359 170.096 208.615C170.17 208.743 170.219 208.884 170.238 209.031C170.257 209.178 170.247 209.327 170.209 209.469C170.17 209.612 170.104 209.746 170.013 209.863C169.923 209.98 169.81 210.078 169.682 210.151L151.389 220.718C151.222 220.818 151.032 220.873 150.837 220.879Z" fill="#EFF8FE"/>
<path d="M150.837 232.828C150.589 232.828 150.347 232.746 150.15 232.595C149.954 232.445 149.812 232.233 149.747 231.993C149.682 231.754 149.698 231.5 149.793 231.27C149.887 231.041 150.054 230.849 150.268 230.724L168.561 220.157C168.82 220.011 169.126 219.973 169.413 220.051C169.7 220.128 169.946 220.315 170.097 220.572C170.171 220.7 170.219 220.841 170.238 220.988C170.257 221.134 170.247 221.283 170.209 221.426C170.17 221.569 170.104 221.702 170.013 221.819C169.923 221.936 169.81 222.034 169.682 222.108L151.39 232.674C151.222 232.772 151.031 232.825 150.837 232.828Z" fill="#EFF8FE"/>
<path d="M150.837 244.785C150.586 244.788 150.342 244.707 150.142 244.556C149.942 244.405 149.798 244.191 149.733 243.949C149.668 243.707 149.685 243.451 149.782 243.219C149.879 242.988 150.05 242.796 150.268 242.673L168.561 232.121C168.82 231.976 169.126 231.938 169.413 232.015C169.7 232.093 169.946 232.28 170.096 232.536C170.17 232.664 170.219 232.805 170.238 232.952C170.257 233.099 170.247 233.248 170.209 233.39C170.17 233.533 170.104 233.667 170.013 233.784C169.923 233.901 169.81 233.999 169.682 234.072L151.389 244.631C151.223 244.732 151.031 244.785 150.837 244.785Z" fill="#EFF8FE"/>
<path d="M140.738 272.822C140.488 272.825 140.243 272.744 140.044 272.593C139.844 272.442 139.7 272.229 139.635 271.987C139.57 271.745 139.587 271.488 139.684 271.257C139.781 271.026 139.952 270.833 140.17 270.71L168.538 254.338C168.666 254.253 168.81 254.195 168.962 254.168C169.114 254.141 169.269 254.145 169.419 254.18C169.569 254.215 169.71 254.281 169.833 254.373C169.957 254.464 170.061 254.58 170.138 254.714C170.215 254.847 170.264 254.995 170.282 255.147C170.3 255.3 170.286 255.455 170.242 255.603C170.198 255.75 170.124 255.887 170.025 256.005C169.926 256.123 169.804 256.219 169.667 256.288L141.299 272.668C141.13 272.77 140.936 272.824 140.738 272.822Z" fill="#EFF8FE"/>
<path d="M140.738 282.805C140.488 282.808 140.243 282.728 140.044 282.577C139.844 282.425 139.7 282.212 139.635 281.97C139.57 281.728 139.587 281.471 139.684 281.24C139.781 281.009 139.952 280.817 140.17 280.694L168.538 264.313C168.797 264.168 169.103 264.13 169.39 264.207C169.677 264.285 169.923 264.472 170.074 264.728C170.148 264.856 170.196 264.997 170.215 265.144C170.234 265.291 170.224 265.44 170.186 265.582C170.147 265.725 170.081 265.859 169.99 265.976C169.9 266.093 169.787 266.191 169.659 266.264L141.291 282.644C141.125 282.747 140.934 282.803 140.738 282.805Z" fill="#EFF8FE"/>
<path d="M140.738 292.789C140.488 292.792 140.243 292.711 140.044 292.56C139.844 292.409 139.7 292.196 139.635 291.954C139.57 291.712 139.587 291.455 139.684 291.224C139.781 290.993 139.952 290.8 140.17 290.677L168.538 274.297C168.797 274.152 169.103 274.113 169.39 274.191C169.677 274.268 169.923 274.455 170.074 274.712C170.148 274.84 170.196 274.981 170.215 275.128C170.234 275.274 170.224 275.423 170.186 275.566C170.147 275.709 170.081 275.842 169.99 275.959C169.9 276.076 169.787 276.174 169.659 276.248L141.291 292.628C141.124 292.728 140.933 292.783 140.738 292.789Z" fill="#EFF8FE"/>
<path d="M140.738 302.726C140.488 302.729 140.243 302.648 140.044 302.497C139.844 302.346 139.7 302.132 139.635 301.89C139.57 301.648 139.587 301.391 139.684 301.16C139.781 300.929 139.952 300.737 140.17 300.614L168.538 284.234C168.666 284.16 168.808 284.111 168.955 284.092C169.102 284.073 169.252 284.083 169.395 284.121C169.539 284.16 169.673 284.226 169.791 284.317C169.908 284.407 170.007 284.52 170.081 284.648C170.155 284.777 170.203 284.919 170.223 285.066C170.242 285.213 170.232 285.363 170.194 285.506C170.155 285.649 170.089 285.784 169.998 285.901C169.908 286.019 169.795 286.118 169.667 286.192L141.299 302.572C141.128 302.671 140.935 302.724 140.738 302.726Z" fill="#EFF8FE"/>
<path d="M131.523 267.823C131.458 267.824 131.393 267.808 131.336 267.776C131.279 267.743 131.232 267.696 131.2 267.639C131.15 267.553 131.135 267.451 131.16 267.355C131.184 267.258 131.246 267.175 131.331 267.124L175.272 241.782C175.315 241.757 175.362 241.74 175.412 241.733C175.461 241.726 175.511 241.729 175.559 241.742C175.607 241.754 175.652 241.777 175.691 241.808C175.73 241.838 175.763 241.877 175.787 241.921C175.835 242.008 175.847 242.11 175.821 242.206C175.796 242.302 175.734 242.384 175.649 242.435L131.715 267.777C131.655 267.807 131.59 267.823 131.523 267.823Z" fill="#EFF8FE"/>
<path d="M134.702 194.915L271.326 115.817C271.692 115.602 272.109 115.488 272.534 115.486C272.959 115.483 273.377 115.593 273.746 115.805C274.114 116.016 274.421 116.321 274.634 116.688C274.847 117.056 274.959 117.474 274.958 117.899V123.842L131.393 206.549V201.896C131.393 199.515 132.652 196.113 134.702 194.915Z" fill="#E1F0F9"/>
<path d="M272.723 116.117C272.924 116.117 273.122 116.156 273.307 116.232C273.399 116.269 273.485 116.321 273.56 116.386C273.905 116.723 274.169 117.134 274.332 117.587C274.496 118.041 274.555 118.525 274.505 119.004V232.168C274.505 234.901 272.792 238.204 270.757 239.371L134.986 317.608C134.603 317.848 134.163 317.983 133.711 318C133.508 318.002 133.306 317.96 133.12 317.877L132.905 317.762C132.283 317.332 131.93 316.372 131.93 315.113V201.949C131.962 200.571 132.3 199.218 132.92 197.987C133.506 196.665 134.461 195.539 135.67 194.746L271.441 116.516C271.826 116.272 272.268 116.134 272.723 116.117ZM272.723 115.434C272.15 115.451 271.592 115.618 271.103 115.917L135.363 194.155C134.035 195.016 132.984 196.243 132.337 197.687C131.67 199.011 131.308 200.467 131.277 201.949V315.113C131.277 316.687 131.776 317.816 132.583 318.346L132.844 318.491C133.125 318.624 133.432 318.692 133.742 318.691C134.316 318.671 134.874 318.502 135.363 318.2L271.134 239.97C273.391 238.664 275.219 235.17 275.219 232.168V119.004C275.219 117.469 274.751 116.386 273.998 115.833C273.872 115.735 273.732 115.654 273.583 115.595C273.321 115.486 273.039 115.431 272.754 115.434H272.723Z" fill="#EFF8FE"/>
<path d="M310.99 216.394V219.965L326.786 214.267L339.211 188.096L333.383 187.32L322.877 209.176L310.99 216.394Z" fill="#37474F"/>
<path d="M310.99 216.394L314.899 218.422V221.993L310.99 219.965V216.394Z" fill="#455A64"/>
<path d="M314.898 218.422V221.993L328.353 214.267L339.949 189.378L337.299 189.348L326.786 211.203L314.898 218.422Z" fill="#263238"/>
<path d="M345.747 240.899L368.654 194.9L376.334 197.941L357.657 246.574L345.747 240.899Z" fill="#37474F"/>
<path d="M376.333 178.312C375.013 177.544 373.177 177.652 371.158 178.819C367.126 181.123 363.854 186.806 363.854 191.467C363.854 194.009 364.837 195.722 366.381 196.374L375.013 201.404L385.311 183.519L376.333 178.312Z" fill="#0FA1EF"/>
<path d="M385.525 195.543C388.377 190.603 388.376 185.263 385.522 183.615C382.668 181.967 378.042 184.636 375.19 189.576C372.338 194.517 372.339 199.857 375.193 201.505C378.047 203.152 382.672 200.483 385.525 195.543Z" fill="#0FA1EF"/>
<path opacity="0.3" d="M385.525 195.543C388.377 190.603 388.376 185.263 385.522 183.615C382.668 181.967 378.042 184.636 375.19 189.576C372.338 194.517 372.339 199.857 375.193 201.505C378.047 203.152 382.672 200.483 385.525 195.543Z" fill="black"/>
<path d="M384.059 190.423C383.988 191.708 383.617 192.959 382.974 194.074C382.331 195.189 381.434 196.138 380.357 196.843C378.307 198.025 376.648 197.065 376.648 194.7C376.718 193.414 377.09 192.162 377.734 191.046C378.379 189.931 379.277 188.983 380.357 188.28C382.4 187.097 384.059 188.057 384.059 190.423Z" fill="#0FA1EF"/>
<path opacity="0.6" d="M384.059 190.423C383.988 191.708 383.617 192.959 382.974 194.074C382.331 195.189 381.434 196.138 380.357 196.843C378.307 198.025 376.648 197.065 376.648 194.7C376.718 193.414 377.09 192.162 377.734 191.046C378.379 189.931 379.277 188.983 380.357 188.28C382.4 187.097 384.059 188.057 384.059 190.423Z" fill="black"/>
<path d="M340.571 186.353C340.84 186.79 369.752 192.558 369.752 192.558C369.752 192.558 372.456 192.151 372.456 189.601C372.443 188.872 372.201 188.166 371.764 187.583C371.327 187 370.717 186.569 370.021 186.353L341.17 182.613L340.571 186.353Z" fill="#37474F"/>
<path d="M338.421 175.717C337.507 175.187 336.24 175.264 334.842 176.07C333.371 177.027 332.146 178.318 331.268 179.838C330.39 181.358 329.883 183.064 329.789 184.817C329.789 186.575 330.473 187.758 331.54 188.211L337.515 191.674L344.633 179.311L338.421 175.717Z" fill="#0FA1EF"/>
<path d="M346.253 182.659C346.158 184.417 345.648 186.127 344.764 187.65C343.88 189.173 342.649 190.465 341.17 191.421C338.382 193.034 336.117 191.728 336.117 188.51C336.209 186.754 336.715 185.044 337.593 183.521C338.471 181.997 339.697 180.702 341.17 179.741C343.988 178.128 346.253 179.433 346.253 182.659Z" fill="#0FA1EF"/>
<path opacity="0.3" d="M346.253 182.659C346.158 184.417 345.648 186.127 344.764 187.65C343.88 189.173 342.649 190.465 341.17 191.421C338.382 193.034 336.117 191.728 336.117 188.51C336.209 186.754 336.715 185.044 337.593 183.521C338.471 181.997 339.697 180.702 341.17 179.741C343.988 178.128 346.253 179.433 346.253 182.659Z" fill="black"/>
<path d="M343.765 184.095C343.715 184.984 343.456 185.848 343.011 186.619C342.565 187.39 341.945 188.046 341.2 188.534C339.787 189.348 338.635 188.687 338.635 187.051C338.684 186.162 338.941 185.297 339.387 184.525C339.833 183.754 340.454 183.099 341.2 182.613C342.613 181.791 343.765 182.459 343.765 184.095Z" fill="#0FA1EF"/>
<path opacity="0.6" d="M343.765 184.095C343.715 184.984 343.456 185.848 343.011 186.619C342.565 187.39 341.945 188.046 341.2 188.534C339.787 189.348 338.635 188.687 338.635 187.051C338.684 186.162 338.941 185.297 339.387 184.525C339.833 183.754 340.454 183.099 341.2 182.613C342.613 181.791 343.765 182.459 343.765 184.095Z" fill="black"/>
<path d="M306.657 297.636C309.879 287.442 307.721 277.669 301.837 275.81C295.953 273.95 288.571 280.707 285.349 290.902C282.127 301.097 284.284 310.869 290.168 312.729C296.052 314.588 303.435 307.831 306.657 297.636Z" fill="#37474F"/>
<path d="M289.157 312.294L298.779 318.23L313.247 282.59L312.134 281.838L289.157 312.294Z" fill="#37474F"/>
<path d="M316.487 303.677C319.71 293.483 317.552 283.71 311.668 281.851C305.784 279.991 298.402 286.748 295.179 296.943C291.957 307.138 294.115 316.91 299.999 318.77C305.883 320.629 313.265 313.872 316.487 303.677Z" fill="#263238"/>
<path d="M373.923 297.189C377.04 287.33 374.796 277.83 368.912 275.97C363.028 274.11 355.732 280.595 352.616 290.455C349.499 300.314 351.743 309.814 357.627 311.674C363.511 313.534 370.807 307.049 373.923 297.189Z" fill="#37474F"/>
<path d="M356.114 311.019L366.297 317.339L379.951 281.154L370.006 276.416L356.114 311.019Z" fill="#37474F"/>
<path d="M303.587 240.899L340.571 261.902L368.654 245.561L332.062 224.619L303.587 240.899Z" fill="#0FA1EF"/>
<path opacity="0.2" d="M368.654 245.561L359.063 251.144H359.055L357.626 251.981L340.571 261.902L303.579 240.899L321.034 230.924L322.378 230.148L332.062 224.619L368.654 245.561Z" fill="black"/>
<path d="M368.654 245.56V294.463L359.063 300.03L357.726 300.798L348.511 306.128C346.207 298.763 339.88 297.173 333.805 302.733C331.209 305.224 329.156 308.226 327.777 311.549V300.145L340.54 261.902L357.596 251.98L359.024 251.143L368.654 245.56Z" fill="#0FA1EF"/>
<path opacity="0.4" d="M368.654 245.56V294.463L359.063 300.03L357.726 300.798L348.511 306.128C346.207 298.763 339.88 297.173 333.805 302.733C331.209 305.224 329.156 308.226 327.777 311.549V300.145L340.54 261.902L357.596 251.98L359.024 251.143L368.654 245.56Z" fill="black"/>
<path d="M290.824 279.142L327.808 300.145V311.557L320.167 307.387V319.459L298.012 306.757V294.601L290.824 290.546V279.142Z" fill="#0FA1EF"/>
<path d="M303.587 240.899L290.824 279.142L327.808 300.145L340.571 261.902L303.587 240.899Z" fill="#0FA1EF"/>
<path opacity="0.2" d="M303.587 240.899L290.824 279.142L327.808 300.145L340.571 261.902L303.587 240.899Z" fill="white"/>
<path d="M327.807 311.557L320.174 307.38C317.74 312.202 316.434 317.678 316.895 322.424C317.747 331.109 324.19 334.035 331.286 328.959C336.232 325.418 340.179 318.937 341.838 312.387L327.807 311.557Z" fill="#37474F"/>
<path d="M321.096 330.517L331.279 336.838L345.747 301.205L344.641 300.445L321.096 330.517Z" fill="#37474F"/>
<path d="M347.911 321.554C351.134 311.359 348.976 301.587 343.092 299.727C337.208 297.867 329.826 304.624 326.604 314.819C323.381 325.014 325.539 334.786 331.423 336.646C337.307 338.506 344.689 331.749 347.911 321.554Z" fill="#37474F"/>
<path d="M348.992 322.295C352.214 312.1 350.057 302.327 344.173 300.468C338.288 298.608 330.906 305.365 327.684 315.56C324.462 325.755 326.62 335.527 332.504 337.387C338.388 339.247 345.77 332.489 348.992 322.295Z" fill="#455A64"/>
<path d="M343.95 320.987C345.405 316.385 344.43 311.974 341.773 311.134C339.116 310.294 335.783 313.344 334.329 317.946C332.874 322.548 333.849 326.96 336.506 327.8C339.163 328.639 342.496 325.589 343.95 320.987Z" fill="#263238"/>
<path d="M343.396 315.174C343.597 317.013 343.413 318.874 342.855 320.637C342.297 322.401 341.378 324.029 340.156 325.418C337.852 327.791 335.487 327.046 334.941 323.767C334.738 321.929 334.921 320.068 335.478 318.304C336.034 316.54 336.953 314.912 338.174 313.523C340.509 311.15 342.844 311.887 343.396 315.174Z" fill="#0FA1EF"/>
<path d="M342.022 316.495C342.234 318.996 341.45 321.48 339.841 323.406C338.305 325.027 336.846 324.566 336.531 322.362C336.323 319.86 337.109 317.376 338.72 315.451C340.233 313.83 341.715 314.291 342.022 316.495Z" fill="#263238"/>
<path d="M382.922 302.06C386.144 291.865 383.986 282.093 378.102 280.233C372.218 278.373 364.836 285.13 361.614 295.325C358.391 305.52 360.549 315.293 366.433 317.152C372.317 319.012 379.699 312.255 382.922 302.06Z" fill="#37474F"/>
<path d="M383.998 302.793C387.22 292.598 385.062 282.826 379.178 280.966C373.294 279.106 365.912 285.863 362.69 296.058C359.467 306.253 361.625 316.025 367.509 317.885C373.393 319.745 380.775 312.988 383.998 302.793Z" fill="#455A64"/>
<path d="M379.405 295.139C379.752 297.258 379.595 299.429 378.948 301.477C378.301 303.524 377.182 305.391 375.681 306.926C372.77 309.584 369.729 308.624 368.877 304.776C368.024 300.929 369.691 295.653 372.601 292.988C375.512 290.324 378.553 291.291 379.405 295.139Z" fill="#263238"/>
<path d="M377.884 301.146C379.148 297.146 378.521 293.382 376.483 292.737C374.444 292.093 371.767 294.813 370.503 298.813C369.239 302.812 369.867 306.577 371.905 307.221C373.943 307.865 376.62 305.145 377.884 301.146Z" fill="#0FA1EF"/>
<path d="M377.04 296.989C377.252 299.492 376.465 301.976 374.852 303.901C373.316 305.521 371.857 305.053 371.55 302.856C371.337 300.354 372.124 297.869 373.738 295.945C375.251 294.325 376.733 294.793 377.04 296.989Z" fill="#263238"/>
<path d="M336.669 263.261L331.232 279.534L329.819 283.773L326.932 292.435L325.911 295.492L320.773 292.581L294.732 277.791L305.491 245.545L309.884 248.041L317.064 252.126L322.877 255.429L325.726 257.049L336.669 263.261Z" fill="#37474F"/>
<path d="M359.063 251.143V300.03L357.726 300.798C357.66 300.689 357.626 300.564 357.627 300.437V251.98L321.303 231.185C321.191 231.125 321.098 231.034 321.034 230.923L322.378 230.156L359.055 251.151L359.063 251.143Z" fill="#0FA1EF"/>
<g opacity="0.5">
<path d="M359.063 251.143V300.03L357.726 300.798C357.66 300.689 357.626 300.564 357.627 300.437V251.98L321.303 231.185C321.191 231.125 321.098 231.034 321.034 230.923L322.378 230.156L359.055 251.151L359.063 251.143Z" fill="black"/>
</g>
<path d="M326.932 292.435L325.911 295.492L320.773 292.581L309.884 248.041L317.064 252.126L326.932 292.435Z" fill="#455A64"/>
<path d="M331.233 279.534L329.82 283.773L322.877 255.428L325.726 257.049L331.233 279.534Z" fill="#455A64"/>
<path d="M355.3 283.489L331.233 297.819L342.406 264.344L355.3 256.842V283.489Z" fill="#37474F"/>
<path d="M366.373 277.061L361.582 279.826V253.125L366.373 250.353V277.061Z" fill="#37474F"/>
<path d="M253.464 200.06V248.44C253.423 248.73 253.47 249.025 253.599 249.288C253.727 249.551 253.932 249.769 254.185 249.915L256.036 250.936V249.285L256.297 199.523L253.871 198.294C253.609 198.846 253.47 199.449 253.464 200.06Z" fill="#0FA1EF"/>
<path d="M253.878 198.332L256.305 199.561L314.991 165.158L316.388 164.344L314.461 163.253H314.399C314.218 163.159 314.015 163.117 313.811 163.132C313.608 163.147 313.413 163.218 313.247 163.338L255.207 196.773C254.624 197.155 254.163 197.696 253.878 198.332Z" fill="#0FA1EF"/>
<path opacity="0.2" d="M253.878 198.332L256.305 199.561L314.991 165.158L316.388 164.344L314.461 163.253H314.399C314.218 163.159 314.015 163.117 313.811 163.132C313.608 163.147 313.413 163.218 313.247 163.338L255.207 196.773C254.624 197.155 254.163 197.696 253.878 198.332Z" fill="white"/>
<path d="M255.568 201.12V249.2C255.542 249.457 255.578 249.717 255.674 249.956C255.771 250.196 255.924 250.408 256.121 250.575L256.236 250.637C256.41 250.705 256.599 250.73 256.785 250.708C256.971 250.687 257.149 250.62 257.303 250.514L314.991 217.27C315.519 216.892 315.951 216.396 316.253 215.821C316.554 215.246 316.716 214.609 316.726 213.96V165.879C316.751 165.63 316.718 165.378 316.628 165.143C316.539 164.908 316.396 164.698 316.212 164.528C316.158 164.487 316.098 164.453 316.035 164.428C315.862 164.368 315.678 164.349 315.497 164.373C315.315 164.397 315.142 164.463 314.991 164.566L257.303 197.802C256.735 198.178 256.289 198.712 256.021 199.338C255.739 199.891 255.584 200.5 255.568 201.12Z" fill="#0FA1EF"/>
<path opacity="0.2" d="M255.568 201.12V249.2C255.542 249.457 255.578 249.717 255.674 249.956C255.771 250.196 255.924 250.408 256.121 250.575L256.236 250.637C256.41 250.705 256.599 250.73 256.785 250.708C256.971 250.687 257.149 250.62 257.303 250.514L314.991 217.27C315.519 216.892 315.951 216.396 316.253 215.821C316.554 215.246 316.716 214.609 316.726 213.96V165.879C316.751 165.63 316.718 165.378 316.628 165.143C316.539 164.908 316.396 164.698 316.212 164.528C316.158 164.487 316.098 164.453 316.035 164.428C315.862 164.368 315.678 164.349 315.497 164.373C315.315 164.397 315.142 164.463 314.991 164.566L257.303 197.802C256.735 198.178 256.289 198.712 256.021 199.338C255.739 199.891 255.584 200.5 255.568 201.12Z" fill="#0C81BF"/>
<path d="M259.691 228.923V223.923L277.031 205.151V210.904L265.159 223.224L265.319 222.834V223.544L265.159 223.338L277.031 222.012V227.765L259.691 228.923ZM293.226 188.329L285.098 227.83L280.578 230.428L288.706 190.927L293.226 188.329ZM314.116 197.644L296.776 216.417V210.664L308.648 198.344L308.488 198.734V198.024L308.648 198.23L296.776 199.556V193.803L314.116 192.644V197.644Z" fill="#EFF8FE"/>
<path d="M315.912 164.451C315.997 164.45 316.081 164.468 316.158 164.505C316.2 164.516 316.24 164.537 316.273 164.566C316.419 164.712 316.53 164.888 316.599 165.082C316.668 165.276 316.693 165.483 316.672 165.687V214.067C316.659 214.668 316.508 215.257 316.231 215.789C315.954 216.322 315.559 216.784 315.075 217.139L257.034 250.552C256.872 250.659 256.683 250.72 256.489 250.729C256.404 250.728 256.321 250.71 256.243 250.675L256.151 250.629C255.996 250.487 255.876 250.309 255.803 250.112C255.729 249.914 255.704 249.702 255.729 249.492V201.112C255.744 200.523 255.888 199.943 256.151 199.415C256.405 198.853 256.812 198.374 257.326 198.033L315.367 164.62C315.531 164.518 315.719 164.46 315.912 164.451ZM315.912 164.159C315.668 164.168 315.429 164.239 315.221 164.367L257.18 197.81C256.607 198.182 256.158 198.717 255.89 199.346C255.603 199.91 255.448 200.533 255.437 201.166V249.546C255.411 249.804 255.448 250.064 255.544 250.305C255.641 250.545 255.793 250.759 255.99 250.928L256.105 250.99C256.225 251.046 256.356 251.075 256.489 251.074C256.735 251.066 256.973 250.992 257.18 250.859L315.221 217.423C315.751 217.042 316.184 216.542 316.487 215.963C316.79 215.385 316.953 214.743 316.964 214.09V165.71C316.988 165.459 316.954 165.205 316.863 164.969C316.773 164.733 316.628 164.522 316.442 164.351C316.388 164.31 316.328 164.277 316.265 164.251C316.153 164.205 316.033 164.181 315.912 164.182V164.159Z" fill="#0FA1EF"/>
<path d="M320.551 161.679L333.951 178.689L337.207 180.439L323.43 160.043L320.551 161.679Z" fill="#455A64"/>
<path d="M311.696 166.701V169.366L323.952 162.385L337.207 180.44L338.681 178.957L324.628 159.367L311.696 166.701Z" fill="#263238"/>
<path d="M324.628 159.367L320.166 156.656L307.234 164.121L311.696 166.701L324.628 159.367Z" fill="#37474F"/>
<path d="M307.234 164.121V166.701L311.696 169.366V166.701L307.234 164.121Z" fill="#455A64"/>
<path d="M314.937 310.282C314.745 310.28 314.557 310.227 314.392 310.128L302.366 303.217C301.912 302.954 301.536 302.577 301.274 302.123C301.013 301.668 300.876 301.153 300.876 300.629V291.713C300.874 291.521 300.923 291.332 301.019 291.166C301.115 291 301.254 290.863 301.421 290.769C301.588 290.671 301.777 290.619 301.97 290.619C302.163 290.619 302.353 290.671 302.519 290.769L314.538 297.68C314.992 297.943 315.37 298.32 315.632 298.774C315.895 299.228 316.034 299.743 316.035 300.268V309.153C316.035 309.345 315.985 309.533 315.889 309.699C315.793 309.864 315.656 310.002 315.49 310.098C315.325 310.207 315.134 310.271 314.937 310.282ZM314.722 309.568C314.789 309.605 314.865 309.624 314.942 309.623C315.019 309.622 315.094 309.602 315.161 309.563C315.227 309.524 315.283 309.469 315.322 309.403C315.36 309.336 315.381 309.261 315.382 309.184V300.299C315.385 299.889 315.278 299.485 315.073 299.13C314.868 298.775 314.572 298.482 314.215 298.279L302.189 291.368C302.123 291.329 302.047 291.308 301.97 291.308C301.893 291.308 301.818 291.329 301.752 291.368C301.684 291.407 301.628 291.463 301.589 291.53C301.55 291.597 301.529 291.674 301.529 291.752V300.637C301.529 301.047 301.637 301.45 301.842 301.806C302.047 302.162 302.341 302.458 302.696 302.664L314.722 309.568Z" fill="#455A64"/>
<path d="M301.36 292.296L301.034 292.861L315.532 301.232L315.858 300.667L301.36 292.296Z" fill="#455A64"/>
<path d="M301.362 294.768L301.035 295.334L315.533 303.704L315.86 303.139L301.362 294.768Z" fill="#455A64"/>
<path d="M301.361 297.215L301.035 297.78L315.533 306.15L315.859 305.585L301.361 297.215Z" fill="#455A64"/>
<path d="M301.363 299.68L301.036 300.245L315.534 308.616L315.861 308.05L301.363 299.68Z" fill="#455A64"/>
<path d="M295.969 289.786L290.824 286.814V283.773L295.969 286.745V289.786Z" fill="white"/>
<path d="M327.808 307.686L322.662 304.714V301.681L327.808 304.645V307.686Z" fill="white"/>
<path d="M268.216 149.545V176.162C268.194 176.322 268.221 176.485 268.292 176.63C268.363 176.775 268.475 176.895 268.615 176.976L269.629 177.537V176.63L269.752 149.261L268.416 148.593C268.28 148.892 268.211 149.217 268.216 149.545Z" fill="#0FA1EF"/>
<path d="M268.438 148.593L269.774 149.261L302.028 130.347L302.796 129.901L301.736 129.302C301.635 129.252 301.523 129.229 301.411 129.237C301.299 129.245 301.191 129.284 301.099 129.348L269.183 147.779C268.862 147.973 268.603 148.256 268.438 148.593Z" fill="#0FA1EF"/>
<path opacity="0.2" d="M268.438 148.593L269.774 149.261L302.028 130.347L302.796 129.901L301.736 129.302C301.635 129.252 301.523 129.229 301.411 129.237C301.299 129.245 301.191 129.284 301.099 129.348L269.183 147.779C268.862 147.973 268.603 148.256 268.438 148.593Z" fill="white"/>
<path d="M269.367 150.129V176.569C269.35 176.712 269.368 176.857 269.42 176.991C269.472 177.125 269.557 177.244 269.667 177.337L269.728 177.375C269.825 177.412 269.93 177.425 270.032 177.413C270.135 177.401 270.234 177.364 270.32 177.306L302.043 159.029C302.333 158.819 302.57 158.545 302.735 158.228C302.9 157.911 302.989 157.559 302.995 157.202V130.754C303.014 130.612 302.997 130.469 302.948 130.335C302.898 130.201 302.817 130.081 302.711 129.986C302.684 129.962 302.653 129.944 302.619 129.932C302.524 129.897 302.423 129.885 302.323 129.897C302.223 129.909 302.127 129.945 302.043 130.001L270.32 148.286C270.01 148.487 269.765 148.772 269.613 149.107C269.454 149.424 269.37 149.774 269.367 150.129Z" fill="#0FA1EF"/>
<path opacity="0.2" d="M269.367 150.129V176.569C269.35 176.712 269.368 176.857 269.42 176.991C269.472 177.125 269.557 177.244 269.667 177.337L269.728 177.375C269.825 177.412 269.93 177.425 270.032 177.413C270.135 177.401 270.234 177.364 270.32 177.306L302.043 159.029C302.333 158.819 302.57 158.545 302.735 158.228C302.9 157.911 302.989 157.559 302.995 157.202V130.754C303.014 130.612 302.997 130.469 302.948 130.335C302.898 130.201 302.817 130.081 302.711 129.986C302.684 129.962 302.653 129.944 302.619 129.932C302.524 129.897 302.423 129.885 302.323 129.897C302.223 129.909 302.127 129.945 302.043 130.001L270.32 148.286C270.01 148.487 269.765 148.772 269.613 149.107C269.454 149.424 269.37 149.774 269.367 150.129Z" fill="black"/>
<path d="M281.88 154.984L279.992 156.069C279.958 155.808 279.887 155.598 279.781 155.44C279.675 155.279 279.538 155.169 279.372 155.109C279.205 155.049 279.012 155.04 278.794 155.083C278.578 155.124 278.344 155.217 278.091 155.362C277.634 155.625 277.236 155.984 276.897 156.441C276.558 156.895 276.295 157.423 276.109 158.028C275.922 158.629 275.828 159.283 275.828 159.989C275.828 160.715 275.922 161.271 276.109 161.657C276.298 162.042 276.563 162.263 276.902 162.32C277.241 162.377 277.633 162.278 278.078 162.022C278.328 161.878 278.56 161.707 278.772 161.508C278.988 161.308 279.179 161.087 279.346 160.846C279.512 160.601 279.65 160.341 279.759 160.066C279.872 159.79 279.949 159.503 279.992 159.206L281.88 158.131C281.831 158.627 281.709 159.148 281.514 159.694C281.321 160.236 281.061 160.771 280.734 161.301C280.409 161.826 280.021 162.317 279.57 162.775C279.122 163.228 278.614 163.618 278.048 163.943C277.261 164.396 276.557 164.595 275.936 164.54C275.318 164.485 274.83 164.17 274.471 163.598C274.114 163.024 273.936 162.183 273.936 161.076C273.936 159.966 274.117 158.917 274.479 157.93C274.841 156.943 275.333 156.068 275.953 155.303C276.574 154.536 277.272 153.929 278.048 153.483C278.56 153.189 279.034 152.999 279.471 152.914C279.91 152.827 280.3 152.845 280.639 152.968C280.978 153.088 281.254 153.316 281.466 153.651C281.682 153.985 281.82 154.429 281.88 154.984ZM285.805 157.795V150.755L287.348 149.868V156.908L285.805 157.795ZM283.525 156.475V154.696L289.628 151.188V152.968L283.525 156.475ZM294.055 153.053V146.014L295.598 145.127V152.167L294.055 153.053ZM291.775 151.734V149.954L297.878 146.446V148.226L291.775 151.734Z" fill="#EFF8FE"/>
<path d="M302.55 129.986C302.595 129.975 302.643 129.975 302.688 129.986H302.75C302.829 130.067 302.89 130.165 302.927 130.273C302.964 130.38 302.977 130.495 302.965 130.608V157.202C302.959 157.533 302.877 157.858 302.725 158.152C302.573 158.447 302.356 158.702 302.089 158.899L270.174 177.329C270.084 177.386 269.98 177.417 269.874 177.421C269.829 177.43 269.782 177.43 269.736 177.421H269.69C269.605 177.341 269.539 177.243 269.498 177.134C269.457 177.025 269.441 176.908 269.452 176.792V150.144C269.459 149.818 269.54 149.497 269.69 149.207C269.823 148.892 270.048 148.625 270.335 148.439L302.25 130.047C302.34 129.991 302.444 129.959 302.55 129.955M302.55 129.794C302.414 129.799 302.282 129.839 302.166 129.909L270.251 148.34C269.941 148.544 269.696 148.831 269.544 149.169C269.386 149.481 269.299 149.825 269.291 150.175V176.769C269.275 176.912 269.294 177.057 269.348 177.191C269.401 177.325 269.487 177.444 269.598 177.537H269.659C269.727 177.567 269.8 177.583 269.874 177.583C270.008 177.578 270.137 177.538 270.251 177.467L302.166 159.037C302.458 158.827 302.697 158.552 302.864 158.233C303.031 157.915 303.12 157.561 303.126 157.202V130.646C303.145 130.505 303.129 130.361 303.079 130.227C303.03 130.093 302.948 129.974 302.842 129.878C302.811 129.854 302.778 129.833 302.742 129.817C302.678 129.805 302.613 129.805 302.55 129.817V129.794Z" fill="#0FA1EF"/>
<path d="M268.215 108.246V134.763C268.215 135.185 268.369 135.477 268.615 135.531L269.628 136.091V135.185L269.774 107.923L268.446 107.255C268.294 107.563 268.215 107.902 268.215 108.246Z" fill="#0FA1EF"/>
<path d="M268.438 107.293L269.767 107.962L301.92 89.1164L302.688 88.671L301.628 88.072C301.529 88.0178 301.416 87.9934 301.303 88.0015C301.19 88.0097 301.082 88.0502 300.991 88.1181L269.198 106.433C268.866 106.639 268.602 106.938 268.438 107.293Z" fill="#0FA1EF"/>
<path opacity="0.2" d="M268.438 107.293L269.767 107.962L301.92 89.1164L302.688 88.671L301.628 88.072C301.529 88.0178 301.416 87.9934 301.303 88.0015C301.19 88.0097 301.082 88.0502 300.991 88.1181L269.198 106.433C268.866 106.639 268.602 106.938 268.438 107.293Z" fill="white"/>
<path d="M269.36 108.822V135.162C269.344 135.305 269.364 135.451 269.417 135.585C269.471 135.719 269.557 135.837 269.667 135.93H269.729C269.824 135.968 269.927 135.982 270.029 135.97C270.131 135.958 270.229 135.92 270.312 135.861L301.921 117.699C302.208 117.489 302.443 117.216 302.607 116.9C302.77 116.584 302.859 116.235 302.865 115.879V89.5159C302.883 89.3744 302.867 89.2307 302.818 89.097C302.768 88.9633 302.687 88.8435 302.581 88.7479L302.489 88.6942C302.395 88.6605 302.294 88.6498 302.195 88.6632C302.097 88.6766 302.002 88.7135 301.921 88.771L270.312 107.009C270.005 107.212 269.76 107.497 269.606 107.831C269.451 108.139 269.367 108.477 269.36 108.822Z" fill="#0FA1EF"/>
<path opacity="0.2" d="M269.36 108.822V135.162C269.344 135.305 269.364 135.451 269.417 135.585C269.471 135.719 269.557 135.837 269.667 135.93H269.729C269.824 135.968 269.927 135.982 270.029 135.97C270.131 135.958 270.229 135.92 270.312 135.861L301.921 117.699C302.208 117.489 302.443 117.216 302.607 116.9C302.77 116.584 302.859 116.235 302.865 115.879V89.5159C302.883 89.3744 302.867 89.2307 302.818 89.097C302.768 88.9633 302.687 88.8435 302.581 88.7479L302.489 88.6942C302.395 88.6605 302.294 88.6498 302.195 88.6632C302.097 88.6766 302.002 88.7135 301.921 88.771L270.312 107.009C270.005 107.212 269.76 107.497 269.606 107.831C269.451 108.139 269.367 108.477 269.36 108.822Z" fill="black"/>
<path d="M276.294 117.578V115.917C277.12 115.442 277.694 114.922 278.014 114.358C278.334 113.794 278.494 113.088 278.494 112.239V110.413C278.494 109.394 278.616 108.508 278.859 107.756C279.108 106.997 279.452 106.333 279.891 105.767C280.335 105.197 280.861 104.686 281.468 104.233C282.074 103.779 282.738 103.345 283.46 102.931V105.559C282.896 105.883 282.466 106.215 282.17 106.556C281.878 106.889 281.68 107.262 281.575 107.675C281.47 108.083 281.417 108.554 281.417 109.088V111.501C281.417 111.92 281.351 112.358 281.217 112.815C281.083 113.267 280.835 113.743 280.472 114.243C280.109 114.738 279.59 115.265 278.917 115.823C278.243 116.375 277.369 116.96 276.294 117.578ZM283.46 123.849C282.738 124.263 282.074 124.593 281.468 124.837C280.861 125.08 280.335 125.173 279.891 125.114C279.452 125.053 279.108 124.785 278.859 124.311C278.616 123.839 278.494 123.094 278.494 122.074V120.24C278.494 119.391 278.334 118.869 278.014 118.672C277.694 118.476 277.12 118.616 276.294 119.091V117.429C277.369 116.812 278.243 116.395 278.917 116.178C279.59 115.956 280.109 115.887 280.472 115.971C280.835 116.048 281.083 116.239 281.217 116.542C281.351 116.84 281.417 117.201 281.417 117.625V120.039C281.417 120.568 281.47 120.976 281.575 121.262C281.68 121.554 281.878 121.699 282.17 121.697C282.466 121.698 282.896 121.536 283.46 121.212V123.849ZM276.294 119.091V115.917L278.867 114.438V117.612L276.294 119.091ZM296.229 105.973V107.634C295.407 108.106 294.834 108.626 294.509 109.192C294.189 109.757 294.029 110.463 294.029 111.311V113.146C294.029 114.165 293.905 115.052 293.656 115.807C293.413 116.564 293.069 117.227 292.625 117.796C292.185 118.363 291.662 118.873 291.055 119.326C290.453 119.777 289.789 120.211 289.063 120.628V117.992C289.627 117.668 290.054 117.337 290.346 116.998C290.642 116.663 290.843 116.289 290.948 115.876C291.053 115.468 291.105 115 291.105 114.471V112.058C291.105 111.633 291.172 111.196 291.306 110.744C291.44 110.287 291.688 109.811 292.051 109.316C292.414 108.815 292.933 108.288 293.606 107.736C294.28 107.178 295.154 106.59 296.229 105.973ZM289.063 99.7103C289.789 99.293 290.453 98.9637 291.055 98.7225C291.662 98.4785 292.185 98.3872 292.625 98.4487C293.069 98.5074 293.413 98.7753 293.656 99.2524C293.905 99.7212 294.029 100.465 294.029 101.485V103.311C294.029 104.16 294.189 104.682 294.509 104.878C294.834 105.072 295.407 104.932 296.229 104.46V106.121C295.154 106.739 294.28 107.159 293.606 107.381C292.933 107.597 292.414 107.666 292.051 107.588C291.688 107.505 291.44 107.314 291.306 107.017C291.172 106.713 291.105 106.352 291.105 105.934V103.52C291.105 102.986 291.053 102.575 290.948 102.288C290.843 101.996 290.642 101.853 290.346 101.858C290.054 101.854 289.627 102.014 289.063 102.338V99.7103ZM296.229 104.46V107.634L293.656 109.112V105.939L296.229 104.46Z" fill="#EFF8FE"/>
<path d="M302.42 88.7401C302.465 88.7328 302.512 88.7328 302.558 88.7401H302.619C302.698 88.8205 302.758 88.9172 302.795 89.0233C302.832 89.1295 302.846 89.2425 302.834 89.3544V115.848C302.828 116.178 302.746 116.502 302.594 116.795C302.442 117.089 302.225 117.343 301.959 117.538L270.166 135.861C270.076 135.917 269.973 135.949 269.867 135.953C269.824 135.966 269.779 135.966 269.736 135.953H269.682C269.6 135.873 269.536 135.776 269.497 135.668C269.457 135.56 269.441 135.445 269.452 135.331V108.837C269.457 108.514 269.536 108.196 269.682 107.908C269.82 107.596 270.044 107.329 270.327 107.14L302.12 88.8246C302.21 88.7681 302.313 88.7364 302.42 88.7324M302.42 88.5711C302.286 88.5723 302.155 88.6123 302.043 88.6863L270.243 107.009C269.934 107.213 269.689 107.501 269.536 107.839C269.38 108.149 269.296 108.49 269.291 108.837V135.362C269.273 135.505 269.291 135.651 269.345 135.785C269.399 135.92 269.486 136.038 269.598 136.129H269.659C269.724 136.161 269.795 136.177 269.867 136.176C270 136.17 270.13 136.131 270.243 136.06L302.043 117.737C302.333 117.528 302.57 117.253 302.735 116.936C302.9 116.619 302.99 116.267 302.995 115.91V89.4159C303.013 89.2745 302.996 89.1309 302.947 88.9973C302.897 88.8637 302.817 88.7439 302.711 88.6479C302.683 88.6227 302.648 88.6043 302.611 88.5942C302.552 88.5653 302.486 88.5521 302.42 88.5558V88.5711Z" fill="#0FA1EF"/>
<path d="M176.949 132.279C176.997 131.657 177.262 131.073 177.698 130.627L180.092 128.209C180.272 128.03 180.405 127.809 180.478 127.565C180.551 127.322 180.562 127.064 180.51 126.815L179.896 123.894C179.876 123.808 179.839 123.728 179.786 123.658C179.733 123.588 179.666 123.53 179.589 123.488L176.2 121.831L176.12 121.788C176.019 121.747 175.909 121.735 175.801 121.751C175.693 121.767 175.592 121.812 175.507 121.88L174.537 122.715L175.543 119.646C175.601 119.471 175.593 119.282 175.522 119.113C175.451 118.944 175.321 118.806 175.157 118.725L171.793 117.049C171.709 117.004 171.617 116.975 171.523 116.963L169.337 116.681C169.188 116.663 169.036 116.677 168.893 116.724C168.75 116.771 168.619 116.848 168.509 116.951C168.403 117.044 168.319 117.159 168.263 117.288L166.649 120.972C166.494 121.325 166.235 121.623 165.906 121.825L165.796 121.524C165.738 121.384 165.631 121.271 165.495 121.205L162.162 119.578L162.057 119.529C161.954 119.487 161.84 119.478 161.731 119.5C161.621 119.523 161.521 119.578 161.443 119.658L158.589 122.543C158.39 122.746 158.241 122.991 158.153 123.261C158.076 123.516 158.057 123.784 158.098 124.047L158.509 126.674C158.557 127.008 158.478 127.347 158.288 127.626L156.661 130.155C156.571 130.302 156.452 130.429 156.312 130.529C156.082 130.692 155.807 130.779 155.526 130.781H153.684C153.572 130.78 153.461 130.795 153.353 130.824C153.156 130.878 152.975 130.977 152.824 131.115C152.674 131.253 152.558 131.424 152.487 131.616L150.854 136.085C150.797 136.238 150.796 136.408 150.852 136.562C150.909 136.716 151.018 136.845 151.161 136.926L153.58 138.11C153.602 138.218 153.602 138.328 153.58 138.436L153.31 140.94C153.294 141.099 153.252 141.255 153.187 141.401C153.106 141.611 152.982 141.803 152.825 141.965L150.37 144.519C150.199 144.692 150.071 144.902 149.995 145.133C149.927 145.39 149.927 145.661 149.995 145.918L150.676 149.11C150.693 149.18 150.725 149.246 150.771 149.301C150.817 149.356 150.875 149.4 150.94 149.43L154.317 151.081C154.397 151.126 154.49 151.146 154.582 151.137C154.674 151.128 154.761 151.092 154.832 151.032L155.931 150.129L155.01 153.309C154.998 153.38 154.998 153.453 155.01 153.524C155.019 153.655 155.062 153.782 155.137 153.89C155.212 153.998 155.314 154.084 155.434 154.138L158.718 155.734C158.814 155.812 158.932 155.859 159.055 155.869L160.952 156.108C161.204 156.139 161.459 156.088 161.68 155.963C161.901 155.838 162.076 155.646 162.18 155.415L163.794 151.805C163.96 151.444 164.235 151.143 164.58 150.946L164.666 151.185C164.694 151.265 164.739 151.337 164.799 151.397C164.858 151.456 164.93 151.501 165.01 151.529L168.343 153.162C168.444 153.207 168.556 153.221 168.664 153.204C168.773 153.186 168.875 153.138 168.957 153.064L171.86 150.406C172.034 150.247 172.165 150.048 172.244 149.826C172.324 149.605 172.348 149.368 172.315 149.135L171.903 146.232C171.835 145.741 171.947 145.242 172.216 144.826L173.542 142.769C173.712 142.508 173.944 142.293 174.217 142.145C174.49 141.996 174.796 141.917 175.108 141.916H176.876C177.096 141.935 177.317 141.883 177.507 141.768C177.697 141.654 177.845 141.482 177.931 141.278L179.54 136.981C179.609 136.788 179.61 136.577 179.54 136.384C179.471 136.191 179.336 136.029 179.159 135.925H179.092L176.869 134.838C176.854 134.745 176.854 134.65 176.869 134.556L176.949 132.279ZM166.268 130.198C166.972 129.672 167.787 129.315 168.65 129.154C169.006 129.882 169.215 130.672 169.264 131.481C169.626 135.373 167.336 140.357 164.144 142.622C163.449 143.14 162.652 143.506 161.806 143.696C161.418 142.964 161.188 142.159 161.13 141.333C160.811 137.447 163.101 132.457 166.268 130.198Z" fill="#0FA1EF"/>
<path opacity="0.3" d="M176.949 132.279C176.997 131.657 177.262 131.073 177.698 130.627L180.092 128.209C180.272 128.03 180.405 127.809 180.478 127.565C180.551 127.322 180.562 127.064 180.51 126.815L179.896 123.894C179.876 123.808 179.839 123.728 179.786 123.658C179.733 123.588 179.666 123.53 179.589 123.488L176.2 121.831L176.12 121.788C176.019 121.747 175.909 121.735 175.801 121.751C175.693 121.767 175.592 121.812 175.507 121.88L174.537 122.715L175.543 119.646C175.601 119.471 175.593 119.282 175.522 119.113C175.451 118.944 175.321 118.806 175.157 118.725L171.793 117.049C171.709 117.004 171.617 116.975 171.523 116.963L169.337 116.681C169.188 116.663 169.036 116.677 168.893 116.724C168.75 116.771 168.619 116.848 168.509 116.951C168.403 117.044 168.319 117.159 168.263 117.288L166.649 120.972C166.494 121.325 166.235 121.623 165.906 121.825L165.796 121.524C165.738 121.384 165.631 121.271 165.495 121.205L162.162 119.578L162.057 119.529C161.954 119.487 161.84 119.478 161.731 119.5C161.621 119.523 161.521 119.578 161.443 119.658L158.589 122.543C158.39 122.746 158.241 122.991 158.153 123.261C158.076 123.516 158.057 123.784 158.098 124.047L158.509 126.674C158.557 127.008 158.478 127.347 158.288 127.626L156.661 130.155C156.571 130.302 156.452 130.429 156.312 130.529C156.082 130.692 155.807 130.779 155.526 130.781H153.684C153.572 130.78 153.461 130.795 153.353 130.824C153.156 130.878 152.975 130.977 152.824 131.115C152.674 131.253 152.558 131.424 152.487 131.616L150.854 136.085C150.797 136.238 150.796 136.408 150.852 136.562C150.909 136.716 151.018 136.845 151.161 136.926L153.58 138.11C153.602 138.218 153.602 138.328 153.58 138.436L153.31 140.94C153.294 141.099 153.252 141.255 153.187 141.401C153.106 141.611 152.982 141.803 152.825 141.965L150.37 144.519C150.199 144.692 150.071 144.902 149.995 145.133C149.927 145.39 149.927 145.661 149.995 145.918L150.676 149.11C150.693 149.18 150.725 149.246 150.771 149.301C150.817 149.356 150.875 149.4 150.94 149.43L154.317 151.081C154.397 151.126 154.49 151.146 154.582 151.137C154.674 151.128 154.761 151.092 154.832 151.032L155.931 150.129L155.01 153.309C154.998 153.38 154.998 153.453 155.01 153.524C155.019 153.655 155.062 153.782 155.137 153.89C155.212 153.998 155.314 154.084 155.434 154.138L158.718 155.734C158.814 155.812 158.932 155.859 159.055 155.869L160.952 156.108C161.204 156.139 161.459 156.088 161.68 155.963C161.901 155.838 162.076 155.646 162.18 155.415L163.794 151.805C163.96 151.444 164.235 151.143 164.58 150.946L164.666 151.185C164.694 151.265 164.739 151.337 164.799 151.397C164.858 151.456 164.93 151.501 165.01 151.529L168.343 153.162C168.444 153.207 168.556 153.221 168.664 153.204C168.773 153.186 168.875 153.138 168.957 153.064L171.86 150.406C172.034 150.247 172.165 150.048 172.244 149.826C172.324 149.605 172.348 149.368 172.315 149.135L171.903 146.232C171.835 145.741 171.947 145.242 172.216 144.826L173.542 142.769C173.712 142.508 173.944 142.293 174.217 142.145C174.49 141.996 174.796 141.917 175.108 141.916H176.876C177.096 141.935 177.317 141.883 177.507 141.768C177.697 141.654 177.845 141.482 177.931 141.278L179.54 136.981C179.609 136.788 179.61 136.577 179.54 136.384C179.471 136.191 179.336 136.029 179.159 135.925H179.092L176.869 134.838C176.854 134.745 176.854 134.65 176.869 134.556L176.949 132.279ZM166.268 130.198C166.972 129.672 167.787 129.315 168.65 129.154C169.006 129.882 169.215 130.672 169.264 131.481C169.626 135.373 167.336 140.357 164.144 142.622C163.449 143.14 162.652 143.506 161.806 143.696C161.418 142.964 161.188 142.159 161.13 141.333C160.811 137.447 163.101 132.457 166.268 130.198Z" fill="black"/>
<path opacity="0.2" d="M157.06 143.15L153.377 146.882L149.983 145.133C150.059 144.902 150.187 144.692 150.357 144.519L152.813 141.965C152.97 141.803 153.093 141.611 153.175 141.4L157.06 143.15Z" fill="black"/>
<path opacity="0.2" d="M159.736 132.168L159.663 132.586H156.477L153.377 130.799C153.485 130.77 153.596 130.755 153.708 130.756H155.55C155.831 130.755 156.106 130.667 156.336 130.505L159.736 132.168Z" fill="black"/>
<path opacity="0.2" d="M165.482 121.205L164.046 122.617L161.504 125.121L158.14 123.28C158.228 123.01 158.378 122.764 158.576 122.561L161.431 119.676C161.509 119.597 161.609 119.542 161.718 119.519C161.827 119.496 161.941 119.506 162.044 119.547L162.149 119.597L165.482 121.205Z" fill="black"/>
<path opacity="0.2" d="M175.169 118.706H171.823L168.496 116.951C168.606 116.848 168.737 116.771 168.88 116.724C169.024 116.677 169.175 116.663 169.325 116.681L171.504 116.957C171.599 116.969 171.69 116.998 171.774 117.043L175.169 118.706Z" fill="black"/>
<path d="M177.698 130.627L180.092 128.209C180.272 128.03 180.405 127.809 180.478 127.565C180.551 127.322 180.562 127.064 180.509 126.815L179.896 123.893C179.871 123.795 179.823 123.704 179.755 123.629C179.687 123.554 179.601 123.497 179.506 123.463C179.41 123.429 179.308 123.419 179.208 123.434C179.108 123.449 179.013 123.489 178.932 123.55L176.476 125.594C176.348 125.701 176.183 125.756 176.016 125.747C175.848 125.738 175.69 125.665 175.574 125.545L174.862 124.802C174.64 124.571 174.485 124.284 174.414 123.971C174.342 123.659 174.357 123.333 174.457 123.028L175.543 119.646C175.579 119.539 175.59 119.427 175.577 119.316C175.565 119.205 175.528 119.098 175.469 119.003C175.411 118.907 175.332 118.826 175.239 118.764C175.146 118.702 175.04 118.662 174.929 118.645L172.756 118.375C172.535 118.346 172.31 118.391 172.116 118.502C171.922 118.612 171.77 118.783 171.682 118.989L170.068 122.672C169.871 123.119 169.511 123.475 169.061 123.666L167.612 124.28C167.528 124.316 167.436 124.334 167.344 124.334C167.252 124.334 167.161 124.315 167.076 124.279C166.992 124.243 166.915 124.19 166.851 124.124C166.787 124.058 166.737 123.979 166.704 123.893L165.802 121.555C165.768 121.464 165.712 121.384 165.638 121.321C165.565 121.259 165.477 121.215 165.383 121.196C165.289 121.176 165.191 121.181 165.099 121.209C165.007 121.238 164.923 121.289 164.856 121.358L161.971 124.207C161.779 124.402 161.635 124.64 161.551 124.901C161.467 125.162 161.445 125.439 161.486 125.71L161.897 128.338C161.946 128.663 161.874 128.995 161.695 129.271L160.074 131.806C159.95 131.995 159.781 132.151 159.581 132.258C159.382 132.365 159.159 132.421 158.933 132.42H157.091C156.824 132.414 156.562 132.492 156.342 132.643C156.122 132.794 155.954 133.01 155.863 133.261L154.224 137.723C154.193 137.812 154.18 137.907 154.186 138.001C154.192 138.095 154.217 138.187 154.259 138.272C154.301 138.356 154.36 138.431 154.433 138.492C154.505 138.552 154.588 138.598 154.679 138.626L156.373 139.135C156.569 139.197 156.738 139.325 156.85 139.497C156.962 139.67 157.01 139.876 156.987 140.081L156.717 142.585C156.674 142.971 156.503 143.332 156.232 143.61L153.776 146.17C153.597 146.354 153.467 146.579 153.396 146.825C153.325 147.071 153.317 147.331 153.371 147.582L154.077 150.762C154.094 150.839 154.13 150.91 154.182 150.969C154.235 151.029 154.301 151.073 154.376 151.099C154.451 151.125 154.531 151.131 154.608 151.117C154.686 151.103 154.759 151.07 154.82 151.019L157.275 149.012C157.371 148.932 157.482 148.872 157.602 148.835C157.721 148.798 157.847 148.785 157.971 148.797C158.096 148.809 158.216 148.846 158.327 148.905C158.437 148.964 158.534 149.044 158.613 149.141L159.227 149.896C159.376 150.08 159.479 150.297 159.526 150.529C159.573 150.761 159.563 151.001 159.497 151.228L158.417 154.967C158.387 155.068 158.379 155.174 158.394 155.279C158.41 155.384 158.449 155.483 158.507 155.571C158.566 155.659 158.643 155.733 158.734 155.788C158.824 155.842 158.926 155.876 159.031 155.887L160.928 156.127C161.179 156.157 161.434 156.106 161.655 155.981C161.876 155.856 162.051 155.664 162.155 155.433L163.77 151.824C163.953 151.413 164.278 151.082 164.684 150.891L166.096 150.215C166.209 150.159 166.332 150.127 166.457 150.122C166.583 150.117 166.709 150.139 166.825 150.187C166.941 150.234 167.046 150.307 167.132 150.398C167.218 150.49 167.284 150.599 167.324 150.719L168.079 152.873C168.11 152.963 168.163 153.044 168.233 153.108C168.302 153.172 168.387 153.218 168.479 153.241C168.571 153.264 168.668 153.264 168.76 153.24C168.851 153.217 168.936 153.171 169.006 153.107L171.909 150.449C172.082 150.29 172.214 150.091 172.293 149.869C172.373 149.648 172.397 149.411 172.364 149.178L171.952 146.274C171.884 145.783 171.996 145.284 172.265 144.869L173.591 142.812C173.761 142.551 173.993 142.336 174.266 142.187C174.539 142.038 174.845 141.96 175.157 141.959H176.924C177.142 141.964 177.356 141.901 177.537 141.779C177.717 141.657 177.855 141.482 177.931 141.278L179.539 136.981C179.581 136.865 179.598 136.742 179.589 136.619C179.58 136.496 179.545 136.377 179.488 136.268C179.43 136.159 179.35 136.064 179.253 135.988C179.156 135.912 179.045 135.857 178.926 135.827L177.465 135.434C177.265 135.38 177.091 135.259 176.971 135.091C176.851 134.923 176.794 134.719 176.808 134.513L176.961 132.309C176.999 131.679 177.26 131.082 177.698 130.627ZM167.6 144.292C164.414 146.551 161.535 145.225 161.173 141.333C160.811 137.441 163.101 132.457 166.286 130.198C169.472 127.939 172.357 129.265 172.72 133.156C173.082 137.048 170.786 142.033 167.6 144.292Z" fill="#0FA1EF"/>
<path d="M109.794 183.952C109.868 182.874 110.327 181.859 111.089 181.092L115.239 176.905C115.547 176.591 115.774 176.205 115.899 175.782C116.024 175.36 116.044 174.913 115.957 174.481L114.907 169.423C114.876 169.274 114.812 169.133 114.72 169.012C114.627 168.891 114.509 168.792 114.373 168.723L108.492 165.856L108.351 165.783C108.18 165.712 107.993 165.689 107.81 165.717C107.627 165.746 107.456 165.823 107.314 165.942L105.601 167.354L107.351 162.038C107.45 161.735 107.436 161.407 107.312 161.114C107.188 160.82 106.962 160.582 106.675 160.442L100.807 157.569C100.663 157.487 100.505 157.435 100.341 157.416L96.5654 156.937C96.3068 156.903 96.0441 156.927 95.7958 157.007C95.5475 157.086 95.3198 157.22 95.129 157.397C94.9436 157.568 94.7989 157.777 94.7054 158.011L91.9062 164.389C91.6417 165.003 91.1935 165.52 90.6233 165.868L90.4269 165.347C90.3299 165.104 90.143 164.908 89.9051 164.8L84.1349 161.977L83.9508 161.891C83.7707 161.819 83.5734 161.801 83.3835 161.841C83.1935 161.88 83.0194 161.974 82.8827 162.112L77.935 167.115C77.5931 167.46 77.3367 167.88 77.1861 168.342C77.0552 168.782 77.0216 169.245 77.0879 169.699L77.8 174.254C77.886 174.816 77.7637 175.39 77.4562 175.868L74.6387 180.257C74.4806 180.512 74.2716 180.731 74.0248 180.902C73.6299 181.186 73.155 181.339 72.6682 181.337H69.4762C69.283 181.336 69.0906 181.363 68.9053 181.417C68.5629 181.507 68.2473 181.679 67.9855 181.917C67.7236 182.156 67.5232 182.454 67.4014 182.786L64.5654 190.527C64.4741 190.794 64.478 191.085 64.5765 191.35C64.6749 191.615 64.8618 191.838 65.1056 191.982L69.292 194.032C69.3435 194.215 69.3581 194.407 69.335 194.597L68.8685 198.937C68.8337 199.213 68.7614 199.484 68.6536 199.741C68.5138 200.087 68.3096 200.403 68.052 200.674L63.7551 205.106C63.4475 205.427 63.2234 205.819 63.1024 206.247C62.9815 206.675 62.9674 207.126 63.0614 207.561L64.2891 213.086C64.3175 213.209 64.3745 213.324 64.4556 213.421C64.5367 213.518 64.6395 213.595 64.7557 213.644L70.6057 216.505C70.746 216.582 70.9063 216.616 71.066 216.602C71.2257 216.588 71.3775 216.526 71.5019 216.425L73.3987 214.86L71.8088 220.384C71.7685 220.505 71.7518 220.632 71.7597 220.759C71.7657 220.993 71.8366 221.221 71.9645 221.417C72.0924 221.613 72.2723 221.77 72.484 221.87L78.1744 224.632C78.3534 224.767 78.5657 224.849 78.7883 224.872L82.0785 225.283C82.521 225.336 82.9689 225.246 83.3558 225.024C83.7427 224.803 84.0482 224.464 84.227 224.055L87.0261 217.806C87.312 217.18 87.7891 216.66 88.3889 216.321L88.5301 216.732C88.5789 216.874 88.6596 217.004 88.766 217.11C88.8724 217.216 89.0016 217.297 89.1439 217.346L94.9264 220.182C95.1034 220.266 95.3014 220.295 95.495 220.265C95.6886 220.236 95.869 220.149 96.0129 220.016L101.046 215.412C101.336 215.137 101.556 214.797 101.69 214.421C101.823 214.044 101.866 213.641 101.814 213.245L101.096 208.212C100.974 207.355 101.166 206.483 101.636 205.756L103.938 202.196C104.23 201.744 104.631 201.372 105.104 201.115C105.577 200.858 106.106 200.723 106.645 200.723H109.714C110.092 200.719 110.459 200.6 110.767 200.38C111.074 200.16 111.307 199.851 111.433 199.495L114.226 192.08C114.349 191.744 114.351 191.375 114.23 191.038C114.108 190.702 113.872 190.418 113.563 190.238H113.526L113.416 190.183L109.561 188.305C109.516 188.143 109.5 187.975 109.511 187.807L109.794 183.952ZM91.3169 180.349C92.533 179.432 93.9413 178.802 95.4359 178.508C96.0712 179.769 96.4489 181.144 96.5469 182.553C97.1608 189.305 93.2015 197.899 87.6768 201.846C86.472 202.74 85.0911 203.368 83.6254 203.688C82.9543 202.421 82.5549 201.029 82.453 199.6C81.8268 192.902 85.7984 184.266 91.3231 180.349H91.3169Z" fill="#0FA1EF"/>
<path opacity="0.3" d="M109.794 183.952C109.868 182.874 110.327 181.859 111.089 181.092L115.239 176.905C115.547 176.591 115.774 176.205 115.899 175.782C116.024 175.36 116.044 174.913 115.957 174.481L114.907 169.423C114.876 169.274 114.812 169.133 114.72 169.012C114.627 168.891 114.509 168.792 114.373 168.723L108.492 165.856L108.351 165.783C108.18 165.712 107.993 165.689 107.81 165.717C107.627 165.746 107.456 165.823 107.314 165.942L105.601 167.354L107.351 162.038C107.45 161.735 107.436 161.407 107.312 161.114C107.188 160.82 106.962 160.582 106.675 160.442L100.807 157.569C100.663 157.487 100.505 157.435 100.341 157.416L96.5654 156.937C96.3068 156.903 96.0441 156.927 95.7958 157.007C95.5475 157.086 95.3198 157.22 95.129 157.397C94.9436 157.568 94.7989 157.777 94.7054 158.011L91.9062 164.389C91.6417 165.003 91.1935 165.52 90.6233 165.868L90.4269 165.347C90.3299 165.104 90.143 164.908 89.9051 164.8L84.1349 161.977L83.9508 161.891C83.7707 161.819 83.5734 161.801 83.3835 161.841C83.1935 161.88 83.0194 161.974 82.8827 162.112L77.935 167.115C77.5931 167.46 77.3367 167.88 77.1861 168.342C77.0552 168.782 77.0216 169.245 77.0879 169.699L77.8 174.254C77.886 174.816 77.7637 175.39 77.4562 175.868L74.6387 180.257C74.4806 180.512 74.2716 180.731 74.0248 180.902C73.6299 181.186 73.155 181.339 72.6682 181.337H69.4762C69.283 181.336 69.0906 181.363 68.9053 181.417C68.5629 181.507 68.2473 181.679 67.9855 181.917C67.7236 182.156 67.5232 182.454 67.4014 182.786L64.5654 190.527C64.4741 190.794 64.478 191.085 64.5765 191.35C64.6749 191.615 64.8618 191.838 65.1056 191.982L69.292 194.032C69.3435 194.215 69.3581 194.407 69.335 194.597L68.8685 198.937C68.8337 199.213 68.7614 199.484 68.6536 199.741C68.5138 200.087 68.3096 200.403 68.052 200.674L63.7551 205.106C63.4475 205.427 63.2234 205.819 63.1024 206.247C62.9815 206.675 62.9674 207.126 63.0614 207.561L64.2891 213.086C64.3175 213.209 64.3745 213.324 64.4556 213.421C64.5367 213.518 64.6395 213.595 64.7557 213.644L70.6057 216.505C70.746 216.582 70.9063 216.616 71.066 216.602C71.2257 216.588 71.3775 216.526 71.5019 216.425L73.3987 214.86L71.8088 220.384C71.7685 220.505 71.7518 220.632 71.7597 220.759C71.7657 220.993 71.8366 221.221 71.9645 221.417C72.0924 221.613 72.2723 221.77 72.484 221.87L78.1744 224.632C78.3534 224.767 78.5657 224.849 78.7883 224.872L82.0785 225.283C82.521 225.336 82.9689 225.246 83.3558 225.024C83.7427 224.803 84.0482 224.464 84.227 224.055L87.0261 217.806C87.312 217.18 87.7891 216.66 88.3889 216.321L88.5301 216.732C88.5789 216.874 88.6596 217.004 88.766 217.11C88.8724 217.216 89.0016 217.297 89.1439 217.346L94.9264 220.182C95.1034 220.266 95.3014 220.295 95.495 220.265C95.6886 220.236 95.869 220.149 96.0129 220.016L101.046 215.412C101.336 215.137 101.556 214.797 101.69 214.421C101.823 214.044 101.866 213.641 101.814 213.245L101.096 208.212C100.974 207.355 101.166 206.483 101.636 205.756L103.938 202.196C104.23 201.744 104.631 201.372 105.104 201.115C105.577 200.858 106.106 200.723 106.645 200.723H109.714C110.092 200.719 110.459 200.6 110.767 200.38C111.074 200.16 111.307 199.851 111.433 199.495L114.226 192.08C114.349 191.744 114.351 191.375 114.23 191.038C114.108 190.702 113.872 190.418 113.563 190.238H113.526L113.416 190.183L109.561 188.305C109.516 188.143 109.5 187.975 109.511 187.807L109.794 183.952ZM91.3169 180.349C92.533 179.432 93.9413 178.802 95.4359 178.508C96.0712 179.769 96.4489 181.144 96.5469 182.553C97.1608 189.305 93.2015 197.899 87.6768 201.846C86.472 202.74 85.0911 203.368 83.6254 203.688C82.9543 202.421 82.5549 201.029 82.453 199.6C81.8268 192.902 85.7984 184.266 91.3231 180.349H91.3169Z" fill="black"/>
<path opacity="0.2" d="M75.3444 202.785L68.985 209.268L63.1411 206.198C63.2574 205.791 63.4677 205.417 63.755 205.106L68.0519 200.674C68.3179 200.393 68.5264 200.064 68.6658 199.704L75.3444 202.785Z" fill="black"/>
<path opacity="0.2" d="M79.9731 183.762L79.8441 184.487H74.3195L68.8931 181.417C69.0783 181.362 69.2707 181.336 69.4639 181.337H72.6744C73.1612 181.339 73.6361 181.186 74.031 180.902L79.9731 183.762Z" fill="black"/>
<path opacity="0.2" d="M89.9236 164.77L87.4682 167.225L83.0669 171.553L77.2415 168.336C77.392 167.874 77.6485 167.454 77.9903 167.109L82.938 162.106C83.0747 161.968 83.2489 161.874 83.4388 161.835C83.6287 161.795 83.826 161.813 84.0061 161.885L84.1902 161.971L89.9236 164.77Z" fill="black"/>
<path opacity="0.2" d="M106.724 160.436H100.917L95.1472 157.367C95.3381 157.189 95.5658 157.056 95.8141 156.976C96.0623 156.897 96.3251 156.873 96.5836 156.906L100.359 157.385C100.523 157.404 100.682 157.457 100.825 157.539L106.724 160.436Z" fill="black"/>
<path d="M111.095 181.092L115.245 176.906C115.553 176.591 115.78 176.205 115.905 175.782C116.03 175.36 116.05 174.913 115.963 174.481L114.913 169.423C114.88 169.246 114.802 169.08 114.686 168.943C114.569 168.805 114.419 168.7 114.25 168.638C114.081 168.577 113.899 168.56 113.721 168.59C113.544 168.619 113.377 168.695 113.237 168.809L108.94 172.351C108.717 172.535 108.432 172.628 108.143 172.611C107.854 172.594 107.582 172.468 107.381 172.259L106.154 170.97C105.771 170.569 105.503 170.072 105.38 169.532C105.257 168.991 105.282 168.427 105.454 167.9L107.394 162.007C107.455 161.822 107.474 161.625 107.451 161.43C107.427 161.236 107.36 161.05 107.256 160.884C107.151 160.719 107.011 160.578 106.846 160.473C106.681 160.368 106.495 160.301 106.301 160.276L102.526 159.804C102.146 159.761 101.763 159.84 101.432 160.03C101.101 160.22 100.839 160.51 100.684 160.86L97.8912 167.231C97.5489 168.008 96.9232 168.625 96.1417 168.956L93.631 170.018C93.4819 170.091 93.3192 170.132 93.1532 170.139C92.9873 170.145 92.8219 170.117 92.6675 170.056C92.5132 169.994 92.3733 169.902 92.257 169.783C92.1407 169.664 92.0504 169.523 91.9921 169.367L90.4268 165.31C90.3663 165.155 90.2682 165.018 90.1413 164.91C90.0145 164.803 89.8629 164.729 89.7002 164.695C89.5376 164.661 89.369 164.668 89.2097 164.715C89.0504 164.762 88.9054 164.849 88.7878 164.966L83.8586 169.981C83.5252 170.318 83.2755 170.729 83.1294 171.18C82.9834 171.631 82.9451 172.109 83.0176 172.578L83.7235 177.133C83.8089 177.695 83.6867 178.269 83.3798 178.747L80.5683 183.136C80.3569 183.468 80.0647 183.742 79.7191 183.931C79.3735 184.12 78.9856 184.218 78.5917 184.216H75.4181C74.965 184.218 74.5232 184.358 74.1523 184.618C73.7813 184.878 73.4989 185.246 73.3433 185.671L70.5073 193.394C70.4555 193.547 70.4345 193.709 70.4457 193.871C70.4568 194.033 70.4999 194.191 70.5724 194.336C70.6448 194.48 70.7453 194.61 70.8679 194.716C70.9906 194.821 71.133 194.902 71.2869 194.953L74.1904 195.849C74.5327 195.952 74.8278 196.172 75.0242 196.47C75.2206 196.769 75.3057 197.127 75.2647 197.482L74.8043 201.822C74.7329 202.49 74.4388 203.115 73.9694 203.596L69.6725 208.028C69.3606 208.346 69.1331 208.738 69.0109 209.167C68.8887 209.595 68.8756 210.048 68.9727 210.483L70.2004 216.008C70.2301 216.142 70.2937 216.266 70.3851 216.369C70.4765 216.472 70.5928 216.549 70.7227 216.594C70.8526 216.639 70.9919 216.65 71.1272 216.626C71.2625 216.602 71.3894 216.543 71.4956 216.456L75.7066 212.951C75.8737 212.813 76.0664 212.709 76.2736 212.646C76.4808 212.583 76.6984 212.561 76.914 212.582C77.1296 212.603 77.3389 212.667 77.5299 212.769C77.7209 212.871 77.8898 213.01 78.027 213.178L79.1012 214.492C79.3599 214.809 79.5381 215.184 79.6204 215.584C79.7027 215.985 79.6867 216.4 79.5739 216.793L77.6894 223.27C77.6393 223.445 77.6276 223.629 77.6552 223.809C77.6828 223.989 77.749 224.161 77.8493 224.313C77.9495 224.465 78.0815 224.594 78.2362 224.69C78.3908 224.787 78.5644 224.849 78.7452 224.872L82.0354 225.283C82.4779 225.336 82.9258 225.246 83.3127 225.025C83.6997 224.803 84.0051 224.464 84.1839 224.055L86.9831 217.806C87.3018 217.097 87.8634 216.524 88.5668 216.192L91.0222 215.026C91.2144 214.933 91.4239 214.883 91.6371 214.877C91.8502 214.871 92.0622 214.91 92.2592 214.992C92.4561 215.074 92.6336 215.196 92.7801 215.351C92.9266 215.506 93.0388 215.69 93.1093 215.891L94.4045 219.629C94.459 219.784 94.551 219.924 94.6723 220.034C94.7936 220.145 94.9405 220.224 95.0998 220.264C95.2591 220.304 95.4259 220.304 95.5852 220.264C95.7445 220.224 95.8914 220.145 96.0128 220.035L101.046 215.431C101.339 215.154 101.561 214.811 101.694 214.431C101.828 214.051 101.869 213.644 101.814 213.245L101.095 208.212C100.974 207.355 101.166 206.483 101.636 205.756L103.938 202.196C104.23 201.744 104.631 201.372 105.104 201.115C105.576 200.858 106.106 200.723 106.645 200.723H109.714C110.092 200.719 110.459 200.6 110.767 200.38C111.074 200.16 111.307 199.851 111.433 199.495L114.226 192.08C114.299 191.881 114.33 191.67 114.316 191.458C114.303 191.247 114.247 191.041 114.15 190.853C114.053 190.665 113.918 190.499 113.753 190.366C113.589 190.232 113.399 190.135 113.194 190.079L110.665 189.397C110.318 189.305 110.014 189.095 109.805 188.802C109.597 188.51 109.497 188.154 109.524 187.795L109.8 183.983C109.866 182.894 110.327 181.867 111.095 181.092ZM93.5942 204.762C88.0696 208.678 83.0851 206.383 82.459 199.643C81.8329 192.902 85.7983 184.296 91.323 180.349C96.8476 176.402 101.832 178.729 102.464 185.469C103.097 192.209 99.1189 200.846 93.5942 204.762Z" fill="#0FA1EF"/>
<path d="M140.824 120.1C140.883 119.211 141.263 118.373 141.892 117.743L145.312 114.287C145.573 114.032 145.766 113.716 145.873 113.368C145.98 113.019 145.998 112.649 145.925 112.292L145.06 108.124C145.035 108.001 144.983 107.885 144.908 107.786C144.832 107.686 144.735 107.604 144.624 107.547L139.775 105.177L139.658 105.122C139.517 105.064 139.364 105.046 139.214 105.069C139.063 105.091 138.922 105.154 138.805 105.251L137.393 106.411L138.835 102.034C138.917 101.785 138.905 101.514 138.802 101.273C138.699 101.031 138.513 100.835 138.277 100.721L133.434 98.3513C133.314 98.2848 133.183 98.2431 133.047 98.2285L129.935 97.8356C129.721 97.808 129.504 97.8277 129.3 97.8935C129.095 97.9593 128.907 98.0695 128.75 98.2162C128.599 98.3505 128.48 98.516 128.4 98.7012L126.092 103.956C125.876 104.465 125.507 104.894 125.036 105.183L124.87 104.754C124.834 104.653 124.776 104.562 124.702 104.485C124.628 104.408 124.539 104.347 124.441 104.306L119.677 101.985L119.524 101.905C119.376 101.846 119.213 101.831 119.057 101.864C118.9 101.897 118.757 101.975 118.646 102.09L114.564 106.215C114.281 106.501 114.071 106.85 113.95 107.234C113.843 107.596 113.816 107.977 113.87 108.351L114.484 112.108C114.559 112.571 114.458 113.046 114.202 113.44L111.881 117.061C111.754 117.27 111.584 117.449 111.384 117.589C111.057 117.825 110.664 117.951 110.261 117.951H107.615C107.455 117.95 107.296 117.971 107.142 118.013C106.863 118.091 106.607 118.234 106.393 118.431C106.18 118.627 106.016 118.871 105.915 119.142L103.533 125.496C103.445 125.719 103.441 125.967 103.523 126.193C103.604 126.419 103.765 126.607 103.975 126.723L107.431 128.411C107.468 128.564 107.48 128.722 107.468 128.878L107.075 132.457C107.052 132.685 106.994 132.909 106.903 133.12C106.786 133.418 106.611 133.689 106.387 133.918L102.839 137.601C102.594 137.855 102.413 138.165 102.311 138.503C102.199 138.867 102.184 139.255 102.268 139.627L103.269 144.169C103.292 144.27 103.338 144.365 103.404 144.444C103.471 144.524 103.555 144.588 103.65 144.629L108.468 146.993C108.585 147.057 108.718 147.085 108.85 147.073C108.983 147.061 109.108 147.01 109.211 146.925L110.776 145.636L109.463 150.172C109.433 150.272 109.419 150.376 109.42 150.479C109.426 150.674 109.487 150.863 109.595 151.025C109.704 151.187 109.856 151.315 110.034 151.394L114.723 153.678C114.867 153.781 115.033 153.849 115.208 153.874L117.922 154.212C118.284 154.258 118.652 154.186 118.97 154.007C119.288 153.828 119.541 153.551 119.689 153.217L122.004 148.067C122.237 147.55 122.628 147.12 123.121 146.839L123.244 147.177C123.283 147.291 123.347 147.396 123.432 147.482C123.517 147.568 123.621 147.634 123.735 147.674L128.498 150.007C128.645 150.074 128.807 150.097 128.966 150.073C129.126 150.049 129.274 149.979 129.394 149.872L133.538 146.072C133.791 145.843 133.983 145.555 134.097 145.234C134.21 144.912 134.242 144.567 134.189 144.23L133.575 140.081C133.471 139.378 133.629 138.662 134.017 138.067L135.913 135.133C136.153 134.758 136.483 134.448 136.874 134.234C137.264 134.019 137.702 133.906 138.148 133.905H140.671C140.98 133.906 141.282 133.811 141.535 133.634C141.789 133.458 141.982 133.207 142.089 132.917L144.378 126.742C144.486 126.466 144.491 126.161 144.392 125.883C144.292 125.604 144.096 125.371 143.838 125.226H143.808L143.716 125.177L140.536 123.63C140.505 123.495 140.493 123.356 140.499 123.218L140.824 120.1ZM125.589 117.129C126.596 116.381 127.758 115.869 128.989 115.631C129.509 116.672 129.82 117.804 129.904 118.964C130.42 124.489 127.148 131.64 122.593 134.869C121.602 135.615 120.464 136.14 119.254 136.41C118.697 135.365 118.366 134.215 118.284 133.034C117.774 127.478 121.034 120.358 125.589 117.129Z" fill="#0FA1EF"/>
<path opacity="0.3" d="M140.824 120.1C140.883 119.211 141.263 118.373 141.892 117.743L145.312 114.287C145.573 114.032 145.766 113.716 145.873 113.368C145.98 113.019 145.998 112.649 145.925 112.292L145.06 108.124C145.035 108.001 144.983 107.885 144.908 107.786C144.832 107.686 144.735 107.604 144.624 107.547L139.775 105.177L139.658 105.122C139.517 105.064 139.364 105.046 139.214 105.069C139.063 105.091 138.922 105.154 138.805 105.251L137.393 106.411L138.835 102.034C138.917 101.785 138.905 101.514 138.802 101.273C138.699 101.031 138.513 100.835 138.277 100.721L133.434 98.3513C133.314 98.2848 133.183 98.2431 133.047 98.2285L129.935 97.8356C129.721 97.808 129.504 97.8277 129.3 97.8935C129.095 97.9593 128.907 98.0695 128.75 98.2162C128.599 98.3505 128.48 98.516 128.4 98.7012L126.092 103.956C125.876 104.465 125.507 104.894 125.036 105.183L124.87 104.754C124.834 104.653 124.776 104.562 124.702 104.485C124.628 104.408 124.539 104.347 124.441 104.306L119.677 101.985L119.524 101.905C119.376 101.846 119.213 101.831 119.057 101.864C118.9 101.897 118.757 101.975 118.646 102.09L114.564 106.215C114.281 106.501 114.071 106.85 113.95 107.234C113.843 107.596 113.816 107.977 113.87 108.351L114.484 112.108C114.559 112.571 114.458 113.046 114.202 113.44L111.881 117.061C111.754 117.27 111.584 117.449 111.384 117.589C111.057 117.825 110.664 117.951 110.261 117.951H107.615C107.455 117.95 107.296 117.971 107.142 118.013C106.863 118.091 106.607 118.234 106.393 118.431C106.18 118.627 106.016 118.871 105.915 119.142L103.533 125.496C103.445 125.719 103.441 125.967 103.523 126.193C103.604 126.419 103.765 126.607 103.975 126.723L107.431 128.411C107.468 128.564 107.48 128.722 107.468 128.878L107.075 132.457C107.052 132.685 106.994 132.909 106.903 133.12C106.786 133.418 106.611 133.689 106.387 133.918L102.839 137.601C102.594 137.855 102.413 138.165 102.311 138.503C102.199 138.867 102.184 139.255 102.268 139.627L103.269 144.169C103.292 144.27 103.338 144.365 103.404 144.444C103.471 144.524 103.555 144.588 103.65 144.629L108.468 146.993C108.585 147.057 108.718 147.085 108.85 147.073C108.983 147.061 109.108 147.01 109.211 146.925L110.776 145.636L109.463 150.172C109.433 150.272 109.419 150.376 109.42 150.479C109.426 150.674 109.487 150.863 109.595 151.025C109.704 151.187 109.856 151.315 110.034 151.394L114.723 153.678C114.867 153.781 115.033 153.849 115.208 153.874L117.922 154.212C118.284 154.258 118.652 154.186 118.97 154.007C119.288 153.828 119.541 153.551 119.689 153.217L122.004 148.067C122.237 147.55 122.628 147.12 123.121 146.839L123.244 147.177C123.283 147.291 123.347 147.396 123.432 147.482C123.517 147.568 123.621 147.634 123.735 147.674L128.498 150.007C128.645 150.074 128.807 150.097 128.966 150.073C129.126 150.049 129.274 149.979 129.394 149.872L133.538 146.072C133.791 145.843 133.983 145.555 134.097 145.234C134.21 144.912 134.242 144.567 134.189 144.23L133.575 140.081C133.471 139.378 133.629 138.662 134.017 138.067L135.913 135.133C136.153 134.758 136.483 134.448 136.874 134.234C137.264 134.019 137.702 133.906 138.148 133.905H140.671C140.98 133.906 141.282 133.811 141.535 133.634C141.789 133.458 141.982 133.207 142.089 132.917L144.378 126.742C144.486 126.466 144.491 126.161 144.392 125.883C144.292 125.604 144.096 125.371 143.838 125.226H143.808L143.716 125.177L140.536 123.63C140.505 123.495 140.493 123.356 140.499 123.218L140.824 120.1ZM125.589 117.129C126.596 116.381 127.758 115.869 128.989 115.631C129.509 116.672 129.82 117.804 129.904 118.964C130.42 124.489 127.148 131.64 122.593 134.869C121.602 135.615 120.464 136.14 119.254 136.41C118.697 135.365 118.366 134.215 118.284 133.034C117.774 127.478 121.034 120.358 125.589 117.129Z" fill="black"/>
<path opacity="0.2" d="M112.421 135.606L107.172 140.934L102.329 138.436C102.431 138.097 102.612 137.788 102.857 137.533L106.405 133.85C106.629 133.621 106.804 133.35 106.921 133.052L112.421 135.606Z" fill="black"/>
<path opacity="0.2" d="M116.233 119.946L116.129 120.56H111.58L107.105 118.007C107.259 117.965 107.418 117.944 107.578 117.945H110.224C110.627 117.945 111.02 117.818 111.347 117.583L116.233 119.946Z" fill="black"/>
<path opacity="0.2" d="M124.44 104.299L122.39 106.319L118.762 109.892L113.956 107.24C114.077 106.856 114.287 106.507 114.57 106.221L118.652 102.096C118.763 101.981 118.906 101.903 119.063 101.87C119.219 101.837 119.382 101.852 119.53 101.911L119.683 101.991L124.44 104.299Z" fill="black"/>
<path opacity="0.2" d="M138.276 100.714H133.501L128.743 98.2038C128.901 98.057 129.088 97.9468 129.293 97.881C129.498 97.8153 129.715 97.7955 129.928 97.8232L133.04 98.2161C133.176 98.2306 133.308 98.2724 133.427 98.3388L138.276 100.714Z" fill="black"/>
<path d="M141.892 117.743L145.311 114.287C145.572 114.032 145.765 113.716 145.872 113.367C145.98 113.019 145.998 112.649 145.925 112.292L145.059 108.124C145.03 107.98 144.964 107.846 144.868 107.735C144.772 107.624 144.649 107.54 144.51 107.49C144.372 107.441 144.223 107.428 144.079 107.453C143.934 107.478 143.798 107.54 143.684 107.632L140.13 110.554C139.945 110.705 139.71 110.781 139.471 110.767C139.233 110.754 139.008 110.652 138.841 110.481L137.822 109.419C137.499 109.094 137.27 108.686 137.162 108.24C137.054 107.794 137.07 107.327 137.208 106.89L138.81 102.028C138.858 101.876 138.873 101.716 138.852 101.558C138.831 101.4 138.776 101.248 138.691 101.113C138.606 100.979 138.492 100.865 138.358 100.779C138.223 100.693 138.072 100.637 137.914 100.616L134.802 100.223C134.487 100.182 134.167 100.244 133.89 100.4C133.614 100.556 133.395 100.798 133.267 101.089L130.965 106.35C130.683 106.989 130.167 107.496 129.523 107.768L127.454 108.645C127.333 108.696 127.203 108.722 127.072 108.721C126.941 108.721 126.811 108.694 126.69 108.643C126.569 108.591 126.46 108.516 126.369 108.421C126.278 108.327 126.206 108.215 126.159 108.093L124.864 104.747C124.814 104.62 124.734 104.506 124.629 104.417C124.524 104.329 124.399 104.268 124.265 104.24C124.131 104.212 123.992 104.217 123.861 104.257C123.729 104.296 123.61 104.368 123.513 104.465L119.437 108.596C119.162 108.874 118.956 109.213 118.835 109.585C118.715 109.957 118.684 110.352 118.744 110.739L119.321 114.495C119.395 114.958 119.296 115.432 119.045 115.827L116.724 119.449C116.549 119.721 116.308 119.946 116.024 120.101C115.74 120.257 115.421 120.338 115.097 120.339H112.452C112.084 120.338 111.725 120.446 111.42 120.651C111.115 120.856 110.878 121.147 110.739 121.487L108.406 127.859C108.36 127.984 108.339 128.116 108.345 128.249C108.351 128.383 108.383 128.513 108.441 128.633C108.498 128.753 108.579 128.861 108.678 128.949C108.778 129.038 108.894 129.105 109.02 129.148L111.476 129.885C111.757 129.97 112 130.151 112.163 130.396C112.325 130.642 112.397 130.936 112.366 131.229L111.973 134.808C111.915 135.358 111.673 135.873 111.285 136.269L107.737 139.921C107.483 140.186 107.298 140.509 107.199 140.862C107.099 141.216 107.088 141.588 107.167 141.947L108.167 146.489C108.192 146.6 108.244 146.702 108.32 146.787C108.395 146.871 108.491 146.935 108.598 146.972C108.705 147.009 108.82 147.018 108.932 146.998C109.043 146.978 109.148 146.929 109.235 146.857L112.722 143.985C112.859 143.871 113.018 143.786 113.189 143.734C113.359 143.682 113.539 143.664 113.716 143.682C113.894 143.7 114.066 143.752 114.223 143.837C114.38 143.921 114.519 144.036 114.631 144.175L115.515 145.255C115.729 145.516 115.876 145.825 115.943 146.156C116.01 146.486 115.996 146.828 115.902 147.152L114.361 152.493C114.319 152.637 114.309 152.788 114.331 152.936C114.353 153.085 114.407 153.227 114.489 153.352C114.571 153.478 114.68 153.584 114.807 153.663C114.935 153.743 115.078 153.794 115.226 153.812L117.94 154.15C118.302 154.196 118.67 154.124 118.988 153.945C119.306 153.766 119.559 153.489 119.707 153.156L122.022 148.005C122.281 147.418 122.743 146.943 123.323 146.667L125.343 145.71C125.501 145.63 125.674 145.586 125.851 145.58C126.028 145.574 126.204 145.606 126.367 145.674C126.53 145.742 126.677 145.845 126.797 145.975C126.916 146.105 127.007 146.259 127.061 146.428L128.136 149.497C128.179 149.626 128.255 149.741 128.354 149.834C128.454 149.926 128.575 149.992 128.707 150.025C128.839 150.059 128.977 150.059 129.108 150.026C129.24 149.992 129.362 149.927 129.462 149.835L133.605 146.035C133.858 145.806 134.05 145.518 134.164 145.197C134.277 144.875 134.309 144.53 134.256 144.193L133.642 140.044C133.539 139.341 133.696 138.625 134.084 138.03L135.981 135.096C136.22 134.721 136.551 134.411 136.941 134.197C137.331 133.982 137.77 133.869 138.215 133.868H140.738C141.047 133.869 141.349 133.774 141.602 133.597C141.856 133.42 142.049 133.17 142.156 132.88L144.446 126.705C144.511 126.542 144.541 126.366 144.533 126.19C144.525 126.014 144.479 125.842 144.399 125.686C144.319 125.529 144.206 125.392 144.068 125.282C143.929 125.173 143.769 125.095 143.598 125.054L141.511 124.495C141.226 124.416 140.976 124.241 140.805 124C140.634 123.758 140.552 123.464 140.572 123.169L140.799 120.026C140.882 119.16 141.269 118.351 141.892 117.743ZM127.467 137.257C122.912 140.486 118.799 138.595 118.259 133.034C117.719 127.472 121.009 120.358 125.564 117.129C130.118 113.9 134.231 115.791 134.771 121.352C135.312 126.913 132.021 134.028 127.467 137.257Z" fill="#0FA1EF"/>
<path d="M397.048 62.176C392.008 62.176 387.528 60.972 383.608 58.564C379.744 56.156 376.692 52.684 374.452 48.148C372.212 43.612 371.092 38.096 371.092 31.6C371.092 25.104 372.212 19.588 374.452 15.052C376.692 10.516 379.744 7.044 383.608 4.636C387.528 2.228 392.008 1.024 397.048 1.024C402.032 1.024 406.456 2.228 410.32 4.636C414.24 7.044 417.32 10.516 419.56 15.052C421.8 19.588 422.92 25.104 422.92 31.6C422.92 38.096 421.8 43.612 419.56 48.148C417.32 52.684 414.24 56.156 410.32 58.564C406.456 60.972 402.032 62.176 397.048 62.176ZM397.048 48.568C398.84 48.568 400.408 48.008 401.752 46.888C403.152 45.768 404.244 43.976 405.028 41.512C405.812 38.992 406.204 35.688 406.204 31.6C406.204 27.456 405.812 24.152 405.028 21.688C404.244 19.224 403.152 17.432 401.752 16.312C400.408 15.192 398.84 14.632 397.048 14.632C395.256 14.632 393.66 15.192 392.26 16.312C390.916 17.432 389.824 19.224 388.984 21.688C388.2 24.152 387.808 27.456 387.808 31.6C387.808 35.688 388.2 38.992 388.984 41.512C389.824 43.976 390.916 45.768 392.26 46.888C393.66 48.008 395.256 48.568 397.048 48.568ZM449.176 62.176C445.144 62.176 441.084 61.672 436.996 60.664C432.908 59.656 429.38 58.228 426.412 56.38L432.376 43.864C434.784 45.432 437.388 46.636 440.188 47.476C443.044 48.316 445.872 48.736 448.672 48.736C451.472 48.736 453.74 48.204 455.476 47.14C457.212 46.02 458.08 44.48 458.08 42.52C458.08 41.344 457.744 40.308 457.072 39.412C456.4 38.46 455.252 37.76 453.628 37.312C452.004 36.808 449.68 36.556 446.656 36.556H430.696L433.636 2.2H471.1V15.052H439.516L448 7.744L446.068 30.928L437.584 23.62H450.604C456.428 23.62 461.104 24.46 464.632 26.14C468.16 27.764 470.736 29.976 472.36 32.776C473.984 35.52 474.796 38.628 474.796 42.1C474.796 45.572 473.872 48.848 472.024 51.928C470.232 54.952 467.46 57.416 463.708 59.32C459.956 61.224 455.112 62.176 449.176 62.176Z" fill="#D6EAFA"/>
</g>
<defs>
<clipPath id="clip0_1031_2403">
<rect width="476" height="438" fill="white"/>
</clipPath>
</defs>
</svg>
