<svg width="60" height="60" viewBox="0 0 60 60" fill="none" xmlns="http://www.w3.org/2000/svg">
<rect width="60" height="60" rx="11" fill="url(#paint0_linear_409_445)"/>
<path d="M44.5714 24.7143H14.4286M44.5714 24.7143C45.2155 24.7143 45.8332 24.4584 46.2887 24.003C46.7441 23.5475 47 22.9298 47 22.2857V17.4286C47 16.7845 46.7441 16.1668 46.2887 15.7113C45.8332 15.2559 45.2155 15 44.5714 15H15.4286C14.7845 15 14.1668 15.2559 13.7113 15.7113C13.2559 16.1668 13 16.7845 13 17.4286V22.2857C13 22.9298 13.2559 23.5475 13.7113 24.003C14.1668 24.4584 13.7845 24.7143 14.4286 24.7143M44.5714 24.7143C45.2155 24.7143 45.8332 24.9702 46.2887 25.4256C46.7441 25.881 47 26.4988 47 27.1429V32C47 32.6441 46.7441 33.2618 46.2887 33.7173C45.8332 34.1727 45.2155 34.4286 44.5714 34.4286M14.4286 24.7143C13.7845 24.7143 14.1668 24.9702 13.7113 25.4256C13.2559 25.881 13 26.4988 13 27.1429V32C13 32.6441 13.2559 33.2618 13.7113 33.7173C14.1668 34.1727 14.7845 34.4286 15.4286 34.4286M44.5714 34.4286H15.4286M44.5714 34.4286C45.2155 34.4286 45.8332 34.6844 46.2887 35.1399C46.7441 35.5953 47 36.213 47 36.8571V41.7143C47 42.3584 46.7441 42.9761 46.2887 43.4315C45.8332 43.887 45.2155 44.1429 44.5714 44.1429H15.4286C14.7845 44.1429 14.1668 43.887 13.7113 43.4315C13.2559 42.9761 13 42.3584 13 41.7143V36.8571C13 36.213 13.2559 35.5953 13.7113 35.1399C14.1668 34.6844 14.7845 34.4286 15.4286 34.4286M18.7054 19.8571H24.9286M18.7054 29.5714H24.9286M18.7054 39.2857H24.9286" stroke="white" stroke-width="3" stroke-linecap="round"/>
<defs>
<linearGradient id="paint0_linear_409_445" x1="1.25436" y1="0.416667" x2="58.1247" y2="58.7394" gradientUnits="userSpaceOnUse">
<stop stop-color="#93D9FF"/>
<stop offset="0.5" stop-color="#52C3FF"/>
<stop offset="1" stop-color="#42BDFF"/>
</linearGradient>
</defs>
</svg>
