<svg width="60" height="60" viewBox="0 0 60 60" fill="none" xmlns="http://www.w3.org/2000/svg">
<rect width="60" height="60" rx="11" fill="url(#paint0_linear_409_436)"/>
<path d="M36.7657 35.1429C37.9219 35.1429 39.0307 35.6021 39.8483 36.4197L48.2857 44.8571C49.2325 45.8039 49.2325 47.3389 48.2857 48.2857V48.2857C47.3389 49.2325 45.8039 49.2325 44.8571 48.2857L36.4197 39.8483C35.6021 39.0307 35.1429 37.9219 35.1429 36.7657V36.7657L34.5257 36.1257C31.8378 38.4431 28.4062 39.7168 24.8571 39.7143C20.9168 39.7143 17.1378 38.149 14.3516 35.3627C11.5653 32.5765 10 28.7975 10 24.8571C10 20.9168 11.5653 17.1378 14.3516 14.3516C17.1378 11.5653 20.9168 10 24.8571 10C28.7975 10 32.5765 11.5653 35.3627 14.3516C38.149 17.1378 39.7143 20.9168 39.7143 24.8571C39.7143 28.5371 38.3657 31.92 36.1257 34.5257L36.7657 35.1429V35.1429ZM24.8571 13.4286L23.6 13.4971C23.0514 14.6857 22.2057 16.6971 21.5886 19.1429H28.1257C27.5086 16.6971 26.6629 14.6857 26.1143 13.4971C25.7029 13.4286 25.2914 13.4286 24.8571 13.4286ZM34.7543 19.1429C33.395 16.7648 31.2181 14.9615 28.6286 14.0686C29.1771 15.28 29.8857 17.04 30.4114 19.1429H34.7543ZM14.96 19.1429H19.3029C19.8286 17.04 20.5371 15.28 21.0857 14.0686C18.4962 14.9615 16.3193 16.7648 14.96 19.1429ZM13.4286 24.8571C13.4286 26 13.6114 27.2114 13.9543 28.2857H18.8457L18.5714 24.8571L18.8457 21.4286H13.9543C13.6114 22.5029 13.4286 23.7143 13.4286 24.8571ZM35.76 28.2857C36.1029 27.2114 36.2857 26 36.2857 24.8571C36.2857 23.7143 36.1029 22.5029 35.76 21.4286H30.8686C31.2325 23.6998 31.2325 26.0145 30.8686 28.2857H35.76ZM21.1314 21.4286L20.8571 24.8571L21.1314 28.2857H28.5829C28.9468 26.0145 28.9468 23.6998 28.5829 21.4286H21.1314ZM24.8571 36.2857C25.2686 36.2857 25.68 36.2857 26.0686 36.2171C26.64 35.0286 27.5086 33.0171 28.1257 30.5714H21.5886C22.2057 33.0171 23.0743 35.0286 23.6457 36.2171L24.8571 36.2857ZM34.7543 30.5714H30.4114C29.8857 32.6743 29.1771 34.4343 28.6286 35.6457C31.2181 34.7528 33.395 32.9495 34.7543 30.5714ZM14.96 30.5714C16.3193 32.9495 18.4962 34.7528 21.0857 35.6457C20.5371 34.4343 19.8286 32.6743 19.3029 30.5714H14.96Z" fill="white"/>
<defs>
<linearGradient id="paint0_linear_409_436" x1="1.25436" y1="0.416667" x2="58.1247" y2="58.7394" gradientUnits="userSpaceOnUse">
<stop stop-color="#93D9FF"/>
<stop offset="0.5" stop-color="#52C3FF"/>
<stop offset="1" stop-color="#42BDFF"/>
</linearGradient>
</defs>
</svg>
