<svg width="46" height="45" viewBox="0 0 46 45" fill="none" xmlns="http://www.w3.org/2000/svg">
<rect x="10.5" y="10" width="25" height="24.0741" fill="white"/>
<path d="M23.0001 3C22.5641 3 22.1361 3.004 21.7161 3.01L20.4841 3.044L19.8861 3.07L18.7281 3.138L17.6221 3.23C8.05205 4.158 4.15805 8.052 3.23005 17.622L3.13805 18.728L3.07005 19.886C3.06005 20.082 3.05005 20.282 3.04405 20.484L3.01005 21.716L3.00205 22.352L3.00005 23C3.00005 23.436 3.00405 23.864 3.01005 24.284L3.04405 25.516L3.07005 26.114L3.13805 27.272L3.23005 28.378C4.15805 37.948 8.05205 41.842 17.6221 42.77L18.7281 42.862L19.8861 42.93C20.0821 42.94 20.2821 42.95 20.4841 42.956L21.7161 42.99L23.0001 43L24.2841 42.99L25.5161 42.956L26.1141 42.93L27.2721 42.862L28.3781 42.77C37.9481 41.842 41.8421 37.948 42.7701 28.378L42.8621 27.272L42.9301 26.114C42.9401 25.918 42.9501 25.718 42.9561 25.516L42.9901 24.284L43.0001 23L42.9901 21.716L42.9561 20.484L42.9301 19.886L42.8621 18.728L42.7701 17.622C41.8421 8.052 37.9481 4.158 28.3781 3.23L27.2721 3.138L26.1141 3.07C25.9148 3.06027 25.7154 3.0516 25.5161 3.044L24.2841 3.01L23.6481 3.002L23.0001 3ZM22.7041 13.022L22.8201 13.008L23.0001 13L23.1501 13.006L23.4021 13.04L23.6241 13.1L23.8461 13.188L24.0421 13.292L24.2501 13.44L24.4141 13.586L32.4141 21.586C32.7728 21.9459 32.981 22.4289 32.9965 22.9368C33.012 23.4447 32.8336 23.9394 32.4976 24.3206C32.1615 24.7017 31.6929 24.9406 31.1871 24.9888C30.6813 25.037 30.176 24.8908 29.7741 24.58L29.5861 24.414L25.0001 19.83V31C24.9995 31.5098 24.8043 32.0001 24.4544 32.3707C24.1044 32.7414 23.6261 32.9645 23.1173 32.9943C22.6084 33.0242 22.1073 32.8587 21.7164 32.5315C21.3255 32.2043 21.0743 31.7402 21.0141 31.234L21.0001 31V19.83L16.4141 24.414C16.0697 24.7584 15.6115 24.9652 15.1254 24.9958C14.6394 25.0263 14.1589 24.8785 13.7741 24.58L13.5861 24.414C13.2417 24.0696 13.0348 23.6114 13.0043 23.1254C12.9737 22.6393 13.1216 22.1588 13.4201 21.774L13.5861 21.586L21.5861 13.586C21.6554 13.5155 21.7303 13.4506 21.8101 13.392L22.0301 13.25L22.2581 13.142L22.4681 13.072L22.7041 13.022Z" fill="url(#paint0_linear_971_3670)"/>
<defs>
<linearGradient id="paint0_linear_971_3670" x1="21.488" y1="3" x2="21.488" y2="43" gradientUnits="userSpaceOnUse">
<stop stop-color="#57BDF4"/>
<stop offset="1" stop-color="#0899EB"/>
</linearGradient>
</defs>
</svg>
