<svg width="36" height="36" viewBox="0 0 36 36" fill="none" xmlns="http://www.w3.org/2000/svg">
<rect x="6.26099" y="7.04346" width="23.4783" height="21.913" fill="#D1EEFF"/>
<path d="M18 0C17.6076 0 17.2224 0.00360021 16.8444 0.00900021L15.7356 0.0396001L15.1974 0.0630002L14.1552 0.1242L13.1598 0.207C4.5468 1.0422 1.0422 4.5468 0.207 13.1598L0.1242 14.1552L0.0630002 15.1974C0.0540002 15.3738 0.0450001 15.5538 0.0396001 15.7356L0.00900021 16.8444L0.00179987 17.4168L0 18C0 18.3924 0.00360021 18.7776 0.00900021 19.1556L0.0396001 20.2644L0.0630002 20.8026L0.1242 21.8448L0.207 22.8402C1.0422 31.4532 4.5468 34.9578 13.1598 35.793L14.1552 35.8758L15.1974 35.937C15.3738 35.946 15.5538 35.955 15.7356 35.9604L16.8444 35.991L18 36L19.1556 35.991L20.2644 35.9604L20.8026 35.937L21.8448 35.8758L22.8402 35.793C31.4532 34.9578 34.9578 31.4532 35.793 22.8402L35.8758 21.8448L35.937 20.8026C35.946 20.6262 35.955 20.4462 35.9604 20.2644L35.991 19.1556L36 18L35.991 16.8444L35.9604 15.7356L35.937 15.1974L35.8758 14.1552L35.793 13.1598C34.9578 4.5468 31.4532 1.0422 22.8402 0.207L21.8448 0.1242L20.8026 0.0630002C20.6232 0.0542434 20.4438 0.0464433 20.2644 0.0396001L19.1556 0.00900021L18.5832 0.00179987L18 0ZM18 9C18.4409 9.00006 18.8664 9.16192 19.1959 9.45489C19.5253 9.74785 19.7358 10.1515 19.7874 10.5894L19.8 10.8V20.853L23.9274 16.7274C24.2373 16.4175 24.6497 16.2313 25.0872 16.2038C25.5246 16.1763 25.9571 16.3093 26.3034 16.578L26.4726 16.7274C26.7825 17.0373 26.9687 17.4497 26.9962 17.8872C27.0237 18.3246 26.8907 18.7571 26.622 19.1034L26.4726 19.2726L19.2726 26.4726C19.2098 26.5357 19.1424 26.594 19.071 26.6472L18.873 26.775L18.6678 26.8722L18.4788 26.9352L18.2106 26.9892L18 27L17.865 26.9946L17.6382 26.964L17.4384 26.91L17.2386 26.8308L17.0622 26.7372L16.8966 26.622L16.7274 26.4726L9.5274 19.2726C9.20457 18.9487 9.01715 18.514 9.00319 18.0569C8.98923 17.5998 9.14979 17.1545 9.45225 16.8115C9.75471 16.4685 10.1764 16.2534 10.6317 16.2101C11.0869 16.1667 11.5416 16.2983 11.9034 16.578L12.0726 16.7274L16.2 20.853V10.8C16.2 10.3226 16.3896 9.86477 16.7272 9.52721C17.0648 9.18964 17.5226 9 18 9Z" fill="#ECF8FF"/>
</svg>
