<svg width="60" height="60" viewBox="0 0 60 60" fill="none" xmlns="http://www.w3.org/2000/svg">
<rect width="60" height="60" rx="11" fill="url(#paint0_linear_409_431)"/>
<path d="M30 48C24.9667 48 20.708 47.2247 17.224 45.674C13.74 44.1233 11.9987 42.232 12 40V20C12 17.8 13.7587 15.9167 17.276 14.35C20.7933 12.7833 25.0347 12 30 12C34.9667 12 39.2087 12.7833 42.726 14.35C46.2433 15.9167 48.0013 17.8 48 20V40C48 42.2333 46.258 44.1253 42.774 45.676C39.29 47.2267 35.032 48.0013 30 48ZM30 24.05C32.9667 24.05 35.95 23.6247 38.95 22.774C41.95 21.9233 43.6333 21.0153 44 20.05C43.6333 19.0833 41.958 18.1667 38.974 17.3C35.99 16.4333 32.9987 16 30 16C26.9667 16 23.9913 16.4253 21.074 17.276C18.1567 18.1267 16.4653 19.0507 16 20.048C16.4667 21.048 18.1587 21.9647 21.076 22.798C23.9933 23.6313 26.968 24.0487 30 24.05ZM30 34C31.4 34 32.75 33.9333 34.05 33.8C35.35 33.6667 36.592 33.4747 37.776 33.224C38.9587 32.9747 40.0753 32.6667 41.126 32.3C42.1767 31.9333 43.1347 31.5167 44 31.05V25.05C43.1333 25.5167 42.1747 25.9333 41.124 26.3C40.0733 26.6667 38.9567 26.9753 37.774 27.226C36.5913 27.4753 35.35 27.6667 34.05 27.8C32.75 27.9333 31.4 28 30 28C28.6 28 27.2333 27.9333 25.9 27.8C24.5667 27.6667 23.308 27.4747 22.124 27.224C20.9413 26.9747 19.8333 26.6667 18.8 26.3C17.7667 25.9333 16.8333 25.5167 16 25.05V31.05C16.8333 31.5167 17.7667 31.9333 18.8 32.3C19.8333 32.6667 20.942 32.9753 22.126 33.226C23.3087 33.4753 24.5667 33.6667 25.9 33.8C27.2333 33.9333 28.6 34 30 34ZM30 44C31.5333 44 33.0913 43.8833 34.674 43.65C36.2567 43.4167 37.7153 43.108 39.05 42.724C40.3833 42.3413 41.5 41.908 42.4 41.424C43.3 40.94 43.8333 40.4487 44 39.95V35.05C43.1333 35.5167 42.1747 35.9333 41.124 36.3C40.0733 36.6667 38.9567 36.9753 37.774 37.226C36.5913 37.4753 35.35 37.6667 34.05 37.8C32.75 37.9333 31.4 38 30 38C28.6 38 27.2333 37.9333 25.9 37.8C24.5667 37.6667 23.308 37.4747 22.124 37.224C20.9413 36.9747 19.8333 36.6667 18.8 36.3C17.7667 35.9333 16.8333 35.5167 16 35.05V40C16.1667 40.5 16.692 40.9833 17.576 41.45C18.46 41.9167 19.568 42.342 20.9 42.726C22.2333 43.1087 23.7 43.4167 25.3 43.65C26.9 43.8833 28.4667 44 30 44Z" fill="white"/>
<defs>
<linearGradient id="paint0_linear_409_431" x1="1.25436" y1="0.416667" x2="58.1247" y2="58.7394" gradientUnits="userSpaceOnUse">
<stop stop-color="#93D9FF"/>
<stop offset="0.46875" stop-color="#52C3FF"/>
<stop offset="1" stop-color="#42BDFF"/>
</linearGradient>
</defs>
</svg>
