<svg width="36" height="36" viewBox="0 0 36 36" fill="none" xmlns="http://www.w3.org/2000/svg">
<path d="M18 36C12.9667 36 8.708 35.2247 5.224 33.674C1.74 32.1233 -0.00133257 30.232 7.65111e-07 28V8C7.65111e-07 5.8 1.75867 3.91667 5.276 2.35C8.79334 0.783334 13.0347 0 18 0C22.9667 0 27.2087 0.783334 30.726 2.35C34.2433 3.91667 36.0013 5.8 36 8V28C36 30.2333 34.258 32.1253 30.774 33.676C27.29 35.2267 23.032 36.0013 18 36ZM18 12.05C20.9667 12.05 23.95 11.6247 26.95 10.774C29.95 9.92333 31.6333 9.01533 32 8.05C31.6333 7.08333 29.958 6.16667 26.974 5.3C23.99 4.43333 20.9987 4 18 4C14.9667 4 11.9913 4.42533 9.074 5.276C6.15667 6.12667 4.46533 7.05067 4 8.048C4.46667 9.048 6.15867 9.96467 9.076 10.798C11.9933 11.6313 14.968 12.0487 18 12.05ZM18 22C19.4 22 20.75 21.9333 22.05 21.8C23.35 21.6667 24.592 21.4747 25.776 21.224C26.9587 20.9747 28.0753 20.6667 29.126 20.3C30.1767 19.9333 31.1347 19.5167 32 19.05V13.05C31.1333 13.5167 30.1747 13.9333 29.124 14.3C28.0733 14.6667 26.9567 14.9753 25.774 15.226C24.5913 15.4753 23.35 15.6667 22.05 15.8C20.75 15.9333 19.4 16 18 16C16.6 16 15.2333 15.9333 13.9 15.8C12.5667 15.6667 11.308 15.4747 10.124 15.224C8.94133 14.9747 7.83333 14.6667 6.8 14.3C5.76667 13.9333 4.83333 13.5167 4 13.05V19.05C4.83333 19.5167 5.76667 19.9333 6.8 20.3C7.83333 20.6667 8.942 20.9753 10.126 21.226C11.3087 21.4753 12.5667 21.6667 13.9 21.8C15.2333 21.9333 16.6 22 18 22ZM18 32C19.5333 32 21.0913 31.8833 22.674 31.65C24.2567 31.4167 25.7153 31.108 27.05 30.724C28.3833 30.3413 29.5 29.908 30.4 29.424C31.3 28.94 31.8333 28.4487 32 27.95V23.05C31.1333 23.5167 30.1747 23.9333 29.124 24.3C28.0733 24.6667 26.9567 24.9753 25.774 25.226C24.5913 25.4753 23.35 25.6667 22.05 25.8C20.75 25.9333 19.4 26 18 26C16.6 26 15.2333 25.9333 13.9 25.8C12.5667 25.6667 11.308 25.4747 10.124 25.224C8.94133 24.9747 7.83333 24.6667 6.8 24.3C5.76667 23.9333 4.83333 23.5167 4 23.05V28C4.16667 28.5 4.692 28.9833 5.576 29.45C6.46 29.9167 7.568 30.342 8.9 30.726C10.2333 31.1087 11.7 31.4167 13.3 31.65C14.9 31.8833 16.4667 32 18 32Z" fill="white"/>
</svg>
