<svg width="38" height="37" viewBox="0 0 38 37" fill="none" xmlns="http://www.w3.org/2000/svg">
<g clip-path="url(#clip0_518_668)">
<path d="M15.8824 26.7255C16.5595 25.9485 16.5575 24.7905 15.8777 24.0159L12.8655 20.5834L15.8777 17.1508C16.5575 16.3762 16.5595 15.2182 15.8824 14.4412V14.4412C15.064 13.502 13.6054 13.4994 12.7838 14.4357L8.54655 19.2642C7.88421 20.0189 7.88421 21.1478 8.54655 21.9025L12.7838 26.731C13.6054 27.6673 15.064 27.6647 15.8824 26.7255V26.7255ZM22.1176 26.7255C22.936 27.6647 24.3946 27.6673 25.2162 26.731L29.4535 21.9025C30.1158 21.1478 30.1158 20.0189 29.4535 19.2642L25.2162 14.4357C24.3946 13.4994 22.936 13.502 22.1176 14.4412V14.4412C21.4405 15.2182 21.4425 16.3762 22.1223 17.1508L25.1345 20.5834L22.1223 24.0159C21.4425 24.7905 21.4405 25.9485 22.1176 26.7255V26.7255Z" fill="#1DABF8"/>
<path d="M33.6019 4.75001H24.4572C23.6444 2.50519 21.5157 0.879639 19 0.879639C16.4843 0.879639 14.3556 2.50519 13.5428 4.75001H4.39815C4.12722 4.75001 3.87565 4.76936 3.62407 4.82742C3.00774 4.95673 2.43208 5.2339 1.94664 5.63506C1.4612 6.03623 1.08053 6.54936 0.837408 7.13029C0.643889 7.57538 0.527778 8.07853 0.527778 8.62038V32.5463C0.527778 33.0688 0.643889 33.5913 0.837408 34.0558C1.03093 34.5202 1.3212 34.9266 1.66954 35.2943C2.19204 35.8168 2.86935 36.2038 3.62407 36.3586C3.87565 36.3973 4.12722 36.4167 4.39815 36.4167H33.6019C35.7306 36.4167 37.4722 34.675 37.4722 32.5463V8.62038C37.4722 6.49168 35.7306 4.75001 33.6019 4.75001ZM33.6019 27.9722V32.5463H4.39815V8.62038H33.6019V27.9722Z" fill="#1DABF8"/>
</g>
<defs>
<clipPath id="clip0_518_668">
<rect width="38" height="36.9444" fill="white"/>
</clipPath>
</defs>
</svg>
