<svg width="40" height="41" viewBox="0 0 40 41" fill="none" xmlns="http://www.w3.org/2000/svg">
<path d="M20 0.454102C9.06803 0.454102 0.206177 9.31596 0.206177 20.2479C0.206177 31.1799 9.06803 40.0417 20 40.0417C30.9319 40.0417 39.7938 31.1799 39.7938 20.2479C39.7938 9.31596 30.9319 0.454102 20 0.454102ZM15.1546 28.452H11.1464V15.5531H15.1546V28.452ZM13.1258 13.9696C11.8598 13.9696 11.0412 13.0727 11.0412 11.9634C11.0412 10.8314 11.8845 9.96132 13.1773 9.96132C14.4701 9.96132 15.2618 10.8314 15.2866 11.9634C15.2866 13.0727 14.4701 13.9696 13.1258 13.9696ZM29.7938 28.452H25.7856V21.3036C25.7856 19.6397 25.2041 18.5098 23.7546 18.5098C22.6474 18.5098 21.9897 19.2747 21.699 20.0108C21.5917 20.2727 21.5649 20.6438 21.5649 21.0129V28.45H17.5546V19.6665C17.5546 18.0562 17.5031 16.7098 17.4495 15.551H20.9319L21.1155 17.3428H21.1959C21.7237 16.5015 23.0165 15.2603 25.1794 15.2603C27.8165 15.2603 29.7938 17.0273 29.7938 20.8252V28.452V28.452Z" fill="#42BDFF"/>
</svg>
