<svg width="40" height="31" viewBox="0 0 40 31" fill="none" xmlns="http://www.w3.org/2000/svg">
<path d="M21.0638 11.6596H1.91489C0.861702 11.6596 0 12.5213 0 13.5745C0 14.6277 0.861702 15.4894 1.91489 15.4894H21.0638C22.117 15.4894 22.9787 14.6277 22.9787 13.5745C22.9787 12.5213 22.117 11.6596 21.0638 11.6596ZM21.0638 4H1.91489C0.861702 4 0 4.8617 0 5.91489C0 6.96809 0.861702 7.82979 1.91489 7.82979H21.0638C22.117 7.82979 22.9787 6.96809 22.9787 5.91489C22.9787 4.8617 22.117 4 21.0638 4ZM1.91489 23.1489H13.4043C14.4574 23.1489 15.3191 22.2872 15.3191 21.234C15.3191 20.1809 14.4574 19.3191 13.4043 19.3191H1.91489C0.861702 19.3191 0 20.1809 0 21.234C0 22.2872 0.861702 23.1489 1.91489 23.1489ZM38.7 15.8915L38.8723 16.0638C39.6191 16.8106 39.6191 18.017 38.8723 18.7638L28.1872 29.4681C28.0101 29.6456 27.7997 29.7864 27.568 29.8825C27.3364 29.9786 27.088 30.0281 26.8372 30.0281C26.5864 30.0281 26.3381 29.9786 26.1065 29.8825C25.8748 29.7864 25.6644 29.6456 25.4872 29.4681L19.5702 23.5511C19.3927 23.3739 19.2519 23.1635 19.1558 22.9318C19.0597 22.7002 19.0102 22.4519 19.0102 22.2011C19.0102 21.9503 19.0597 21.7019 19.1558 21.4703C19.2519 21.2386 19.3927 21.0282 19.5702 20.8511L19.7426 20.6787C19.9197 20.5012 20.1301 20.3604 20.3618 20.2643C20.5934 20.1682 20.8418 20.1187 21.0926 20.1187C21.3433 20.1187 21.5917 20.1682 21.8233 20.2643C22.055 20.3604 22.2654 20.5012 22.4426 20.6787L26.8468 25.083L36 15.9106C36.7277 15.1447 37.9532 15.1447 38.7 15.8915Z" fill="white"/>
</svg>
