<svg width="60" height="60" viewBox="0 0 60 60" fill="none" xmlns="http://www.w3.org/2000/svg">
<rect width="60" height="60" rx="11" fill="url(#paint0_linear_416_534)"/>
<path d="M45.5385 24C46.643 24 47.5385 23.1046 47.5385 22V16.3077C47.5385 15.2031 46.643 14.3077 45.5385 14.3077H39.8462C38.7416 14.3077 37.8462 15.2031 37.8462 16.3077V17.5385H26.3077V15C26.3071 14.3882 26.0638 13.8015 25.6311 13.3689C25.1985 12.9363 24.6119 12.6929 24 12.6923H14.7692C14.1574 12.6929 13.5708 12.9363 13.1381 13.3689C12.7055 13.8015 12.4622 14.3882 12.4615 15V24.2308C12.4622 24.8426 12.7055 25.4292 13.1381 25.8619C13.5708 26.2945 14.1574 26.5379 14.7692 26.5385H24C24.6119 26.5379 25.1985 26.2945 25.6311 25.8619C26.0638 25.4292 26.3071 24.8426 26.3077 24.2308V20.7692C27.2255 20.7702 28.1054 21.1352 28.7544 21.7841C29.4033 22.4331 29.7683 23.313 29.7692 24.2308V35.5385H22.8462V34.5385C22.8462 33.4339 21.9507 32.5385 20.8462 32.5385H16.3077C15.2031 32.5385 14.3077 33.4339 14.3077 34.5385V39.7692C14.3077 40.8738 15.2031 41.7692 16.3077 41.7692H20.8462C21.9507 41.7692 22.8462 40.8738 22.8462 39.7692V38.7692H29.7692V41.0769C29.7699 41.6888 30.0132 42.2754 30.4458 42.708C30.8785 43.1407 31.4651 43.384 32.0769 43.3846H37.8462V44.6154C37.8462 45.72 38.7416 46.6154 39.8462 46.6154H45.5385C46.643 46.6154 47.5385 45.72 47.5385 44.6154V38.9231C47.5385 37.8185 46.643 36.9231 45.5385 36.9231H39.8462C38.7416 36.9231 37.8462 37.8185 37.8462 38.9231V40.1539H33V32.0769H37.8462V33.3077C37.8462 34.4123 38.7416 35.3077 39.8462 35.3077H45.5385C46.643 35.3077 47.5385 34.4123 47.5385 33.3077V27.6154C47.5385 26.5108 46.643 25.6154 45.5385 25.6154H39.8462C38.7416 25.6154 37.8462 26.5108 37.8462 27.6154V28.8462H33V24.2308C32.9958 22.9785 32.5802 21.7623 31.8173 20.7692H37.8462V22C37.8462 23.1046 38.7416 24 39.8462 24H45.5385ZM15.6923 23.3077V15.9231H23.0769V23.3077H15.6923ZM20.3077 38.7692H17.0769V35.5385H20.3077V38.7692ZM41.0769 40.1539H44.3077V43.3846H41.0769V40.1539ZM41.0769 28.8462H44.3077V32.0769H41.0769V28.8462ZM41.0769 17.5385H44.3077V20.7692H41.0769V17.5385Z" fill="white"/>
<defs>
<linearGradient id="paint0_linear_416_534" x1="1.25436" y1="0.416667" x2="58.1247" y2="58.7394" gradientUnits="userSpaceOnUse">
<stop stop-color="#93D9FF"/>
<stop offset="0.5" stop-color="#52C3FF"/>
<stop offset="1" stop-color="#42BDFF"/>
</linearGradient>
</defs>
</svg>
