<svg width="36" height="36" viewBox="0 0 36 36" fill="none" xmlns="http://www.w3.org/2000/svg">
<path d="M24.0891 22.6286C25.1297 22.6286 26.1276 23.0419 26.8634 23.7777L34.4571 31.3714C35.3092 32.2235 35.3092 33.605 34.4571 34.4571V34.4571C33.605 35.3092 32.2235 35.3092 31.3714 34.4571L23.7777 26.8634C23.0419 26.1276 22.6286 25.1297 22.6286 24.0891V24.0891L22.0731 23.5131C19.654 25.5988 16.5655 26.7451 13.3714 26.7429C9.82511 26.7429 6.42403 25.3341 3.9164 22.8265C1.40877 20.3188 0 16.9178 0 13.3714C0 9.82511 1.40877 6.42403 3.9164 3.9164C6.42403 1.40877 9.82511 0 13.3714 0C16.9178 0 20.3188 1.40877 22.8265 3.9164C25.3341 6.42403 26.7429 9.82511 26.7429 13.3714C26.7429 16.6834 25.5291 19.728 23.5131 22.0731L24.0891 22.6286V22.6286ZM13.3714 3.08571L12.24 3.14743C11.7463 4.21714 10.9851 6.02743 10.4297 8.22857H16.3131C15.7577 6.02743 14.9966 4.21714 14.5029 3.14743C14.1326 3.08571 13.7623 3.08571 13.3714 3.08571ZM22.2789 8.22857C21.0555 6.08832 19.0963 4.46537 16.7657 3.66171C17.2594 4.752 17.8971 6.336 18.3703 8.22857H22.2789ZM4.464 8.22857H8.37257C8.84572 6.336 9.48343 4.752 9.97714 3.66171C7.6466 4.46537 5.68737 6.08832 4.464 8.22857ZM3.08571 13.3714C3.08571 14.4 3.25029 15.4903 3.55886 16.4571H7.96114L7.71429 13.3714L7.96114 10.2857H3.55886C3.25029 11.2526 3.08571 12.3429 3.08571 13.3714ZM23.184 16.4571C23.4926 15.4903 23.6571 14.4 23.6571 13.3714C23.6571 12.3429 23.4926 11.2526 23.184 10.2857H18.7817C19.1093 12.3298 19.1093 14.413 18.7817 16.4571H23.184ZM10.0183 10.2857L9.77143 13.3714L10.0183 16.4571H16.7246C17.0521 14.413 17.0521 12.3298 16.7246 10.2857H10.0183ZM13.3714 23.6571C13.7417 23.6571 14.112 23.6571 14.4617 23.5954C14.976 22.5257 15.7577 20.7154 16.3131 18.5143H10.4297C10.9851 20.7154 11.7669 22.5257 12.2811 23.5954L13.3714 23.6571ZM22.2789 18.5143H18.3703C17.8971 20.4069 17.2594 21.9909 16.7657 23.0811C19.0963 22.2775 21.0555 20.6545 22.2789 18.5143ZM4.464 18.5143C5.68737 20.6545 7.6466 22.2775 9.97714 23.0811C9.48343 21.9909 8.84572 20.4069 8.37257 18.5143H4.464Z" fill="white"/>
</svg>
