<svg width="60" height="60" viewBox="0 0 60 60" fill="none" xmlns="http://www.w3.org/2000/svg">
<rect width="60" height="60" rx="11" fill="url(#paint0_linear_409_437)"/>
<path d="M40 35C37.8333 35 36 36.3333 35.3333 38.3333H28.3333C28.3333 37.1667 28 36.1667 27.5 35.3333L39.3333 23.1667C39.8333 23.1667 40.3333 23.3333 40.8333 23.3333C43.1667 23.3333 45 21.5 45 19.1667C45 16.8333 43.1667 15 40.8333 15C38.5 15 36.6667 16.8333 36.6667 19.1667C36.6667 19.6667 36.8333 20.3333 37 20.8333L25.3333 32.8333C24.3333 32 23 31.6667 21.6667 31.6667V24.6667C23.6667 24 25 22.1667 25 20C25 17.1667 22.8333 15 20 15C17.1667 15 15 17.1667 15 20C15 22.1667 16.3333 24 18.3333 24.6667V32.5C16.3333 33.6667 15 35.8333 15 38.1667C15 41.8333 18 44.8333 21.6667 44.8333C24.1667 44.8333 26.3333 43.5 27.3333 41.5H35.1667C35.8333 43.3333 37.6667 44.8333 39.8333 44.8333C42.5 44.8333 44.8333 42.6667 44.8333 39.8333C45 37.1667 42.6667 35 40 35Z" fill="white"/>
<defs>
<linearGradient id="paint0_linear_409_437" x1="1.25436" y1="0.416667" x2="58.1247" y2="58.7394" gradientUnits="userSpaceOnUse">
<stop stop-color="#93D9FF"/>
<stop offset="0.5" stop-color="#52C3FF"/>
<stop offset="1" stop-color="#42BDFF"/>
</linearGradient>
</defs>
</svg>
