<svg width="32" height="32" viewBox="0 0 32 32" fill="none" xmlns="http://www.w3.org/2000/svg">
<path d="M26.6667 21.3333C24.3556 21.3333 22.4 22.7556 21.6889 24.8889H14.2222C14.2222 23.6444 13.8667 22.5778 13.3333 21.6889L25.9556 8.71111C26.4889 8.71111 27.0222 8.88889 27.5556 8.88889C30.0444 8.88889 32 6.93333 32 4.44444C32 1.95556 30.0444 0 27.5556 0C25.0667 0 23.1111 1.95556 23.1111 4.44444C23.1111 4.97778 23.2889 5.68889 23.4667 6.22222L11.0222 19.0222C9.95556 18.1333 8.53333 17.7778 7.11111 17.7778V10.3111C9.24444 9.6 10.6667 7.64444 10.6667 5.33333C10.6667 2.31111 8.35556 0 5.33333 0C2.31111 0 0 2.31111 0 5.33333C0 7.64444 1.42222 9.6 3.55556 10.3111V18.6667C1.42222 19.9111 0 22.2222 0 24.7111C0 28.6222 3.2 31.8222 7.11111 31.8222C9.77778 31.8222 12.0889 30.4 13.1556 28.2667H21.5111C22.2222 30.2222 24.1778 31.8222 26.4889 31.8222C29.3333 31.8222 31.8222 29.5111 31.8222 26.4889C32 23.6444 29.5111 21.3333 26.6667 21.3333Z" fill="#1DABF8"/>
</svg>
