<svg width="42" height="31" viewBox="0 0 42 31" fill="none" xmlns="http://www.w3.org/2000/svg">
<path d="M16.3196 23.2878C17.1648 24.133 18.5352 24.133 19.3804 23.2878L27.2523 15.4159C28.0167 14.6515 28.0167 13.4121 27.2523 12.6477V12.6477C26.4879 11.8833 25.2485 11.8833 24.4841 12.6477L17.8023 19.3295L15.1534 16.6807C14.4022 15.9294 13.1842 15.9294 12.433 16.6807V16.6807C11.6817 17.4319 11.6817 18.6499 12.433 19.4011L16.3196 23.2878ZM10.5 30.5455C7.60455 30.5455 5.13036 29.5432 3.07746 27.5386C1.02455 25.5341 -0.00127154 23.0841 1.18283e-06 20.1886C1.18283e-06 17.7068 0.747728 15.4955 2.24318 13.5545C3.73864 11.6136 5.69546 10.3727 8.11364 9.83182C8.90909 6.90454 10.5 4.53409 12.8864 2.72045C15.2727 0.906819 17.9773 0 21 0C24.7227 0 27.881 1.29691 30.4748 3.89073C33.0686 6.48454 34.3649 9.64218 34.3636 13.3636C36.5591 13.6182 38.381 14.5651 39.8294 16.2044C41.2777 17.8436 42.0013 19.7604 42 21.9545C42 24.3409 41.1645 26.3696 39.4934 28.0407C37.8223 29.7118 35.7942 30.5467 33.4091 30.5455H10.5ZM10.5 26.7273H33.4091C34.7455 26.7273 35.875 26.2659 36.7977 25.3432C37.7205 24.4204 38.1818 23.2909 38.1818 21.9545C38.1818 20.6182 37.7205 19.4886 36.7977 18.5659C35.875 17.6432 34.7455 17.1818 33.4091 17.1818H32.5455C31.4409 17.1818 30.5455 16.2864 30.5455 15.1818V13.3636C30.5455 10.7227 29.6145 8.47127 27.7525 6.60927C25.8905 4.74727 23.6396 3.81691 21 3.81818C18.3591 3.81818 16.1076 4.74918 14.2456 6.61118C12.6119 8.24488 11.6954 10.1779 11.4961 12.4102C11.4492 12.9352 11.0271 13.3636 10.5 13.3636V13.3636C8.65455 13.3636 7.07955 14.0159 5.775 15.3205C4.47046 16.625 3.81818 18.2 3.81818 20.0455C3.81818 21.8909 4.47046 23.4659 5.775 24.7705C7.07955 26.075 8.65455 26.7273 10.5 26.7273Z" fill="white"/>
</svg>
