<svg width="36" height="36" viewBox="0 0 36 36" fill="none" xmlns="http://www.w3.org/2000/svg">
<rect x="1.8" y="1.8" width="32.4" height="22.5" rx="2.2" stroke="#1DABF8" stroke-width="3.6"/>
<path fill-rule="evenodd" clip-rule="evenodd" d="M10.2243 14.0143C9.48972 14.0143 9 14.6603 9 15.3986V18.63C9 19.4137 9.52989 20.0143 10.2243 20.0143H11.9785C12.7144 20.0143 13.2857 19.4137 13.2857 18.63V15.3986C13.2857 14.6149 12.7144 14.0143 11.9785 14.0143H10.2243Z" fill="#1DABF8"/>
<path fill-rule="evenodd" clip-rule="evenodd" d="M23.9399 6.30005C23.2455 6.30005 22.7143 6.88247 22.7143 7.5481V18.7663C22.7143 19.5151 23.2856 20.0143 23.9399 20.0143H25.7355C26.4701 20.0143 27 19.4319 27 18.7663V7.5481C27 6.84152 26.4701 6.30005 25.7355 6.30005H23.9399Z" fill="#1DABF8"/>
<path fill-rule="evenodd" clip-rule="evenodd" d="M17.1222 10.5858C16.4282 10.5858 15.8571 11.145 15.8571 11.8234V18.8159C15.8571 19.535 16.4282 20.0143 17.1222 20.0143H18.917C19.6111 20.0143 20.1407 19.4944 20.1407 18.8159V11.8234C20.1821 11.145 19.6111 10.5858 18.917 10.5858H17.1222Z" fill="#1DABF8"/>
<path d="M12.186 29.25H23.814C24.0849 29.25 24.3275 29.4181 24.4226 29.6718L25.6226 32.8718C25.782 33.2967 25.4678 33.75 25.014 33.75H10.986C10.5322 33.75 10.218 33.2967 10.3774 32.8718L11.5774 29.6718C11.6725 29.4181 11.915 29.25 12.186 29.25Z" stroke="#1DABF8" stroke-width="2.7"/>
</svg>
