<svg width="60" height="60" viewBox="0 0 60 60" fill="none" xmlns="http://www.w3.org/2000/svg">
<rect width="60" height="60" rx="11" fill="url(#paint0_linear_416_515)"/>
<rect x="13.8" y="15.8" width="32.4" height="22.5" rx="2.2" stroke="white" stroke-width="3.6"/>
<path d="M24.186 43.25H35.814C36.0849 43.25 36.3275 43.4181 36.4226 43.6718L37.6226 46.8718C37.7819 47.2967 37.4678 47.75 37.014 47.75H22.986C22.5321 47.75 22.218 47.2967 22.3774 46.8718L23.5774 43.6718C23.6725 43.4181 23.915 43.25 24.186 43.25Z" stroke="white" stroke-width="2.7"/>
<path fill-rule="evenodd" clip-rule="evenodd" d="M39.2259 20C37.7685 20 36.5906 21.1801 36.5906 22.7058C36.5906 23.1219 36.6588 23.4676 36.7975 23.8154L33.1913 27.4922C32.8434 27.283 32.4273 27.2148 32.0817 27.2148C31.7338 27.2148 31.2494 27.283 30.9016 27.4922L29.0984 25.6186C29.3076 25.2729 29.3758 24.8568 29.3758 24.509C29.3758 23.0515 28.1275 21.8032 26.67 21.8032C25.2148 21.8032 23.9664 23.0515 23.9664 24.509C23.9664 24.9251 24.1051 25.2729 24.2438 25.6186L21.8154 28.047C21.4676 27.9083 21.0515 27.8378 20.7058 27.8378C19.2483 27.8378 18 29.0179 18 30.4732C18 32.0011 19.2483 33.179 20.7058 33.179C22.1633 33.179 23.4116 32.0011 23.4116 30.4732C23.4116 30.0571 23.2729 29.7114 23.1342 29.3635L25.5604 26.9374C25.9083 27.0761 26.3244 27.2148 26.67 27.2148C27.0179 27.2148 27.434 27.0761 27.7797 26.9374L29.6533 28.7405C29.4463 29.0861 29.3758 29.5727 29.3758 29.9184C29.3758 31.3759 30.5559 32.5559 32.0817 32.5559C33.5369 32.5559 34.717 31.3759 34.717 29.9184C34.717 29.434 34.6466 29.0861 34.5079 28.7405L38.1163 25.1342C38.462 25.2729 38.8781 25.4116 39.2259 25.4116C40.7517 25.4116 42 24.1611 42 22.7058C42 21.1801 40.7517 20 39.2259 20V20Z" fill="white"/>
<defs>
<linearGradient id="paint0_linear_416_515" x1="1.25436" y1="0.416667" x2="58.1247" y2="58.7394" gradientUnits="userSpaceOnUse">
<stop stop-color="#93D9FF"/>
<stop offset="0.5" stop-color="#52C3FF"/>
<stop offset="1" stop-color="#42BDFF"/>
</linearGradient>
</defs>
</svg>
