<svg width="180" height="58" viewBox="0 0 180 58" fill="none" xmlns="http://www.w3.org/2000/svg">
<g clip-path="url(#clip0_415_86)">
<path fill-rule="evenodd" clip-rule="evenodd" d="M20.1933 0C19.2363 0 18.4604 0.775824 18.4604 1.73285V8.19144C18.4604 8.62038 18.6893 9.01668 19.0609 9.231L24.0068 12.0833C24.1532 12.1678 24.2434 12.3238 24.2434 12.4927V19.0379C24.2434 19.2632 24.3636 19.4713 24.5587 19.5838L31.3521 23.5017C31.5469 23.6141 31.7869 23.6141 31.9817 23.5017L40.0498 18.8487C40.196 18.7644 40.3759 18.7644 40.522 18.8487L49.8617 24.235C50.008 24.3194 50.0982 24.4754 50.0982 24.6444V35.416C50.0982 35.585 50.008 35.741 49.8617 35.8255L40.522 41.2117C40.3759 41.296 40.196 41.296 40.0498 41.2117L32.0144 36.5776C31.8196 36.4652 31.5797 36.4652 31.3849 36.5776L24.3053 40.6605C24.1102 40.773 23.99 40.9811 23.99 41.2063V45.5996C23.99 45.7698 23.8984 45.9268 23.7503 46.0108L19.0689 48.6632C18.6928 48.8763 18.4604 49.2751 18.4604 49.7073V55.4513C18.4604 56.4083 19.2363 57.1841 20.1933 57.1841H34.2632C51.2817 57.1841 61.6547 47.276 61.6547 28.3494C61.6547 9.46326 51.2817 0 33.7365 0H20.1933ZM18.4604 35.3711C18.4604 35.8034 18.6928 36.2021 19.0689 36.4152L22.4629 38.3383C22.6571 38.4483 22.895 38.4474 23.0884 38.3359L30.1584 34.2585C30.3535 34.146 30.4737 33.9379 30.4737 33.7127V26.3855C30.4737 26.1603 30.3535 25.9522 30.1584 25.8397L23.0408 21.7348C22.846 21.6225 22.606 21.6225 22.4112 21.7348L19.0609 23.667C18.6893 23.8813 18.4604 24.2776 18.4604 24.7065V35.3711Z" fill="#1045AB"/>
<path d="M18.3319 39.4203C18.4257 39.3693 18.5391 39.3693 18.6329 39.4203L21.4164 40.9339C21.5179 40.9891 21.581 41.0953 21.581 41.2107V44.2059C21.581 44.3213 21.5179 44.4275 21.4164 44.4827L18.6329 45.9962C18.5391 46.0473 18.4257 46.0473 18.3319 45.9962L15.5484 44.4827C15.447 44.4275 15.3838 44.3213 15.3838 44.2059V41.2107C15.3838 41.0953 15.447 40.9891 15.5484 40.9339L18.3319 39.4203Z" fill="#BCD9F4"/>
<path d="M11.1872 21.5876C11.3095 21.5203 11.4577 21.5203 11.5798 21.5876L15.1729 23.5677C15.3027 23.6392 15.3833 23.7757 15.3833 23.9239V27.8518C15.3833 28 15.3027 28.1364 15.1729 28.2079L11.5798 30.188C11.4577 30.2554 11.3095 30.2554 11.1872 30.188L7.59421 28.2079C7.46443 28.1364 7.38379 28 7.38379 27.8518V23.9239C7.38379 23.7757 7.46443 23.6392 7.59421 23.5677L11.1872 21.5876Z" fill="#BCD9F4"/>
<path d="M4.39228 12.3632C4.53135 12.2881 4.69883 12.2881 4.8379 12.3632L8.98374 14.5999C9.13554 14.6818 9.23016 14.8403 9.23016 15.0128V19.4326C9.23016 19.6051 9.13554 19.7636 8.98374 19.8455L4.8379 22.0822C4.69883 22.1573 4.53135 22.1573 4.39228 22.0822L0.246449 19.8455C0.094638 19.7636 0 19.605 0 19.4326V15.0128C0 14.8403 0.094638 14.6818 0.24645 14.5999L4.39228 12.3632Z" fill="#BCD9F4"/>
<path d="M80.4347 41.808C80.7867 41.84 81.2507 41.872 81.8267 41.904C82.4027 41.904 83.1867 41.904 84.1787 41.904C88.2427 41.904 91.2667 40.88 93.2507 38.832C95.2667 36.752 96.2747 33.856 96.2747 30.144C96.2747 26.368 95.2987 23.472 93.3467 21.456C91.3947 19.44 88.3707 18.432 84.2747 18.432C82.4827 18.432 81.2027 18.48 80.4347 18.576V41.808ZM102.611 30.144C102.611 33.024 102.163 35.536 101.267 37.68C100.371 39.792 99.0907 41.568 97.4267 43.008C95.7947 44.416 93.8107 45.472 91.4747 46.176C89.1707 46.848 86.6107 47.184 83.7947 47.184C82.4507 47.184 80.9307 47.12 79.2347 46.992C77.5387 46.896 75.9227 46.672 74.3867 46.32V14.016C75.9227 13.664 77.5547 13.44 79.2827 13.344C81.0107 13.248 82.5467 13.2 83.8907 13.2C86.6747 13.2 89.2187 13.536 91.5227 14.208C93.8267 14.848 95.7947 15.872 97.4267 17.28C99.0907 18.656 100.371 20.416 101.267 22.56C102.163 24.672 102.611 27.2 102.611 30.144Z" fill="#142E62"/>
<path d="M115.276 42.72C117.068 42.72 118.428 42.624 119.356 42.432V36C119.036 35.904 118.572 35.808 117.964 35.712C117.356 35.616 116.684 35.568 115.948 35.568C115.308 35.568 114.652 35.616 113.98 35.712C113.34 35.808 112.748 35.984 112.204 36.24C111.692 36.496 111.276 36.864 110.956 37.344C110.636 37.792 110.476 38.368 110.476 39.072C110.476 40.448 110.908 41.408 111.772 41.952C112.636 42.464 113.804 42.72 115.276 42.72ZM114.796 21.072C116.716 21.072 118.332 21.312 119.644 21.792C120.956 22.272 121.996 22.944 122.764 23.808C123.564 24.672 124.124 25.728 124.444 26.976C124.796 28.192 124.972 29.536 124.972 31.008V46.224C124.076 46.416 122.716 46.64 120.892 46.896C119.1 47.184 117.068 47.328 114.796 47.328C113.292 47.328 111.916 47.184 110.668 46.896C109.42 46.608 108.348 46.144 107.452 45.504C106.588 44.864 105.9 44.032 105.388 43.008C104.908 41.984 104.668 40.72 104.668 39.216C104.668 37.776 104.94 36.56 105.484 35.568C106.06 34.576 106.828 33.776 107.788 33.168C108.748 32.528 109.852 32.08 111.1 31.824C112.38 31.536 113.708 31.392 115.084 31.392C115.724 31.392 116.396 31.44 117.1 31.536C117.804 31.6 118.556 31.728 119.356 31.92V30.96C119.356 30.288 119.276 29.648 119.116 29.04C118.956 28.432 118.668 27.904 118.252 27.456C117.868 26.976 117.34 26.608 116.668 26.352C116.028 26.096 115.212 25.968 114.22 25.968C112.876 25.968 111.644 26.064 110.524 26.256C109.404 26.448 108.492 26.672 107.788 26.928L107.068 22.224C107.804 21.968 108.876 21.712 110.284 21.456C111.692 21.2 113.196 21.072 114.796 21.072Z" fill="#142E62"/>
<path d="M129.877 15.072L135.685 14.112V21.696H144.613V26.544H135.685V36.768C135.685 38.784 136.005 40.224 136.645 41.088C137.285 41.952 138.373 42.384 139.909 42.384C140.965 42.384 141.893 42.272 142.693 42.048C143.525 41.824 144.181 41.616 144.661 41.424L145.621 46.032C144.949 46.32 144.069 46.608 142.981 46.896C141.893 47.216 140.613 47.376 139.141 47.376C137.349 47.376 135.845 47.136 134.629 46.656C133.445 46.176 132.501 45.488 131.797 44.592C131.093 43.664 130.597 42.56 130.309 41.28C130.021 39.968 129.877 38.48 129.877 36.816V15.072Z" fill="#142E62"/>
<path d="M154.163 46.8H148.355V21.696H154.163V46.8ZM154.787 14.352C154.787 15.44 154.435 16.304 153.731 16.944C153.027 17.584 152.195 17.904 151.235 17.904C150.243 17.904 149.395 17.584 148.691 16.944C147.987 16.304 147.635 15.44 147.635 14.352C147.635 13.232 147.987 12.352 148.691 11.712C149.395 11.072 150.243 10.752 151.235 10.752C152.195 10.752 153.027 11.072 153.731 11.712C154.435 12.352 154.787 13.232 154.787 14.352Z" fill="#142E62"/>
<path d="M168.485 42.72C170.277 42.72 171.637 42.624 172.565 42.432V36C172.245 35.904 171.781 35.808 171.173 35.712C170.565 35.616 169.893 35.568 169.157 35.568C168.517 35.568 167.861 35.616 167.189 35.712C166.549 35.808 165.957 35.984 165.413 36.24C164.901 36.496 164.485 36.864 164.165 37.344C163.845 37.792 163.685 38.368 163.685 39.072C163.685 40.448 164.117 41.408 164.981 41.952C165.845 42.464 167.013 42.72 168.485 42.72ZM168.005 21.072C169.925 21.072 171.541 21.312 172.853 21.792C174.165 22.272 175.205 22.944 175.973 23.808C176.773 24.672 177.333 25.728 177.653 26.976C178.005 28.192 178.181 29.536 178.181 31.008V46.224C177.285 46.416 175.925 46.64 174.101 46.896C172.309 47.184 170.277 47.328 168.005 47.328C166.501 47.328 165.125 47.184 163.877 46.896C162.629 46.608 161.557 46.144 160.661 45.504C159.797 44.864 159.109 44.032 158.597 43.008C158.117 41.984 157.877 40.72 157.877 39.216C157.877 37.776 158.149 36.56 158.693 35.568C159.269 34.576 160.037 33.776 160.997 33.168C161.957 32.528 163.061 32.08 164.309 31.824C165.589 31.536 166.917 31.392 168.293 31.392C168.933 31.392 169.605 31.44 170.309 31.536C171.013 31.6 171.765 31.728 172.565 31.92V30.96C172.565 30.288 172.485 29.648 172.325 29.04C172.165 28.432 171.877 27.904 171.461 27.456C171.077 26.976 170.549 26.608 169.877 26.352C169.237 26.096 168.421 25.968 167.429 25.968C166.085 25.968 164.853 26.064 163.733 26.256C162.613 26.448 161.701 26.672 160.997 26.928L160.277 22.224C161.013 21.968 162.085 21.712 163.493 21.456C164.901 21.2 166.405 21.072 168.005 21.072Z" fill="#142E62"/>
</g>
<defs>
<clipPath id="clip0_415_86">
<rect width="180" height="57.6" fill="white"/>
</clipPath>
</defs>
</svg>
