<svg width="60" height="60" viewBox="0 0 60 60" fill="none" xmlns="http://www.w3.org/2000/svg">
<rect width="60" height="60" rx="11" fill="url(#paint0_linear_608_135)"/>
<g clip-path="url(#clip0_608_135)">
<path d="M21.4125 46.875V47.025H21.5625H38.4375H38.5875V46.875V44.0625C38.5875 43.3687 39.1499 42.8062 39.8438 42.8062C40.5376 42.8062 41.1 43.3687 41.1 44.0625V46.875C41.1 48.339 39.9015 49.5375 38.4375 49.5375H21.5625C20.0985 49.5375 18.9 48.339 18.9 46.875V44.0625C18.9 43.3687 19.4624 42.8062 20.1562 42.8062C20.8501 42.8062 21.4125 43.3687 21.4125 44.0625V46.875ZM28.7437 28.3125V27.9504L28.4877 28.2064L25.8158 30.8783C25.3307 31.3634 24.5443 31.3634 24.0592 30.8783C23.5741 30.3932 23.5741 29.6068 24.0592 29.1217L29.399 23.7819C29.7309 23.45 30.2691 23.45 30.601 23.7819L35.9408 29.1217C36.4259 29.6068 36.4259 30.3932 35.9408 30.8783C35.4557 31.3634 34.6693 31.3634 34.1842 30.8783L31.5123 28.2064L31.2563 27.9504V28.3125V41.25C31.2563 41.9438 30.6938 42.5063 30 42.5063C29.3062 42.5063 28.7437 41.9438 28.7437 41.25V28.3125Z" fill="white" stroke="white" stroke-width="0.3"/>
<path d="M20.1562 23.1188H20.2887L20.3051 22.9874L20.4457 21.8624L20.4457 21.8624L20.446 21.8603C20.9999 16.8747 25.1536 13.275 30 13.275C34.8476 13.275 39.0005 16.876 39.5541 21.7202L39.6947 22.9853L39.7077 23.1029L39.8251 23.1176L40.9501 23.2582L40.9501 23.2583L40.9558 23.2588C44.1113 23.5332 46.5844 26.2796 46.5844 29.4375C46.5844 32.8703 43.839 35.6156 40.4062 35.6156H37.0312C36.1718 35.6156 35.475 36.3124 35.475 37.1719C35.475 38.0314 36.1718 38.7281 37.0312 38.7281H40.5469C45.6922 38.7281 49.8375 34.5828 49.8375 29.4375C49.8375 24.9025 46.7423 21.0657 42.5002 20.1695C41.1853 14.3854 36.0856 10.1625 30 10.1625C23.9144 10.1625 18.8147 14.3854 17.4998 20.1695C13.259 21.0654 10.1625 24.9001 10.1625 29.2969C10.1625 34.4422 14.3078 38.5875 19.4531 38.5875H22.9688C23.8282 38.5875 24.525 37.8907 24.525 37.0312C24.525 36.1718 23.8282 35.475 22.9688 35.475H19.4531C16.0203 35.475 13.275 32.7297 13.275 29.2969C13.275 26.1411 15.7447 23.3963 18.8972 23.1188H20.1562Z" fill="white" stroke="white" stroke-width="0.3"/>
</g>
<defs>
<linearGradient id="paint0_linear_608_135" x1="1.25436" y1="0.416667" x2="58.1247" y2="58.7394" gradientUnits="userSpaceOnUse">
<stop stop-color="#93D9FF"/>
<stop offset="0.5" stop-color="#52C3FF"/>
<stop offset="1" stop-color="#42BDFF"/>
</linearGradient>
<clipPath id="clip0_608_135">
<rect width="40" height="40" fill="white" transform="translate(10 10)"/>
</clipPath>
</defs>
</svg>
