<svg width="60" height="60" viewBox="0 0 60 60" fill="none" xmlns="http://www.w3.org/2000/svg">
<rect width="60" height="60" rx="11" fill="url(#paint0_linear_416_525)"/>
<g clip-path="url(#clip0_416_525)">
<path d="M26.8825 37.7255C27.5595 36.9485 27.5575 35.7905 26.8777 35.0159L23.8655 31.5834L26.8777 28.1508C27.5575 27.3762 27.5595 26.2182 26.8825 25.4412V25.4412C26.0641 24.502 24.6055 24.4994 23.7838 25.4357L19.5466 30.2642C18.8842 31.0189 18.8842 32.1478 19.5466 32.9025L23.7838 37.731C24.6055 38.6673 26.0641 38.6647 26.8825 37.7255V37.7255ZM33.1176 37.7255C33.936 38.6647 35.3946 38.6673 36.2163 37.731L40.4535 32.9025C41.1158 32.1478 41.1158 31.0189 40.4535 30.2642L36.2163 25.4357C35.3946 24.4994 33.936 24.502 33.1176 25.4412V25.4412C32.4405 26.2182 32.4425 27.3762 33.1223 28.1508L36.1346 31.5834L33.1223 35.0159C32.4425 35.7905 32.4405 36.9485 33.1176 37.7255V37.7255Z" fill="white"/>
<path d="M44.6018 15.75H35.4572C34.6444 13.5052 32.5157 11.8796 30 11.8796C27.4843 11.8796 25.3556 13.5052 24.5428 15.75H15.3981C15.1272 15.75 14.8756 15.7694 14.6241 15.8274C14.0077 15.9567 13.4321 16.2339 12.9466 16.6351C12.4612 17.0362 12.0805 17.5494 11.8374 18.1303C11.6439 18.5754 11.5278 19.0785 11.5278 19.6204V43.5463C11.5278 44.0688 11.6439 44.5913 11.8374 45.0558C12.0309 45.5202 12.3212 45.9266 12.6695 46.2943C13.192 46.8168 13.8693 47.2038 14.6241 47.3586C14.8756 47.3973 15.1272 47.4167 15.3981 47.4167H44.6018C46.7306 47.4167 48.4722 45.675 48.4722 43.5463V19.6204C48.4722 17.4917 46.7306 15.75 44.6018 15.75ZM44.6018 38.9722V43.5463H15.3981V19.6204H44.6018V38.9722Z" fill="white"/>
</g>
<defs>
<linearGradient id="paint0_linear_416_525" x1="1.25436" y1="0.416667" x2="58.1247" y2="58.7394" gradientUnits="userSpaceOnUse">
<stop stop-color="#93D9FF"/>
<stop offset="0.5" stop-color="#52C3FF"/>
<stop offset="1" stop-color="#42BDFF"/>
</linearGradient>
<clipPath id="clip0_416_525">
<rect width="38" height="36.9444" fill="white" transform="translate(11 11)"/>
</clipPath>
</defs>
</svg>
