<svg width="44" height="50" viewBox="0 0 44 50" fill="none" xmlns="http://www.w3.org/2000/svg">
<path d="M39.2698 14.1895C39.2698 11.3131 39.2787 8.70258 39.2805 7.42553H41.0004C41.7128 7.44775 42.1334 6.56561 41.6523 6.06129L36.4943 0.275241C36.4525 0.231647 36.4072 0.193182 36.3574 0.15899C36.3076 0.124799 36.2542 0.0957361 36.1982 0.0718021C36.1421 0.047868 36.0843 0.0299176 36.0239 0.0179505C35.9643 0.00598361 35.9038 0 35.8424 0C35.7811 0 35.7197 0.00598361 35.6601 0.0179505C35.6006 0.0299176 35.5419 0.047868 35.4858 0.0718021C35.4298 0.0957361 35.3764 0.124799 35.3266 0.15899C35.2768 0.193182 35.2315 0.231647 35.1897 0.275241L30.0317 6.06129C29.5506 6.56561 29.9712 7.44775 30.6845 7.42553H32.4035V9.89159C30.7307 9.35222 29.0117 9.0804 27.2473 9.07869C18.2413 9.07869 10.9142 16.1247 10.9142 24.7845C10.9134 25.5812 10.9765 26.3736 11.1019 27.1617C11.2282 27.949 11.4158 28.7225 11.6648 29.4824C11.9138 30.2423 12.2215 30.98 12.5888 31.6946C12.9552 32.4092 13.3758 33.0931 13.8516 33.7453L10.8066 36.6678C10.121 36.3062 9.20766 36.3917 8.64117 36.9362L2.02738 43.3018C0.45242 44.7541 0.45242 47.368 2.02738 48.8203C3.53832 50.3341 6.25516 50.3341 7.7652 48.8203L14.3817 42.4538C14.5142 42.3265 14.6235 42.1829 14.7089 42.023C14.7952 41.8623 14.853 41.6939 14.8841 41.5161C14.9144 41.3383 14.9161 41.1597 14.8886 40.9819C14.861 40.8032 14.8059 40.634 14.7232 40.4724L17.7664 37.5456C18.4529 38.0209 19.1733 38.4423 19.9274 38.8099C20.6815 39.1766 21.4614 39.4851 22.2663 39.7356C23.0711 39.9852 23.891 40.1733 24.7261 40.2998C25.5612 40.4271 26.4015 40.4904 27.2473 40.4904C36.2533 40.4904 43.5812 33.4444 43.5812 24.7845C43.5812 23.8118 43.4878 22.8467 43.3002 21.8902C43.1125 20.9337 42.8342 20.002 42.4651 19.0959C42.0961 18.1899 41.6434 17.324 41.1063 16.4991C40.5691 15.6742 39.9573 14.9041 39.2698 14.1895ZM35.8442 2.08226L39.1338 5.77237H38.4232C38.3094 5.77237 38.2 5.79289 38.0942 5.83477C37.9892 5.87666 37.8959 5.93649 37.8158 6.01428C37.7349 6.09206 37.6726 6.18096 37.6291 6.28268C37.5855 6.38354 37.5633 6.48954 37.5633 6.59895C37.5633 6.73486 37.5312 20.2943 37.5633 24.7922C37.5837 27.6344 36.2346 30.262 34.1252 32.0981V6.59895C34.1252 6.48954 34.103 6.38354 34.0594 6.28268C34.0158 6.18096 33.9536 6.09206 33.8735 6.01428C33.7926 5.93649 33.6992 5.87666 33.5943 5.83477C33.4893 5.79289 33.3791 5.77237 33.2652 5.77237H32.5547L35.8442 2.08226ZM20.943 32.5554C18.9198 31.0527 17.4684 28.8849 17.0683 26.4377H20.943V32.5554ZM22.662 23.1314H26.6746V34.6684C25.2615 34.5753 23.9239 34.2188 22.662 33.5982V23.1314ZM28.3945 19.8251H32.4053V33.3204C31.1656 34.0308 29.8281 34.4658 28.3945 34.6265V19.8251ZM13.1704 41.2896L6.55041 47.6509C5.66643 48.5006 4.12615 48.5006 3.24218 47.6509C2.3342 46.8141 2.33509 45.308 3.24218 44.4711L9.85952 38.1141C9.89954 38.0833 9.93956 38.0833 9.98047 38.1141L13.1704 41.1725C13.2033 41.2118 13.2033 41.2503 13.1704 41.2896ZM13.5866 39.2356L12.0819 37.7884L14.9241 35.0565C15.391 35.5719 15.8899 36.0557 16.4208 36.5096L13.5866 39.2356ZM27.2473 38.8372C19.1884 38.8372 12.6333 32.534 12.6333 24.7845C12.6333 17.035 19.1884 10.7318 27.2473 10.7318C29.025 10.7344 30.7449 11.0404 32.4053 11.6499V14.3365C31.9891 14.1442 31.5622 13.9766 31.1247 13.8322C30.688 13.6877 30.2434 13.568 29.7925 13.4731C29.3407 13.3783 28.8854 13.309 28.4256 13.2646C27.9658 13.221 27.5052 13.2022 27.0427 13.209C26.5812 13.2159 26.1205 13.2483 25.6625 13.3065C25.2045 13.3646 24.7519 13.4484 24.3037 13.5569C23.8555 13.6655 23.4153 13.798 22.9839 13.9561C22.5517 14.1134 22.1302 14.2937 21.7202 14.498C21.6188 14.5485 21.5308 14.616 21.4579 14.6998C21.3841 14.7835 21.3298 14.8776 21.2951 14.9818C21.2605 15.087 21.248 15.1938 21.2578 15.3032C21.2676 15.4127 21.2987 15.5152 21.3512 15.6127C21.4036 15.7101 21.4739 15.7947 21.561 15.8648C21.6482 15.9358 21.746 15.9879 21.8545 16.0213C21.9639 16.0537 22.0751 16.0657 22.188 16.0563C22.3018 16.0469 22.4094 16.017 22.5108 15.9666C22.8932 15.7759 23.2872 15.6093 23.6918 15.4665C24.0965 15.3246 24.5082 15.2067 24.928 15.1135C25.3486 15.0203 25.7728 14.9536 26.2015 14.9117C26.6301 14.8707 27.0596 14.8553 27.4901 14.8656C27.9214 14.8758 28.35 14.9126 28.776 14.975C29.202 15.0374 29.6217 15.1254 30.0362 15.2383C30.4506 15.352 30.8561 15.4896 31.2527 15.652C31.6494 15.8144 32.0335 15.9999 32.4053 16.2085V18.1719H27.5345C27.4207 18.1719 27.3104 18.1924 27.2055 18.2343C27.1005 18.2762 27.0072 18.336 26.9262 18.4138C26.8462 18.4916 26.784 18.5805 26.7404 18.6822C26.6968 18.7831 26.6746 18.8882 26.6746 18.9985V21.4782H21.8029C21.6891 21.4782 21.5788 21.4987 21.4739 21.5415C21.3681 21.5834 21.2756 21.6423 21.1946 21.7201C21.1146 21.7979 21.0524 21.8868 21.0088 21.9885C20.9652 22.0894 20.943 22.1954 20.943 22.3048V24.7845H16.9366C16.9358 24.0067 17.0291 23.2391 17.2159 22.4817C17.4026 21.7244 17.6774 20.9987 18.0421 20.3029C18.0936 20.2054 18.1239 20.102 18.1328 19.9926C18.1417 19.884 18.1292 19.7772 18.0936 19.6729C18.0589 19.5686 18.0038 19.4746 17.93 19.3908C17.8562 19.3079 17.7681 19.2412 17.6668 19.1917C17.5654 19.1412 17.4578 19.1122 17.3439 19.1036C17.231 19.0951 17.1198 19.107 17.0113 19.1412C16.9028 19.1746 16.805 19.2267 16.7188 19.2985C16.6316 19.3695 16.5622 19.4532 16.5107 19.5507C16.0224 20.4909 15.672 21.4757 15.4595 22.5057C15.2461 23.5357 15.1785 24.5751 15.2567 25.6231C15.6747 31.5681 21.2418 36.4908 27.555 36.3438C33.9562 36.1942 39.3276 30.9014 39.2832 24.7845C39.2698 23.0527 39.2672 19.9738 39.269 16.8367C39.6878 17.4163 40.0595 18.024 40.3824 18.6583C40.7061 19.2917 40.9773 19.9464 41.197 20.62C41.4175 21.2936 41.5829 21.98 41.6941 22.6783C41.8053 23.3758 41.8613 24.0785 41.8622 24.7845C41.8622 32.534 35.3071 38.8372 27.2473 38.8372Z" fill="#0FA1EF"/>
<path d="M20.294 17.326C20.294 17.4467 20.2702 17.5636 20.2216 17.6749C20.1731 17.7862 20.1038 17.8852 20.0136 17.971C19.9244 18.0559 19.8204 18.1219 19.7035 18.1681C19.5856 18.2143 19.4637 18.2379 19.3369 18.2379C19.2101 18.2379 19.0873 18.2143 18.9704 18.1681C18.8525 18.1219 18.7494 18.0559 18.6593 17.971C18.5701 17.8852 18.5008 17.7862 18.4522 17.6749C18.4037 17.5636 18.3789 17.4467 18.3789 17.326C18.3789 17.2053 18.4037 17.0883 18.4522 16.9771C18.5008 16.8648 18.5701 16.7668 18.6593 16.6809C18.7494 16.5951 18.8525 16.5301 18.9704 16.4829C19.0873 16.4367 19.2101 16.4141 19.3369 16.4141C19.4637 16.4141 19.5856 16.4367 19.7035 16.4829C19.8204 16.5301 19.9244 16.5951 20.0136 16.6809C20.1038 16.7668 20.1731 16.8648 20.2216 16.9771C20.2702 17.0883 20.294 17.2053 20.294 17.326Z" fill="#0FA1EF"/>
</svg>
