<svg width="50" height="50" viewBox="0 0 50 50" fill="none" xmlns="http://www.w3.org/2000/svg">
<mask id="mask0_643_3108" style="mask-type:luminance" maskUnits="userSpaceOnUse" x="0" y="0" width="50" height="48">
<path d="M0.940796 0H50.0001V47.3899H0.940796V0Z" fill="white"/>
</mask>
<g mask="url(#mask0_643_3108)">
<path d="M32.4944 42.5056L33.5369 43.5481H28.0589C35.2623 40.4706 40.3222 33.3155 40.3222 25C40.3222 22.4255 39.7946 19.9724 38.842 17.7423H43.5481C44.438 17.7423 45.1615 17.0187 45.1615 16.1289V6.45189C45.1615 5.56206 44.438 4.83849 43.5481 4.83849H41.9356C41.0458 4.83849 40.3222 5.56206 40.3222 6.45189V16.1289H38.7096V9.64899C38.7096 8.76001 37.9861 8.03644 37.0971 8.03644H35.4837C34.5947 8.03644 33.8712 8.76001 33.8712 9.64899V10.9562C32.5742 9.83815 31.1236 8.89573 29.5518 8.16708C30.8759 4.27779 34.5464 1.6134 38.7096 1.6134C44.0461 1.6134 48.3866 5.95396 48.3866 11.2904C48.3866 14.9362 46.3245 18.2436 43.1461 19.8875L43.5066 18.8043L41.9771 18.2936L40.9753 21.2973L43.9078 23.2526L44.8027 21.9106L43.9036 21.3118C47.6011 19.3904 50 15.5376 50 11.2904C50 5.06498 44.935 0 38.7096 0C33.8881 0 29.629 3.06308 28.0563 7.54954C26.0934 6.84039 23.9779 6.45189 21.7741 6.45189C11.5457 6.45189 3.22597 14.7725 3.22597 25V29.5051L2.18261 28.4626L1.04254 29.6027L4.03182 32.592L7.02194 29.6027L5.88103 28.4626L4.83852 29.5051V25C4.83852 15.6615 12.4364 8.06444 21.7741 8.06444C31.1118 8.06444 38.7096 15.6615 38.7096 25C38.7096 35.2275 30.3899 43.5481 20.1615 43.5481H12.9029V45.1615H33.5369L32.4944 46.204L33.6345 47.3441L36.6238 44.3548L33.6345 41.3655L32.4944 42.5056ZM41.9356 6.45189H43.5481V16.1289H41.9356V6.45189ZM37.0971 9.64899V14.5613C36.6068 13.8437 36.0673 13.1608 35.4837 12.5204V9.64899H37.0971Z" fill="#0FA1EF"/>
</g>
<path d="M21.774 32.2585C25.7761 32.2585 29.0317 29.002 29.0317 24.9999C29.0317 20.9987 25.7761 17.7422 21.774 17.7422C17.7719 17.7422 14.5162 20.9987 14.5162 24.9999C14.5162 29.002 17.7719 32.2585 21.774 32.2585ZM21.774 19.3547C24.8862 19.3547 27.4192 21.8868 27.4192 24.9999C27.4192 28.113 24.8862 30.6451 21.774 30.6451C18.6617 30.6451 16.1288 28.113 16.1288 24.9999C16.1288 21.8868 18.6617 19.3547 21.774 19.3547Z" fill="#0FA1EF"/>
<path d="M21.774 29.0327C23.9973 29.0327 25.8067 27.2234 25.8067 25.0001C25.8067 22.7768 23.9973 20.9683 21.774 20.9683C19.5507 20.9683 17.7422 22.7768 17.7422 25.0001C17.7422 27.2234 19.5507 29.0327 21.774 29.0327ZM21.774 22.5808C23.1084 22.5808 24.1933 23.6666 24.1933 25.0001C24.1933 26.3344 23.1084 27.4193 21.774 27.4193C20.4406 27.4193 19.3548 26.3344 19.3548 25.0001C19.3548 23.6666 20.4406 22.5808 21.774 22.5808Z" fill="#0FA1EF"/>
<path d="M12.0394 21.7741H9.677V28.226H12.0394C12.539 28.226 12.7358 28.6077 12.785 28.7248C12.8342 28.841 12.964 29.249 12.6094 29.6027L10.9401 31.2729L15.5012 35.8349L17.1714 34.1647C17.5251 33.8118 17.934 33.9424 18.0511 33.9899C18.1673 34.0383 18.5481 34.2351 18.5481 34.7347V37.0971H25V34.7347C25 34.2351 25.3817 34.0383 25.4971 33.9899C25.6142 33.9407 26.023 33.8109 26.3767 34.1647L28.047 35.8349L32.6081 31.2729L30.9387 29.6019C30.5858 29.2481 30.7156 28.8401 30.7631 28.7239C30.8123 28.6077 31.0091 28.226 31.5087 28.226H33.8711V21.7741H31.5087C31.0091 21.7741 30.8123 21.3932 30.7631 21.2762C30.7148 21.1591 30.585 20.7511 30.9387 20.3974L32.6081 18.728L28.047 14.1652L26.3767 15.8354C26.0239 16.1891 25.615 16.0593 25.4971 16.011C25.3817 15.9626 25 15.7658 25 15.2654V12.9038H18.5481V15.2654C18.5481 15.7658 18.1673 15.9626 18.0511 16.011C17.9331 16.0593 17.5243 16.1891 17.1714 15.8354L15.5012 14.1652L10.9401 18.728L12.6094 20.3982C12.9632 20.7519 12.8334 21.16 12.785 21.277C12.7358 21.3932 12.539 21.7741 12.0394 21.7741ZM13.7504 19.2573L13.221 18.728L15.5012 16.4462L16.0313 16.9763C16.7362 17.6812 17.7465 17.8831 18.6686 17.5005C19.589 17.1197 20.1615 16.2629 20.1615 15.2654V14.5164H23.3866V15.2654C23.3866 16.2621 23.9592 17.1188 24.8804 17.5005C25.805 17.8831 26.8128 17.6812 27.5177 16.9763L28.0478 16.4462L30.328 18.728L29.7995 19.2573C29.0946 19.9622 28.8927 20.9725 29.2744 21.8937C29.6544 22.8149 30.5112 23.3875 31.5087 23.3875H32.2578V26.6134H31.5087C30.5112 26.6134 29.6544 27.186 29.2736 28.1072C28.8918 29.0284 29.0937 30.0387 29.7986 30.7436L30.3271 31.2738L28.047 33.5548L27.5168 33.0255C26.8128 32.3205 25.8042 32.1187 24.8796 32.5012C23.9592 32.8804 23.3866 33.7371 23.3866 34.7347V35.4837H20.1615V34.7347C20.1615 33.738 19.589 32.8813 18.6677 32.5004C17.7457 32.1178 16.7354 32.3205 16.0305 33.0246L15.5012 33.5539L13.2202 31.2729L13.7495 30.7428C14.4536 30.0379 14.6555 29.0276 14.2737 28.1064C13.8937 27.186 13.037 26.6134 12.0394 26.6134H11.2904V23.3875H12.0394C13.037 23.3875 13.8937 22.8149 14.2746 21.8929C14.6563 20.9716 14.4544 19.9614 13.7504 19.2573Z" fill="#0FA1EF"/>
<mask id="mask1_643_3108" style="mask-type:luminance" maskUnits="userSpaceOnUse" x="1" y="0" width="6" height="6">
<path d="M1.59222 0H6.58679V5.04462H1.59222V0Z" fill="white"/>
</mask>
<g mask="url(#mask1_643_3108)">
<path d="M3.22594 4.83849H4.83849C5.72832 4.83849 6.45189 4.11577 6.45189 3.22594V1.6134C6.45189 0.723568 5.72832 0 4.83849 0H3.22594C2.33612 0 1.61255 0.723568 1.61255 1.6134V3.22594C1.61255 4.11577 2.33612 4.83849 3.22594 4.83849ZM3.22594 1.6134H4.83849L4.83934 3.22594H3.22594V1.6134Z" fill="#0FA1EF"/>
</g>
<mask id="mask2_643_3108" style="mask-type:luminance" maskUnits="userSpaceOnUse" x="7" y="0" width="7" height="6">
<path d="M7.88965 0H13.1014V5.04462H7.88965V0Z" fill="white"/>
</mask>
<g mask="url(#mask2_643_3108)">
<path d="M9.67694 4.83849H11.2903C12.1793 4.83849 12.9029 4.11577 12.9029 3.22594V1.6134C12.9029 0.723568 12.1793 0 11.2903 0H9.67694C8.78796 0 8.06439 0.723568 8.06439 1.6134V3.22594C8.06439 4.11577 8.78796 4.83849 9.67694 4.83849ZM9.67694 1.6134H11.2903L11.2912 3.22594H9.67694V1.6134Z" fill="#0FA1EF"/>
</g>
<mask id="mask3_643_3108" style="mask-type:luminance" maskUnits="userSpaceOnUse" x="14" y="0" width="6" height="6">
<path d="M14.4043 0H19.3989V5.04462H14.4043V0Z" fill="white"/>
</mask>
<g mask="url(#mask3_643_3108)">
<path d="M16.1288 4.83849H17.7422C18.6312 4.83849 19.3547 4.11577 19.3547 3.22594V1.6134C19.3547 0.723568 18.6312 0 17.7422 0H16.1288C15.239 0 14.5162 0.723568 14.5162 1.6134V3.22594C14.5162 4.11577 15.239 4.83849 16.1288 4.83849ZM16.1288 1.6134H17.7422V3.22594H16.1288V1.6134Z" fill="#0FA1EF"/>
</g>
<mask id="mask4_643_3108" style="mask-type:luminance" maskUnits="userSpaceOnUse" x="36" y="36" width="14" height="14">
<path d="M36.9885 36.9666H50V50.0001H36.9885V36.9666Z" fill="white"/>
</mask>
<g mask="url(#mask4_643_3108)">
<path d="M48.3866 37.0972H38.7096C37.8198 37.0972 37.097 37.8207 37.097 38.7097V48.3875C37.097 49.2765 37.8198 50.0001 38.7096 50.0001H48.3866C49.2764 50.0001 50 49.2765 50 48.3875V38.7097C50 37.8207 49.2764 37.0972 48.3866 37.0972ZM44.3548 48.3875V43.5482H42.7422V48.3875H38.7096V38.7097H42.7422V41.9357H44.3548V38.7097H48.3866L48.3874 48.3875H44.3548Z" fill="#0FA1EF"/>
</g>
<mask id="mask5_643_3108" style="mask-type:luminance" maskUnits="userSpaceOnUse" x="0" y="34" width="12" height="16">
<path d="M0 34.5776H11.3642V49.9999H0V34.5776Z" fill="white"/>
</mask>
<g mask="url(#mask5_643_3108)">
<path d="M9.67698 34.6777H3.55931C3.13518 34.6777 2.71953 34.8491 2.41924 35.1502L0.472482 37.097C0.167956 37.4015 0 37.8061 0 38.237V48.3874C0 49.2763 0.723568 49.9999 1.61255 49.9999H9.67698C10.5668 49.9999 11.2904 49.2763 11.2904 48.3874V36.2903C11.2904 35.4005 10.5668 34.6777 9.67698 34.6777ZM3.22594 36.6245V37.9037H1.94676L3.22594 36.6245ZM9.67698 48.3874H1.61255V39.5162H3.22594C4.11492 39.5162 4.83849 38.7927 4.83849 37.9037V36.2903H9.67698V48.3874Z" fill="#0FA1EF"/>
<path d="M3.22601 41.1289H8.0645V42.7423H3.22601V41.1289Z" fill="#0FA1EF"/>
<path d="M3.22601 44.3547H8.0645V45.9681H3.22601V44.3547Z" fill="#0FA1EF"/>
<path d="M6.45184 37.9036H8.06439V39.5161H6.45184V37.9036Z" fill="#0FA1EF"/>
</g>
</svg>
