<svg width="50" height="50" viewBox="0 0 50 50" fill="none" xmlns="http://www.w3.org/2000/svg">
<path d="M43.6481 37.9665H41.3536C41.517 37.7307 41.6856 37.4949 41.8214 37.2506C42.1568 36.6407 42.3839 36.0028 42.5344 35.3514C42.9377 35.0892 43.3135 34.789 43.6532 34.453C44.9432 33.179 45.7413 31.4231 45.7413 29.4856C45.7413 27.5465 44.9432 25.7889 43.6524 24.5165C42.3632 23.245 40.5822 22.4578 38.6188 22.4578C37.7597 22.4578 36.9401 22.6155 36.1773 22.8904C35.9098 21.8793 35.393 20.9657 34.6955 20.2175C34.693 20.2141 34.6912 20.2107 34.6878 20.2065C34.65 20.1666 34.6061 20.1301 34.5683 20.092C34.4909 20.0139 34.4178 19.9342 34.3369 19.8604C34.3154 19.8417 34.2922 19.8239 34.2707 19.8053C34.2114 19.7518 34.1477 19.7026 34.0858 19.6517C33.9895 19.572 33.8906 19.4931 33.7891 19.4193C33.7194 19.3692 33.6498 19.32 33.5793 19.2725C33.4778 19.2055 33.3755 19.1402 33.2714 19.0774C33.1966 19.0342 33.1217 18.9901 33.0444 18.9502C32.9343 18.8917 32.8216 18.8365 32.7072 18.7831C32.6591 18.7602 32.6152 18.7339 32.5671 18.7127C32.5387 18.7 32.5094 18.6932 32.4828 18.6813C32.3667 18.633 32.2463 18.5905 32.1267 18.5481C32.0536 18.5227 31.9814 18.4955 31.9066 18.4718C31.7759 18.4319 31.6434 18.3988 31.5101 18.3666C31.4405 18.3505 31.3725 18.3301 31.302 18.3166C31.1567 18.2869 31.007 18.2665 30.8574 18.247C30.7972 18.2394 30.7361 18.2266 30.6751 18.2207C30.4635 18.1995 30.2494 18.1868 30.0327 18.1868H19.9725C19.9716 18.1868 19.9699 18.1868 19.969 18.1868C19.7532 18.1868 19.5408 18.1995 19.3301 18.2207C19.2578 18.2275 19.1882 18.2419 19.1159 18.2512C18.9783 18.2707 18.8416 18.2894 18.7057 18.3166C18.6197 18.3344 18.5371 18.3581 18.4529 18.3776C18.3359 18.4065 18.2189 18.4353 18.1054 18.4701C18.0125 18.4989 17.9231 18.5312 17.8328 18.5642C17.733 18.6007 17.6316 18.6363 17.5335 18.6762C17.4983 18.6915 17.4604 18.7025 17.4252 18.7178C17.3667 18.7432 17.3125 18.7755 17.2549 18.8026C17.1611 18.8467 17.0691 18.8925 16.9788 18.94C16.8825 18.9918 16.7879 19.0452 16.6942 19.1012C16.6142 19.1487 16.5368 19.1987 16.4594 19.2505C16.3631 19.3141 16.2668 19.3794 16.173 19.4481C16.1059 19.4982 16.0432 19.5499 15.9769 19.6025C15.8823 19.6789 15.786 19.7552 15.6957 19.8375C15.6871 19.8451 15.6768 19.8528 15.6682 19.8612C15.6235 19.902 15.5839 19.9469 15.5401 19.9893C15.4584 20.0682 15.3741 20.1412 15.2967 20.2243C15.2915 20.2294 15.2907 20.2362 15.2855 20.243C14.5975 20.9869 14.0893 21.8928 13.8261 22.8929C13.0633 22.6181 12.2437 22.4595 11.3846 22.4595C9.44272 22.4595 7.68145 23.228 6.39576 24.4741L6.34761 24.5182C5.05934 25.7889 4.2604 27.5465 4.2604 29.4865C4.2604 31.4001 5.03956 33.1382 6.30289 34.4081L6.34761 34.4556C6.68816 34.7915 7.0657 35.0918 7.46817 35.3539C7.61953 36.0054 7.84485 36.6424 8.18025 37.2515C8.31613 37.4966 8.48297 37.7316 8.64637 37.9674H6.35362C4.63192 37.9674 3.06329 38.6553 1.91434 39.764L1.86618 39.8081C0.714654 40.9431 0 42.5107 0 44.2352V49.2052C0 49.6437 0.361197 50 0.805813 50H21.9608C22.4054 50 22.7666 49.6437 22.7666 49.2052V44.4116C22.9816 44.4278 23.1906 44.4515 23.4099 44.4625C23.9594 44.4914 24.49 44.5066 25.0008 44.5066C25.5117 44.5066 26.0423 44.4914 26.5918 44.4625C26.8103 44.4515 27.0192 44.4278 27.2342 44.4116V49.2052C27.2342 49.6437 27.5954 50 28.0401 50H49.195C49.6396 50 50 49.6437 50 49.2052V44.2352C50 42.5107 49.2862 40.9431 48.1346 39.8081C46.9848 38.6715 45.3964 37.9665 43.6481 37.9665ZM42.518 25.6413C43.513 26.6227 44.1279 27.9825 44.1279 29.4865C44.1279 30.9904 43.513 32.3494 42.5172 33.3299H42.5129C42.1663 33.6726 41.7707 33.9653 41.3416 34.2079C41.1919 34.2919 41.0388 34.3682 40.8823 34.4378C40.8075 34.4717 40.7327 34.5031 40.6561 34.5345C40.5014 34.5956 40.3431 34.6507 40.1832 34.6965C40.0894 34.7245 39.9948 34.7465 39.8994 34.7694C39.779 34.7974 39.656 34.8212 39.5304 34.8424C39.4461 34.8568 39.3627 34.8712 39.2759 34.8814C39.0609 34.9069 38.8416 34.9238 38.6162 34.9238C37.0949 34.9238 35.7164 34.3156 34.7196 33.3316L34.6973 33.3113C34.6371 33.2502 34.5794 33.184 34.5218 33.1204C34.4633 33.0568 34.4023 32.994 34.3464 32.9262C34.2896 32.8575 34.2389 32.7837 34.1847 32.7124C34.134 32.6454 34.0806 32.5801 34.0342 32.5105C33.9835 32.435 33.9379 32.3553 33.8906 32.2764C33.8476 32.2052 33.802 32.1364 33.7624 32.0643C33.7169 31.9804 33.679 31.893 33.6369 31.8082C33.6033 31.7352 33.5646 31.6665 33.5337 31.5927C33.4941 31.5002 33.4623 31.4052 33.4296 31.3102C33.4038 31.239 33.3737 31.1694 33.3514 31.0956C33.3204 30.9964 33.298 30.8954 33.2723 30.7953C33.2551 30.7232 33.2318 30.652 33.2164 30.5765C33.194 30.4637 33.1802 30.3492 33.1639 30.2338C33.1544 30.1693 33.1407 30.1057 33.1347 30.0387C33.1175 29.8843 33.1132 29.7257 33.1106 29.5662C33.1106 29.5391 33.1063 29.5145 33.1063 29.4865V29.4856C33.1063 29.1828 33.1381 28.8893 33.1862 28.6C33.194 28.5576 33.1974 28.5144 33.2069 28.4719C33.2585 28.2005 33.3333 27.9375 33.4227 27.6831C33.4399 27.6356 33.4571 27.5864 33.4761 27.5389C33.5793 27.2767 33.6997 27.024 33.839 26.7831C33.8605 26.7457 33.8846 26.7093 33.9069 26.6719C34.0557 26.4302 34.2191 26.1995 34.4023 25.984C34.5038 25.8652 34.6078 25.7507 34.7179 25.6404H34.7213C35.7189 24.6565 37.0975 24.0474 38.6188 24.0474C40.1427 24.0491 41.5213 24.6582 42.518 25.6413ZM16.5987 21.193C16.7406 21.0505 16.8946 20.919 17.0537 20.7943C17.1388 20.729 17.2196 20.6603 17.3082 20.6001C17.4854 20.4805 17.6754 20.3787 17.8698 20.2837C17.9584 20.2404 18.0435 20.1887 18.1347 20.1505C18.3282 20.0691 18.5337 20.0131 18.7384 19.9579C18.8338 19.9325 18.9241 19.8952 19.0213 19.8757C19.3266 19.8137 19.6422 19.7781 19.9647 19.7781C19.9664 19.7781 19.969 19.7781 19.9699 19.7781H30.0301C30.3552 19.7781 30.6699 19.8137 30.9752 19.8757C31.0818 19.8969 31.1799 19.9367 31.2822 19.9639C31.4774 20.0182 31.6727 20.0699 31.8558 20.1463C31.9565 20.1878 32.0476 20.2438 32.1439 20.2913C32.3271 20.3829 32.5086 20.4779 32.678 20.5916C32.776 20.6569 32.8646 20.7316 32.9566 20.8028C33.1063 20.919 33.2508 21.0412 33.384 21.1743C34.0462 21.8343 34.5029 22.6843 34.6758 23.6352C34.2819 23.8939 33.9147 24.1899 33.5818 24.519C33.575 24.525 33.5689 24.5326 33.5629 24.5403C32.3512 24.1407 31.0689 23.8082 29.7084 23.5868C28.2026 23.34 26.6228 23.2093 25 23.2093C23.3772 23.2093 21.7974 23.34 20.2907 23.5868C18.9302 23.8091 17.6479 24.1407 16.437 24.5394C16.4302 24.5318 16.4241 24.5241 16.4164 24.5182C16.0836 24.1891 15.7172 23.8956 15.3233 23.6369C15.4953 22.6944 15.9451 21.8504 16.5987 21.193ZM5.87375 29.4856C5.87375 27.9842 6.49036 26.6244 7.48796 25.6404L7.52579 25.6006C8.51995 24.6403 9.88217 24.0474 11.3854 24.0474C12.9102 24.0474 14.2879 24.6565 15.2864 25.6404C15.3956 25.7482 15.4971 25.8618 15.5968 25.9764C15.7834 26.1944 15.9494 26.4276 16.0999 26.6728C16.1214 26.7076 16.1438 26.7432 16.1644 26.7788C16.3055 27.0206 16.425 27.2742 16.5282 27.538C16.5454 27.5838 16.5635 27.6313 16.5798 27.6788C16.671 27.9341 16.7458 28.198 16.7982 28.4703C16.8051 28.5118 16.8103 28.5542 16.8172 28.5966C16.8653 28.8851 16.8963 29.1819 16.8963 29.4839C16.8963 30.9879 16.2814 32.3468 15.2864 33.3282C14.2896 34.3114 12.9102 34.9204 11.3872 34.9204C11.1618 34.9204 10.9434 34.9026 10.7267 34.878C10.6407 34.8678 10.5555 34.8526 10.4713 34.839C10.3466 34.8195 10.2245 34.794 10.1041 34.7669C10.0086 34.744 9.91227 34.7219 9.81853 34.694C9.65772 34.6465 9.50034 34.593 9.34468 34.5302C9.269 34.5005 9.19418 34.4675 9.11936 34.4352C8.96456 34.3657 8.81234 34.2902 8.66442 34.2079C8.23357 33.9653 7.83711 33.6718 7.48967 33.3291L7.44926 33.2918C6.47316 32.3137 5.87375 30.9701 5.87375 29.4856ZM21.155 48.4087H1.61335V44.2352C1.61335 42.9501 2.14654 41.7803 3.00653 40.9329L3.04437 40.8931C3.89835 40.0694 5.06794 39.5587 6.35362 39.5587H16.4155C16.7286 39.5587 17.0347 39.5927 17.3314 39.6512C17.4277 39.6707 17.5163 39.7055 17.6101 39.7301C17.8061 39.7818 18.0031 39.8344 18.1888 39.9091C18.2929 39.9515 18.3892 40.0066 18.4907 40.055C18.655 40.1356 18.8184 40.2161 18.9706 40.3137C19.0695 40.3765 19.1606 40.4503 19.2544 40.5207C19.3937 40.6242 19.5322 40.7319 19.6586 40.8506C19.7609 40.9465 19.8572 41.0491 19.951 41.1526C20.0524 41.2663 20.1505 41.3825 20.2399 41.5063C20.3173 41.6107 20.3878 41.7176 20.4566 41.8278C20.5426 41.9686 20.6218 42.1137 20.6931 42.2638C20.7439 42.3707 20.7938 42.4776 20.8368 42.5887C20.9013 42.7567 20.952 42.9289 20.9976 43.1053C21.0251 43.213 21.0543 43.3199 21.0733 43.4302C21.1206 43.694 21.1558 43.9612 21.1558 44.2377V48.4087H21.155ZM26.511 42.8788C26.0414 42.9043 25.5366 42.9162 25.0008 42.9162C24.4659 42.9162 23.962 42.9043 23.4924 42.8788C23.1931 42.8627 22.8956 42.8432 22.5989 42.8169C22.5954 42.7991 22.586 42.783 22.5825 42.7643C22.5077 42.4615 22.4148 42.1654 22.297 41.8804C22.2962 41.8787 22.2962 41.8762 22.2962 41.8753C22.1818 41.6005 22.045 41.3392 21.8937 41.0856C21.8644 41.0364 21.8361 40.9889 21.806 40.9414C21.6555 40.703 21.4921 40.4732 21.3115 40.2577C21.2805 40.2187 21.2444 40.1839 21.2117 40.1466C21.1257 40.0482 21.0406 39.9481 20.9486 39.8556L20.9038 39.8081C20.8307 39.7352 20.7508 39.6707 20.6734 39.6011C20.6501 39.5799 20.6312 39.5553 20.6071 39.535C20.5831 39.5138 20.5564 39.4951 20.5315 39.4756C20.4592 39.4154 20.3861 39.3577 20.3113 39.3C20.2313 39.2389 20.1496 39.1779 20.0679 39.1202C19.9905 39.0667 19.9123 39.015 19.8323 38.9641C19.7463 38.909 19.6586 38.8564 19.57 38.8063C19.4892 38.7605 19.4075 38.7156 19.324 38.6731C19.2303 38.6256 19.1366 38.5807 19.0402 38.5374C18.9568 38.5001 18.8734 38.4628 18.7883 38.428C18.6868 38.3881 18.5827 38.3517 18.4787 38.3152C18.3952 38.2863 18.3118 38.2567 18.2267 38.2312C18.114 38.1981 18.0005 38.1718 17.8853 38.1438C17.8036 38.1252 17.7236 38.1031 17.6419 38.0878C17.512 38.0624 17.3796 38.0454 17.248 38.0276C17.1766 38.0191 17.1087 38.0056 17.0373 37.9988C16.8335 37.9793 16.6254 37.9674 16.4164 37.9674H10.6673C10.2339 37.4966 9.87271 37.0029 9.5915 36.494L9.46508 36.2531L9.50206 36.2624C9.52872 36.27 9.55796 36.2726 9.58462 36.2794C9.82369 36.3404 10.0671 36.3905 10.3165 36.427C10.3784 36.4354 10.4394 36.4465 10.5014 36.4541C10.7912 36.4889 11.0853 36.5143 11.3854 36.5143C13.3505 36.5143 15.1307 35.7263 16.419 34.4556C17.7098 33.1815 18.5079 31.4239 18.5079 29.4865C18.5079 29.2591 18.4959 29.0326 18.4744 28.8104C18.4666 28.7315 18.4529 28.6543 18.4425 28.5763C18.4236 28.4338 18.4047 28.293 18.3763 28.1538C18.3583 28.0631 18.3359 27.9732 18.3144 27.8824C18.2852 27.7594 18.2551 27.6364 18.2181 27.5151C18.1906 27.4226 18.1613 27.3327 18.1295 27.2428C18.1089 27.1817 18.0925 27.119 18.0702 27.0587C18.0512 27.0078 18.0254 26.9603 18.0065 26.9103C17.9635 26.8043 17.9188 26.6991 17.8706 26.5964C17.8242 26.4938 17.7743 26.3929 17.7227 26.2928C17.6711 26.1927 17.6178 26.0951 17.5602 25.9976C17.5335 25.9518 17.5112 25.9017 17.4819 25.8551C18.4503 25.5641 19.4771 25.3274 20.5512 25.1527C21.9582 24.9228 23.4511 24.8007 25.0034 24.8007C26.5557 24.8007 28.0478 24.9237 29.4556 25.1527C30.5297 25.3274 31.5574 25.565 32.5249 25.8551C32.4974 25.9017 32.4742 25.9518 32.4467 25.9976C32.389 26.0943 32.3366 26.1927 32.2841 26.2928C32.2325 26.3929 32.1826 26.4938 32.1345 26.5981C32.0863 26.7016 32.0425 26.8068 31.9995 26.9128C31.9788 26.9629 31.9547 27.0104 31.9358 27.0604C31.9135 27.1207 31.898 27.1826 31.8765 27.2428C31.8447 27.3344 31.8146 27.4243 31.7879 27.5177C31.7518 27.6381 31.7217 27.7603 31.6924 27.8824C31.6709 27.974 31.6486 28.0639 31.6305 28.1555C31.6039 28.2938 31.5841 28.4355 31.5643 28.5763C31.5548 28.6552 31.5402 28.7332 31.5333 28.813C31.5118 29.0318 31.4989 29.254 31.4989 29.478C31.4989 29.4814 31.4989 29.4839 31.4989 29.4882C31.4989 29.7291 31.5118 29.9666 31.5359 30.2016C31.5428 30.2754 31.5583 30.3449 31.5686 30.4179C31.5901 30.5782 31.6099 30.7377 31.6417 30.8937C31.6623 30.9904 31.6916 31.0829 31.7157 31.1779C31.7483 31.3068 31.7759 31.4366 31.8154 31.563C31.8481 31.669 31.8911 31.77 31.9298 31.8743C31.9702 31.9838 32.0055 32.0966 32.0528 32.2026C32.1018 32.318 32.1603 32.4274 32.2145 32.5402C32.2592 32.6301 32.2996 32.7243 32.3478 32.8117C32.4157 32.938 32.4948 33.0577 32.5705 33.179C32.6135 33.2477 32.6531 33.3189 32.6969 33.3851C32.7898 33.5225 32.8921 33.654 32.9953 33.7838C33.0306 33.8287 33.0624 33.8762 33.0977 33.9203C33.2215 34.0705 33.3531 34.213 33.489 34.353C33.507 34.3716 33.5216 34.392 33.5397 34.4089L33.5844 34.4564C34.8727 35.728 36.6537 36.5152 38.6197 36.5152C38.6214 36.5152 38.6223 36.5152 38.624 36.5152C38.9224 36.5152 39.2139 36.4914 39.5029 36.4549C39.5665 36.4482 39.6267 36.4363 39.6895 36.427C39.9363 36.3905 40.1797 36.3404 40.4179 36.2794C40.4454 36.2717 40.4747 36.2692 40.5014 36.2615L40.5383 36.2514L40.411 36.4931C40.1298 37.0029 39.7686 37.4949 39.3361 37.9665H33.5879C33.5879 37.9665 33.5879 37.9665 33.587 37.9665C33.3789 37.9665 33.1725 37.9776 32.9695 37.9962C32.9076 38.003 32.8466 38.014 32.7846 38.0225C32.6445 38.0403 32.5034 38.059 32.365 38.0853C32.297 38.0989 32.2308 38.1167 32.1629 38.1328C32.033 38.1625 31.904 38.193 31.7776 38.2304C31.7114 38.2507 31.6469 38.2745 31.5815 38.2957C31.4568 38.3364 31.333 38.3788 31.2126 38.428C31.1506 38.4526 31.0896 38.4806 31.0277 38.5077C30.9073 38.5603 30.7869 38.6155 30.6699 38.6757C30.6123 38.7054 30.5564 38.7368 30.4996 38.7682C30.3827 38.8326 30.2683 38.8988 30.1556 38.97C30.1023 39.004 30.0524 39.0387 30 39.0744C29.8882 39.1507 29.7798 39.2288 29.6732 39.3119C29.625 39.3492 29.5786 39.3865 29.5304 39.4256C29.4848 39.4629 29.4367 39.4968 29.3928 39.535C29.3627 39.563 29.3378 39.5952 29.3068 39.6232C29.2535 39.6707 29.1967 39.7157 29.146 39.764L29.0978 39.8081C28.968 39.9362 28.8459 40.0719 28.7272 40.2102C28.722 40.2161 28.7169 40.2212 28.7117 40.228C28.5191 40.4537 28.3479 40.698 28.1897 40.9499C28.1656 40.9889 28.1415 41.0279 28.1175 41.0669C27.9627 41.3257 27.8233 41.5929 27.7072 41.8736C27.7047 41.8787 27.7029 41.8838 27.7021 41.8889C27.5843 42.1756 27.4905 42.4717 27.4157 42.7762C27.4114 42.7906 27.4054 42.8025 27.4028 42.8169C27.1061 42.8415 26.8085 42.8627 26.511 42.8788ZM48.3901 48.4087H28.8476V44.2352C28.8476 43.9612 28.8828 43.6966 28.9293 43.4353C28.9499 43.3242 28.9766 43.2164 29.0032 43.1079C29.0488 42.9263 29.1047 42.7491 29.1718 42.5769C29.2131 42.47 29.2578 42.3665 29.3068 42.2638C29.3842 42.1027 29.4702 41.9474 29.564 41.7981C29.6276 41.6981 29.6912 41.598 29.7618 41.503C29.8632 41.3638 29.9759 41.2349 30.0911 41.1094C30.1849 41.0076 30.276 40.9041 30.3792 40.8116C30.4893 40.7107 30.6106 40.6216 30.7301 40.5317C30.8385 40.4494 30.9451 40.3629 31.0621 40.2899C31.1962 40.2068 31.3416 40.1381 31.4852 40.0668C31.6013 40.0092 31.7131 39.9455 31.8335 39.8963C32.0055 39.8276 32.1878 39.7818 32.3701 39.7343C32.4742 39.7063 32.5731 39.6682 32.6797 39.647C32.9738 39.5901 33.2766 39.5562 33.587 39.5562H43.6481C44.9509 39.5562 46.136 40.083 46.9969 40.9312C47.8551 41.7795 48.3901 42.9492 48.3901 44.2344V48.4087Z" fill="#0FA1EF"/>
<path d="M25.0009 16.7336C26.9427 16.7336 28.704 15.9651 29.9897 14.7198L30.0378 14.6765C31.3261 13.405 32.125 11.6474 32.125 9.70743C32.125 7.79375 31.3459 6.0565 30.0826 4.78666L30.0378 4.73915C28.7496 3.46761 26.9685 2.68042 25.0009 2.68042C23.059 2.68042 21.2977 3.44895 20.012 4.69504L19.9639 4.73915C18.6756 6.00985 17.8775 7.76745 17.8775 9.70743C17.8775 11.6466 18.6756 13.4025 19.9665 14.6765C21.2565 15.9464 23.0358 16.7336 25.0009 16.7336ZM21.1042 5.8614L21.1421 5.82154C22.1354 4.8613 23.4985 4.26922 25.0009 4.26922C26.5222 4.26922 27.9008 4.87742 28.8975 5.8614L28.9388 5.89873C29.9114 6.87762 30.5117 8.22127 30.5117 9.70488C30.5117 11.2063 29.8951 12.5661 28.8975 13.5501L28.8597 13.5899C27.8664 14.5502 26.5033 15.1431 25 15.1431C23.4752 15.1431 22.0958 14.534 21.0991 13.5501C20.1041 12.5686 19.4892 11.2088 19.4892 9.70658C19.49 8.20515 20.1066 6.84539 21.1042 5.8614Z" fill="#0FA1EF"/>
<path d="M3.14241 13.0352H6.86016C7.43464 14.3814 8.27313 15.4401 9.37908 16.2128C10.6114 17.0738 12.1551 17.5616 14.0041 17.6727C14.3008 17.6888 14.5949 17.5438 14.7506 17.2732C14.9699 16.8931 14.834 16.4079 14.4479 16.1916C13.6825 15.7641 13.0934 15.2204 12.6832 14.563C12.4028 14.1142 12.2007 13.6053 12.0777 13.0352H12.5112C13.3763 13.0352 14.1615 12.6866 14.73 12.1251C15.2993 11.5644 15.6527 10.7882 15.6527 9.9357V3.1004C15.6527 2.2462 15.2993 1.47174 14.73 0.910185C14.1624 0.349484 13.3763 0 12.512 0H3.14241C2.27812 0 1.49123 0.349484 0.922772 0.910185C0.353457 1.47174 0 2.24789 0 3.1004V9.9357C0 10.789 0.353457 11.5644 0.922772 12.1251C1.49123 12.6875 2.27812 13.0352 3.14241 13.0352ZM1.61335 3.1004C1.61335 2.68645 1.78534 2.30812 2.06312 2.03413C2.34004 1.76014 2.72274 1.59049 3.14241 1.59049H12.5112C12.93 1.59049 13.3135 1.76014 13.5913 2.03413C13.8691 2.30812 14.0411 2.6856 14.0411 3.0987V9.934C14.0411 10.348 13.8691 10.7263 13.5913 11.0003C13.3135 11.2743 12.9317 11.4439 12.5112 11.4439H11.1515C10.7069 11.4439 10.3457 11.8002 10.3457 12.2387L10.3534 12.3431C10.4498 13.5026 10.7723 14.5206 11.3184 15.3943L11.3932 15.5105C10.9993 15.3468 10.6355 15.1491 10.3062 14.9192C9.34124 14.244 8.62917 13.2626 8.17165 11.9766C8.05641 11.6492 7.74509 11.4439 7.41314 11.4414H3.14241C2.72274 11.4414 2.34004 11.2717 2.06312 10.9977C1.78534 10.7237 1.61335 10.3463 1.61335 9.93145V3.1004Z" fill="#0FA1EF"/>
<path d="M49.0789 5.21012C48.5105 4.64942 47.7236 4.30078 46.8602 4.30078H37.4897C36.6245 4.30078 35.8394 4.64942 35.27 5.21012C34.7016 5.77167 34.3481 6.54783 34.3481 7.40033V14.2356C34.3481 15.089 34.7016 15.8643 35.27 16.425C35.8394 16.9865 36.6262 17.3352 37.4897 17.3352H42.8251C42.6686 17.8916 42.457 18.393 42.1878 18.8391C41.7819 19.5101 41.2427 20.0725 40.5685 20.5255C40.2021 20.7706 40.1058 21.2626 40.3543 21.6257C40.5203 21.8683 40.7989 21.9904 41.075 21.9726C42.7821 21.8488 44.2269 21.3492 45.4119 20.4721C46.5024 19.6645 47.3538 18.5507 47.9644 17.1316C48.495 16.934 48.9577 16.598 49.306 16.1705C49.7394 15.6378 50 14.9626 50 14.2339V7.40203C50.0017 6.54783 49.6483 5.77167 49.0789 5.21012ZM48.3901 14.2356C48.3901 14.5927 48.2645 14.9202 48.0547 15.178C47.8466 15.4325 47.5602 15.62 47.2351 15.7014C46.9599 15.7455 46.7165 15.9288 46.6099 16.2027C46.1025 17.5142 45.381 18.5151 44.4505 19.2056C44.1538 19.4244 43.833 19.6145 43.4898 19.7739L43.5681 19.6475C44.0875 18.7883 44.4358 17.7992 44.6121 16.6863C44.6216 16.6388 44.6259 16.5904 44.6259 16.5404C44.6259 16.1018 44.2656 15.7455 43.8209 15.7455H37.4914C37.0717 15.7455 36.689 15.575 36.4121 15.3019C36.1343 15.0279 35.9623 14.6504 35.9623 14.2356V7.40203C35.9623 6.98808 36.1343 6.6106 36.4121 6.33661C36.689 6.06262 37.0717 5.89297 37.4914 5.89297H46.861C47.2807 5.89297 47.6634 6.06262 47.9403 6.33661C48.2181 6.6106 48.3901 6.98808 48.3901 7.40288V14.2356Z" fill="#0FA1EF"/>
<path d="M4.2088 5.45695H11.4465C11.8911 5.45695 12.2523 5.10068 12.2523 4.66128C12.2523 4.22273 11.8911 3.86646 11.4465 3.86646H4.2088C3.76418 3.86646 3.40299 4.22273 3.40299 4.66128C3.40213 5.10068 3.76332 5.45695 4.2088 5.45695Z" fill="#0FA1EF"/>
<path d="M45.7945 8.26538H38.5569C38.1122 8.26538 37.751 8.62165 37.751 9.0602C37.751 9.49875 38.1122 9.85502 38.5569 9.85502H45.7945C46.2392 9.85502 46.6004 9.49875 46.6004 9.0602C46.6004 8.62165 46.2392 8.26538 45.7945 8.26538Z" fill="#0FA1EF"/>
<path d="M4.2088 8.64054H11.4465C11.8911 8.64054 12.2523 8.28427 12.2523 7.84572C12.2523 7.40632 11.8911 7.05005 11.4465 7.05005H4.2088C3.76418 7.05005 3.40299 7.40632 3.40299 7.84572C3.40213 8.28427 3.76332 8.64054 4.2088 8.64054Z" fill="#0FA1EF"/>
<path d="M45.7945 11.4482H38.5569C38.1122 11.4482 37.751 11.8045 37.751 12.2431C37.751 12.6816 38.1122 13.0379 38.5569 13.0379H45.7945C46.2392 13.0379 46.6004 12.6816 46.6004 12.2431C46.6004 11.8045 46.2392 11.4482 45.7945 11.4482Z" fill="#0FA1EF"/>
</svg>
