<svg width="35" height="37" viewBox="0 0 35 37" fill="none" xmlns="http://www.w3.org/2000/svg">
<path d="M30.3158 19.1179V7.57895C30.3158 3.39158 23.5326 0 15.1579 0C6.78316 0 0 3.39158 0 7.57895V26.5263C0 30.7137 6.80211 34.1053 15.1579 34.1053C16.0295 34.1053 16.8632 34.1053 17.6779 33.9916C17.2666 32.8096 17.0552 31.5673 17.0526 30.3158V30.2211C16.4463 30.3158 15.8211 30.3158 15.1579 30.3158C7.82526 30.3158 3.78947 27.4737 3.78947 26.5263V22.3011C6.84 23.7789 10.8379 24.6316 15.1579 24.6316C16.3895 24.6316 17.5642 24.5558 18.72 24.4232C19.7293 22.753 21.1525 21.3715 22.8519 20.4122C24.5514 19.4529 26.4696 18.9484 28.4211 18.9474C29.0653 18.9474 29.6905 19.0232 30.3158 19.1179ZM26.5263 17.9053C24.0632 19.7053 19.7432 20.8421 15.1579 20.8421C10.5726 20.8421 6.25263 19.7053 3.78947 17.9053V12.5811C6.57474 14.1537 10.6295 15.1579 15.1579 15.1579C19.6863 15.1579 23.7411 14.1537 26.5263 12.5811V17.9053ZM15.1579 11.3684C7.82526 11.3684 3.78947 8.52632 3.78947 7.57895C3.78947 6.63158 7.82526 3.78947 15.1579 3.78947C22.4905 3.78947 26.5263 6.63158 26.5263 7.57895C26.5263 8.52632 22.4905 11.3684 15.1579 11.3684Z" fill="#1DABF8"/>
<path d="M25.4194 25H33.7009C34.4184 25 35 25.5816 35 26.2991V34.5806C35 35.3877 34.3457 36.042 33.5386 36.042C32.7314 36.042 32.0771 35.3877 32.0771 34.5806V30.1962L25.7442 36.5292C25.1164 37.1569 24.0986 37.1569 23.4708 36.5292C22.8431 35.9014 22.8431 34.8836 23.4708 34.2558L29.8038 27.9229H25.4194C24.6123 27.9229 23.958 27.2686 23.958 26.4614C23.958 25.6543 24.6123 25 25.4194 25Z" fill="#1DABF8"/>
</svg>
