<svg width="60" height="60" viewBox="0 0 60 60" fill="none" xmlns="http://www.w3.org/2000/svg">
<rect width="60" height="60" rx="11" fill="url(#paint0_linear_409_443)"/>
<path d="M42.3158 31.1179V19.5789C42.3158 15.3916 35.5326 12 27.1579 12C18.7832 12 12 15.3916 12 19.5789V38.5263C12 42.7137 18.8021 46.1053 27.1579 46.1053C28.0295 46.1053 28.8632 46.1053 29.6779 45.9916C29.2666 44.8096 29.0552 43.5673 29.0526 42.3158V42.2211C28.4463 42.3158 27.8211 42.3158 27.1579 42.3158C19.8253 42.3158 15.7895 39.4737 15.7895 38.5263V34.3011C18.84 35.7789 22.8379 36.6316 27.1579 36.6316C28.3895 36.6316 29.5642 36.5558 30.72 36.4232C31.7293 34.753 33.1525 33.3715 34.8519 32.4122C36.5514 31.4529 38.4696 30.9484 40.4211 30.9474C41.0653 30.9474 41.6905 31.0232 42.3158 31.1179ZM38.5263 29.9053C36.0632 31.7053 31.7432 32.8421 27.1579 32.8421C22.5726 32.8421 18.2526 31.7053 15.7895 29.9053V24.5811C18.5747 26.1537 22.6295 27.1579 27.1579 27.1579C31.6863 27.1579 35.7411 26.1537 38.5263 24.5811V29.9053ZM27.1579 23.3684C19.8253 23.3684 15.7895 20.5263 15.7895 19.5789C15.7895 18.6316 19.8253 15.7895 27.1579 15.7895C34.4905 15.7895 38.5263 18.6316 38.5263 19.5789C38.5263 20.5263 34.4905 23.3684 27.1579 23.3684Z" fill="white"/>
<path d="M37.4194 37H45.7009C46.4184 37 47 37.5816 47 38.2991V46.5806C47 47.3877 46.3457 48.042 45.5386 48.042C44.7314 48.042 44.0771 47.3877 44.0771 46.5806V42.1962L37.7442 48.5292C37.1164 49.1569 36.0986 49.1569 35.4708 48.5292C34.8431 47.9014 34.8431 46.8836 35.4708 46.2558L41.8038 39.9229H37.4194C36.6123 39.9229 35.958 39.2686 35.958 38.4614C35.958 37.6543 36.6123 37 37.4194 37Z" fill="white"/>
<defs>
<linearGradient id="paint0_linear_409_443" x1="1.25436" y1="0.416667" x2="58.1247" y2="58.7394" gradientUnits="userSpaceOnUse">
<stop stop-color="#93D9FF"/>
<stop offset="0.5" stop-color="#52C3FF"/>
<stop offset="1" stop-color="#42BDFF"/>
</linearGradient>
</defs>
</svg>
