<svg width="60" height="60" viewBox="0 0 60 60" fill="none" xmlns="http://www.w3.org/2000/svg">
<rect width="60" height="60" rx="11" fill="url(#paint0_linear_416_543)"/>
<path d="M23.5 18.5854C23.5 19.4138 22.8284 20.0854 22 20.0854C21.1716 20.0854 20.5 19.4138 20.5 18.5854C20.5 17.7569 21.1716 17.0854 22 17.0854C22.8284 17.0854 23.5 17.7569 23.5 18.5854Z" fill="white"/>
<path fill-rule="evenodd" clip-rule="evenodd" d="M44.75 33V37.1427C47.1854 37.7087 49 39.8924 49 42.5C49 45.5376 46.5376 48 43.5 48C40.4624 48 38 45.5376 38 42.5C38 40.264 39.3343 38.3397 41.25 37.4798V34.5H32V38H35V48H25V38H28V34.5H18.75V37.4798C20.6658 38.3397 22 40.2641 22 42.5C22 45.5376 19.5376 48 16.5 48C13.4624 48 11 45.5376 11 42.5C11 39.8924 12.8147 37.7086 15.25 37.1427V33C15.25 32.337 15.5134 31.7011 15.9822 31.2322C16.4511 30.7634 17.087 30.5 17.75 30.5H28V25.5H17.5C16.837 25.5 16.2011 25.2366 15.7322 24.7678C15.2634 24.2989 15 23.663 15 23V14.5C15 13.837 15.2634 13.2011 15.7322 12.7322C16.2011 12.2634 16.837 12 17.5 12H42.5C43.1631 12 43.7989 12.2634 44.2678 12.7322C44.7366 13.2011 45 13.837 45 14.5V23C45 23.663 44.7366 24.2989 44.2678 24.7678C43.7989 25.2366 43.1631 25.5 42.5 25.5H32V30.5H41.25C41.3333 30.5 41.4252 30.4974 41.5239 30.4945C42.2109 30.4747 43.2308 30.4453 44.0178 31.2322C44.4866 31.7011 44.75 32.337 44.75 33ZM28 45.0787H32V40.9213H28V45.0787ZM18.5 15.5V22H41.5V15.5H18.5ZM43.5 45C44.8807 45 46 43.8807 46 42.5C46 41.1193 44.8807 40 43.5 40C42.1193 40 41 41.1193 41 42.5C41 43.8807 42.1193 45 43.5 45ZM19 42.5C19 43.8807 17.8807 45 16.5 45C15.1193 45 14 43.8807 14 42.5C14 41.1193 15.1193 40 16.5 40C17.8807 40 19 41.1193 19 42.5Z" fill="white"/>
<defs>
<linearGradient id="paint0_linear_416_543" x1="1.25436" y1="0.416667" x2="58.1247" y2="58.7394" gradientUnits="userSpaceOnUse">
<stop stop-color="#93D9FF"/>
<stop offset="0.5" stop-color="#52C3FF"/>
<stop offset="1" stop-color="#42BDFF"/>
</linearGradient>
</defs>
</svg>
