<svg width="40" height="30" viewBox="0 0 40 30" fill="none" xmlns="http://www.w3.org/2000/svg">
<path d="M21.4894 11.0851H2.34042C1.28723 11.0851 0.425529 11.9468 0.425529 13C0.425529 14.0532 1.28723 14.9149 2.34042 14.9149H21.4894C22.5426 14.9149 23.4043 14.0532 23.4043 13C23.4043 11.9468 22.5426 11.0851 21.4894 11.0851ZM21.4894 3.42554H2.34042C1.28723 3.42554 0.425529 4.28724 0.425529 5.34043C0.425529 6.39362 1.28723 7.25532 2.34042 7.25532H21.4894C22.5426 7.25532 23.4043 6.39362 23.4043 5.34043C23.4043 4.28724 22.5426 3.42554 21.4894 3.42554ZM2.34042 22.5745H13.8298C14.883 22.5745 15.7447 21.7128 15.7447 20.6596C15.7447 19.6064 14.883 18.7447 13.8298 18.7447H2.34042C1.28723 18.7447 0.425529 19.6064 0.425529 20.6596C0.425529 21.7128 1.28723 22.5745 2.34042 22.5745ZM39.1255 15.317L39.2979 15.4894C40.0447 16.2362 40.0447 17.4426 39.2979 18.1894L28.6128 28.8936C28.4356 29.0711 28.2252 29.212 27.9935 29.3081C27.7619 29.4042 27.5136 29.4536 27.2628 29.4536C27.012 29.4536 26.7636 29.4042 26.532 29.3081C26.3003 29.212 26.0899 29.0711 25.9128 28.8936L19.9957 22.9766C19.8182 22.7994 19.6774 22.589 19.5813 22.3574C19.4852 22.1257 19.4357 21.8774 19.4357 21.6266C19.4357 21.3758 19.4852 21.1275 19.5813 20.8958C19.6774 20.6642 19.8182 20.4538 19.9957 20.2766L20.1681 20.1043C20.3452 19.9267 20.5557 19.7859 20.7873 19.6898C21.019 19.5937 21.2673 19.5443 21.5181 19.5443C21.7689 19.5443 22.0172 19.5937 22.2489 19.6898C22.4805 19.7859 22.6909 19.9267 22.8681 20.1043L27.2723 24.5085L36.4255 15.3362C37.1532 14.5702 38.3787 14.5702 39.1255 15.317Z" fill="#1DABF8"/>
</svg>
