<svg width="469" height="446" viewBox="0 0 469 446" fill="none" xmlns="http://www.w3.org/2000/svg">
<path d="M234.23 445.36C363.592 445.36 468.46 384.816 468.46 310.13C468.46 235.445 363.592 174.9 234.23 174.9C104.868 174.9 0 235.445 0 310.13C0 384.816 104.868 445.36 234.23 445.36Z" fill="#EFF8FE"/>
<path d="M250.12 364.14H241.25C240.442 364.141 239.665 363.829 239.082 363.27C238.498 362.711 238.154 361.948 238.12 361.14C237.908 352.503 237.039 343.895 235.52 335.39C235.412 334.802 235.476 334.195 235.702 333.642C235.929 333.088 236.309 332.611 236.799 332.267C237.288 331.923 237.865 331.726 238.463 331.7C239.06 331.674 239.653 331.82 240.17 332.12L333.09 385.77C333.565 386.046 333.96 386.442 334.234 386.919C334.508 387.395 334.653 387.935 334.653 388.485C334.653 389.035 334.508 389.575 334.234 390.051C333.96 390.528 333.565 390.924 333.09 391.2C332.495 391.538 332.028 392.062 331.759 392.691C331.49 393.32 331.435 394.02 331.601 394.684C331.768 395.347 332.148 395.938 332.682 396.365C333.216 396.793 333.876 397.033 334.56 397.05L392.48 398.81C392.923 398.823 393.364 398.742 393.774 398.572C394.184 398.402 394.552 398.147 394.856 397.824C395.159 397.5 395.391 397.116 395.534 396.697C395.678 396.277 395.731 395.832 395.69 395.39L392.69 361.96C392.641 361.436 392.461 360.932 392.166 360.495C391.872 360.058 391.473 359.702 391.005 359.459C390.538 359.216 390.017 359.095 389.49 359.105C388.963 359.116 388.447 359.259 387.99 359.52L382.78 362.52C382.303 362.796 381.761 362.941 381.21 362.941C380.659 362.941 380.117 362.796 379.64 362.52L292.93 312.44C292.32 312.086 291.848 311.537 291.588 310.881C291.329 310.225 291.298 309.501 291.5 308.826C291.702 308.15 292.125 307.562 292.702 307.157C293.279 306.751 293.976 306.552 294.68 306.59C308.05 307.33 322.87 307.75 339.33 307.85C340.158 307.855 340.95 308.187 341.534 308.773C342.118 309.359 342.447 310.153 342.45 310.98V312.27C342.45 312.809 342.589 313.338 342.853 313.808C343.116 314.277 343.497 314.671 343.956 314.951C344.416 315.232 344.941 315.389 345.479 315.408C346.017 315.427 346.551 315.307 347.03 315.06L389.7 292.89C390.209 292.625 390.636 292.225 390.934 291.734C391.232 291.243 391.39 290.68 391.39 290.105C391.39 289.531 391.232 288.967 390.934 288.476C390.636 287.985 390.209 287.585 389.7 287.32L347.03 265.19C346.552 264.944 346.019 264.824 345.482 264.842C344.944 264.861 344.42 265.017 343.961 265.296C343.501 265.575 343.121 265.968 342.856 266.436C342.592 266.904 342.452 267.432 342.45 267.97V269.2C342.45 269.614 342.368 270.024 342.209 270.406C342.05 270.789 341.817 271.136 341.523 271.428C341.23 271.719 340.881 271.95 340.498 272.107C340.115 272.264 339.704 272.343 339.29 272.34C248.75 271.34 219.18 253.85 195.29 239.69C193.19 238.45 191.13 237.23 189.07 236.04L115.45 193.53C99.1843 198.99 83.49 206.023 68.59 214.53C58.8675 220.083 49.6461 226.47 41.03 233.62L121.8 280.25C123.86 281.44 125.97 282.63 128.12 283.84C152.74 297.68 180.48 313.28 183.26 360.84C183.286 361.267 183.224 361.695 183.079 362.098C182.933 362.5 182.707 362.869 182.414 363.181C182.121 363.493 181.767 363.741 181.374 363.911C180.981 364.081 180.558 364.17 180.13 364.17H171.6C170.923 364.172 170.264 364.393 169.723 364.801C169.181 365.208 168.786 365.779 168.596 366.429C168.406 367.079 168.431 367.773 168.668 368.408C168.905 369.042 169.341 369.583 169.91 369.95L209.16 395.13C209.664 395.454 210.251 395.626 210.85 395.626C211.449 395.626 212.036 395.454 212.54 395.13L251.8 369.95C252.383 369.59 252.832 369.048 253.078 368.408C253.324 367.769 253.355 367.066 253.164 366.408C252.974 365.749 252.573 365.171 252.024 364.762C251.474 364.352 250.805 364.134 250.12 364.14Z" fill="#D8EAF6"/>
<path d="M390.9 387.56V393.85L340.03 392.3V386.01L341.64 385.08L228.64 319.82C231.96 331.45 233.64 345.48 233.64 362.27H244.93V368.57L210.87 390.44L176.81 368.6V362.3H188.03C185.58 306.3 150.24 291.07 124.16 276.01C117.03 271.88 78.54 249.66 45.03 230.33V224.02C52.4861 218.179 60.3531 212.882 68.57 208.17C81.7481 200.642 95.5611 194.285 109.85 189.17L186.72 233.56C213.72 249.17 241.11 270.56 347.08 270.56V264L384.92 283.67V289.96L347.08 309.62V303.07C318 303.07 293.69 302.12 273.55 300.21L381.14 362.33L388.19 358.25L390.9 387.56Z" fill="#0FA1EF"/>
<path opacity="0.15" d="M390.9 387.56V393.85L340.03 392.3V386.01L341.64 385.08L228.64 319.82C231.96 331.45 233.64 345.48 233.64 362.27H244.93V368.57L210.87 390.44L176.81 368.6V362.3H188.03C185.58 306.3 150.24 291.07 124.16 276.01L45.03 230.33V224.02C52.4861 218.179 60.3531 212.882 68.57 208.17C81.7481 200.642 95.5611 194.285 109.85 189.17L110.11 189.32L186.72 233.56C213.72 249.17 241.11 270.56 347.08 270.56V264L384.92 283.67V289.96L347.08 309.62V303.07C318 303.07 293.69 302.12 273.55 300.21L381.14 362.33L388.19 358.25L390.9 387.56Z" fill="black"/>
<path opacity="0.15" d="M188.17 362.28H188.03C185.57 306.28 150.23 291.05 124.15 275.99L45.03 230.34V224.03L124.12 269.7C151.18 285.3 188.17 301.1 188.17 362.28Z" fill="black"/>
<path opacity="0.15" d="M347.11 296.74V303.02C318.03 303.02 293.72 302.07 273.58 300.16L260.03 292.37C271.28 293.83 284.03 294.92 298.53 295.65C313.03 296.38 329.15 296.74 347.11 296.74Z" fill="black"/>
<path d="M340.03 386.01L347.09 381.94L226.03 312.02C231.1 325.02 233.6 341.54 233.6 362.27H244.93L210.87 384.12L176.81 362.27H188.16C188.16 301.1 151.16 285.27 124.16 269.69L45.1 224.05C52.5561 218.209 60.4231 212.912 68.64 208.2C81.8181 200.672 95.6311 194.315 109.92 189.2L110.18 189.35L186.79 233.59C213.79 249.2 241.18 270.59 347.15 270.59V264.03L384.99 283.7L347.15 303.36V296.81C329.15 296.81 313.06 296.45 298.6 295.72C284.14 294.99 271.35 293.91 260.11 292.44L381.21 362.36L388.26 358.28L390.94 387.64L340.03 386.01Z" fill="#0FA1EF"/>
<path opacity="0.15" d="M347.11 381.94L341.66 385.09L228.66 319.83C227.82 316.83 226.95 314.32 226.05 312.03L347.11 381.94Z" fill="black"/>
<path opacity="0.15" d="M210.87 384.13V390.42L176.81 368.57V362.28L210.87 384.13Z" fill="black"/>
<path d="M293.67 48.8801C293.633 48.5819 293.523 48.2975 293.348 48.0529C293.173 47.8084 292.94 47.6115 292.67 47.4801C291.895 47.089 291.038 46.8852 290.17 46.8852C289.302 46.8852 288.445 47.089 287.67 47.4801C287.398 47.6092 287.163 47.8055 286.988 48.0505C286.814 48.2955 286.704 48.581 286.67 48.8801V304.6C286.67 305.7 288.25 306.6 290.2 306.6C292.15 306.6 293.73 305.7 293.73 304.6V48.8801H293.67Z" fill="#37474F"/>
<path d="M290.14 50.8801C292.09 50.8801 293.67 49.9847 293.67 48.8801C293.67 47.7756 292.09 46.8801 290.14 46.8801C288.19 46.8801 286.61 47.7756 286.61 48.8801C286.61 49.9847 288.19 50.8801 290.14 50.8801Z" fill="#455A64"/>
<path d="M330.04 94.1801L323.11 82.1801L277.07 55.6201L273.59 57.6301V73.6201L319.63 100.18L323.18 98.2201L330.04 94.1801Z" fill="#0FA1EF"/>
<path d="M273.59 57.6301L319.63 84.1901L326.55 96.1901L319.63 100.18L273.59 73.6201V57.6301Z" fill="#0FA1EF"/>
<g opacity="0.3">
<path d="M273.59 57.6301L319.63 84.1901L326.57 96.2201L319.63 100.18L273.59 73.6201V57.6301Z" fill="black"/>
</g>
<path opacity="0.1" d="M323.11 82.1801L319.63 84.1901L273.59 57.6301L277.07 55.6201L323.11 82.1801Z" fill="black"/>
<path opacity="0.2" d="M319.63 84.1901L323.11 82.1801L330.04 94.1801L326.57 96.2201L319.63 84.1901Z" fill="black"/>
<path d="M330.04 150.2L323.11 138.2L277.07 111.64L273.59 113.65V129.64L319.63 156.2L323.18 154.24L330.04 150.2Z" fill="#0FA1EF"/>
<path d="M273.59 113.65L319.63 140.21L326.55 152.2L319.63 156.2L273.59 129.64V113.65Z" fill="#0FA1EF"/>
<g opacity="0.3">
<path d="M273.59 113.65L319.63 140.21L326.57 152.24L319.63 156.2L273.59 129.64V113.65Z" fill="black"/>
</g>
<path opacity="0.1" d="M323.11 138.2L319.63 140.21L273.59 113.65L277.07 111.64L323.11 138.2Z" fill="black"/>
<path opacity="0.2" d="M319.63 140.21L323.11 138.2L330.04 150.2L326.57 152.24L319.63 140.21Z" fill="black"/>
<path d="M303.27 102.85L257.23 76.2501L250.3 80.2501L257.23 92.2401L303.27 118.84V102.85Z" fill="#0FA1EF"/>
<path d="M257.23 76.2501L260.61 74.2101L306.72 100.86L303.27 102.85L257.23 76.2501Z" fill="#0FA1EF"/>
<g opacity="0.4">
<path d="M257.23 76.2501L260.61 74.2101L306.72 100.86L303.27 102.85L257.23 76.2501Z" fill="white"/>
</g>
<path d="M306.72 116.85L303.27 118.84V102.85L306.72 100.86V116.85Z" fill="#0FA1EF"/>
<path opacity="0.1" d="M306.72 116.85L303.27 118.84V102.85L306.72 100.86V116.85Z" fill="black"/>
<path opacity="0.1" d="M120.17 254.99C141.941 254.99 159.59 244.8 159.59 232.23C159.59 219.66 141.941 209.47 120.17 209.47C98.3989 209.47 80.75 219.66 80.75 232.23C80.75 244.8 98.3989 254.99 120.17 254.99Z" fill="black"/>
<path d="M152.35 227.53C152.492 227.961 152.542 228.416 152.497 228.868C152.452 229.319 152.314 229.756 152.09 230.15C150.922 231.149 149.561 231.898 148.093 232.35C146.624 232.803 145.078 232.949 143.55 232.78C140.245 232.458 137.066 231.347 134.28 229.54C132.144 228.226 129.652 227.611 127.15 227.78C124.56 227.78 122.64 227.28 122.42 226.61C122.03 225.42 122 224.67 122.57 224.68L152.35 227.53Z" fill="#263238"/>
<path d="M124.46 216.44C125.728 217.397 127.247 217.966 128.832 218.077C130.417 218.189 132 217.839 133.39 217.07L133.93 200.12H122.76L124.46 216.44Z" fill="#FFBDA7"/>
<path d="M150.03 224.15C145.994 222.753 142.132 220.898 138.52 218.62C137.76 218.08 137.17 217.62 136.67 217.2C135.54 216.06 134.85 213.59 134.36 213.31C133.87 213.03 133.05 213.93 132.66 214.14C131.845 214.591 130.953 214.886 130.03 215.01C127.3 215.36 127.19 214.81 127.11 215.7C127.085 216.033 127.085 216.367 127.11 216.7C125.66 216.51 124.51 216.09 124.42 215.54L124.18 213.8C122.74 213.72 122.74 216.3 122.38 219.21C122.08 221.56 121.58 223.28 122.29 224.98C124.54 226.8 128.36 226.19 130.56 226.47C133.67 226.87 135.2 229.1 139.56 230.47C146.56 232.61 150.85 229.68 152.1 228.42C152.93 226.81 152.46 225.06 150.03 224.15Z" fill="#37474F"/>
<path d="M110.15 242.57C110.03 243.63 109.87 246.57 104.48 247.33C99.09 248.09 95.7 246.25 94.27 243.65C92.84 241.05 93.18 238.94 92.96 236.54C92.74 234.14 90.76 232.85 90.19 231.61C89.36 229.79 90.6 226.96 90.6 226.96L110.15 242.57Z" fill="#263238"/>
<path d="M91.87 222.79C92.52 227.71 102.06 227.35 101.29 223.42L103.03 211.49L92.24 211.79L91.87 222.79Z" fill="#FFBDA7"/>
<path d="M109.77 240.12C109.007 239.072 108.182 238.07 107.3 237.12C104.086 232.994 102.156 228.014 101.75 222.8C101.75 222.51 101.69 221.95 101.41 221.8C101.13 221.65 100.82 221.87 100.52 222C99.9857 222.23 99.4189 222.375 98.84 222.43C97.3407 222.473 95.8403 222.41 94.35 222.24C93.98 222.29 93.86 223.43 93.88 224.68C93.21 224.24 92.99 223.39 92.38 222.89C92.05 222.62 91.9 222.61 91.91 222.17C91.92 221.73 91.91 221.63 91.91 221.34C91.42 221.19 91 223.07 90.6 224.5C90.12 226.16 89.54 228.03 90.18 229.72C90.5891 230.641 91.0953 231.516 91.69 232.33C92.715 233.742 93.3809 235.383 93.63 237.11C93.7 237.86 93.63 238.63 93.75 239.38C93.9186 240.65 94.4497 241.844 95.2798 242.82C96.1099 243.795 97.2036 244.51 98.43 244.88C101.71 245.88 106.65 245.77 109.55 243.48C110.58 242.7 110.24 241.01 109.77 240.12Z" fill="#37474F"/>
<path d="M97.1301 112.16C94.9901 131.84 94.6401 166.83 94.6401 166.83C94.6401 166.83 91.4001 175.99 91.4101 182.83C91.4101 197.17 91.7801 216.83 91.7801 216.83C95.2061 218.078 98.9365 218.225 102.45 217.25C102.45 217.25 107.91 185.25 110.34 173.67C112.47 163.6 115.89 140.62 115.89 140.62L120.6 168.77C119.582 173.983 119.132 179.291 119.26 184.6C119.48 190.02 123.5 210.84 123.5 210.84C125.26 212.5 131.67 211.11 133.93 209.67C133.93 209.67 135.51 174.58 135.99 168.89C136.62 161.39 137.77 107.65 137.77 107.65L97.1301 112.16Z" fill="#37474F"/>
<path d="M115.89 140.6L118.52 128.5C122.148 127.605 125.566 126.008 128.58 123.8C128.58 123.8 127.04 127.66 120.58 130.62L117.9 141.95L120.2 166.83L115.89 140.6Z" fill="#263238"/>
<path d="M212.36 58.4401C211.79 56.7201 208.65 58.2001 205.36 59.7901C202.36 61.2501 196.5 64.0501 196.08 63.4501C195.66 62.8501 196 60.3301 195.27 58.6901C194.54 57.0501 192.6 56.5401 192.61 58.0001C192.61 58.8401 192.1 61.6301 191.93 62.9101C191.76 64.1901 191.44 65.9101 190.18 66.6701C188.92 67.4301 164.36 71.2201 164.36 71.2201C164.36 71.2201 145.26 59.8901 141.36 57.3101C137.46 54.7301 134.36 52.2401 128.56 52.5301C120.96 55.2601 123.56 62.2601 126.79 66.7401C128.58 69.2001 129.24 69.1401 135.87 71.9401C143.87 75.3301 156.51 82.5701 163.32 83.5901C170.97 82.8101 191.13 77.1701 193.11 76.8501C195.47 76.4601 196.97 76.9201 198.88 76.6001C201.17 76.2001 203.13 75.9701 205.2 74.7401C205.512 74.5934 205.788 74.3806 206.009 74.1163C206.23 73.8521 206.391 73.5428 206.48 73.2101C206.54 72.8701 206.48 72.5201 206.48 72.2101C206.664 71.6605 206.811 71.0993 206.92 70.5301C206.92 69.7801 206.09 69.0701 206.13 68.3201C206.13 67.9901 206.63 67.1101 206.54 66.7901C206.335 66.3115 206.07 65.8611 205.75 65.4501C205.6 65.1701 205.15 64.6901 205.45 64.3901C205.75 64.0901 206.84 63.6101 209.04 62.0901C211.24 60.5701 212.75 59.5801 212.36 58.4401Z" fill="#FFBDA7"/>
<path d="M128.25 52.0401C131.65 52.0401 133.76 51.5002 143.19 57.4502C152.62 63.4002 164.45 70.9202 164.45 70.9202L176.85 69.2002C176.85 69.2002 175.23 73.8102 178.47 80.4802C178.47 80.4802 166.94 83.6002 164.24 84.0802C161.54 84.5602 161.86 84.3701 157.67 82.7801C153.48 81.1901 132.18 71.2402 132.18 71.2402L128.25 52.0401Z" fill="#D8EAF6"/>
<path d="M201.93 65.2802C200.11 66.4702 197.8 67.2802 197.68 68.5302C197.671 68.778 197.716 69.0249 197.811 69.2539C197.907 69.4828 198.051 69.6884 198.233 69.8566C198.415 70.0247 198.632 70.1514 198.868 70.228C199.104 70.3045 199.354 70.3292 199.6 70.3002C199.378 70.4982 199.211 70.751 199.116 71.0334C199.021 71.3158 199.002 71.618 199.06 71.9102C199.131 72.191 199.28 72.4465 199.488 72.6478C199.696 72.8492 199.957 72.9885 200.24 73.0502C200.133 73.2456 200.067 73.461 200.047 73.6829C200.026 73.9048 200.051 74.1286 200.12 74.3404C200.19 74.5522 200.302 74.7476 200.45 74.9144C200.598 75.0812 200.778 75.2159 200.98 75.3102C200.29 75.3102 198.98 74.9202 199.4 73.6302C199.4 73.6302 197.73 72.6302 198.4 71.1802C198.4 71.1802 197.71 72.8702 194.97 73.2802C196.208 72.682 197.206 71.6805 197.8 70.4402C197.464 70.145 197.214 69.7636 197.079 69.3372C196.943 68.9108 196.926 68.4554 197.03 68.0202C197.46 66.6102 201.93 65.2802 201.93 65.2802Z" fill="#F0997A"/>
<path d="M114.13 52.4401C108.63 53.2701 102.34 53.7101 98.49 54.2401C94.28 54.8101 92.77 58.2401 92.77 65.4601C92.77 76.0601 98.2 93.7401 98.2 93.7401L97.13 112.2C102.06 117.48 125.28 119.39 137.88 111.66C137.88 111.66 138.21 75.7101 137.88 69.6601C137.28 59.0001 131.11 52.1701 127.18 51.8701C127.18 51.8101 123.58 50.9601 114.13 52.4401Z" fill="#EFF8FE"/>
<path d="M108.81 19.4401C108.81 19.4401 105.81 19.8601 104.69 22.1301C103.69 24.1301 104.07 28.8701 105.36 34.0701C106.083 37.4344 107.17 40.7103 108.6 43.8401C109.1 44.7277 109.924 45.3872 110.9 45.6801L110.75 39.5101L110.52 35.2201C110.52 35.2201 113.28 31.4501 113.59 28.3601C113.98 24.3601 113.14 22.7601 113.14 22.7601L108.81 19.4401Z" fill="#263238"/>
<path d="M108.1 20.2001L103.85 18.2601C104.106 17.6712 104.58 17.2045 105.174 16.9584C105.767 16.7122 106.432 16.7056 107.03 16.9401C107.317 17.0812 107.572 17.2782 107.782 17.5195C107.992 17.7607 108.151 18.0414 108.251 18.3451C108.35 18.6487 108.388 18.9693 108.362 19.2878C108.337 19.6064 108.247 19.9165 108.1 20.2001Z" fill="#263238"/>
<path d="M113.67 25.4401C113.676 27.719 114.358 29.9449 115.629 31.8362C116.9 33.7276 118.704 35.1994 120.811 36.0656C122.919 36.9317 125.237 37.1532 127.47 36.7021C129.704 36.2509 131.754 35.1474 133.361 33.5311C134.967 31.9149 136.058 29.8584 136.496 27.622C136.933 25.3855 136.698 23.0695 135.819 20.9669C134.94 18.8644 133.457 17.0698 131.558 15.8101C129.659 14.5504 127.429 13.8822 125.15 13.8901C122.096 13.9007 119.172 15.1232 117.019 17.289C114.867 19.4548 113.662 22.3866 113.67 25.4401Z" fill="#263238"/>
<path d="M110.69 34.5401C109.69 35.4401 108.81 33.1101 107.93 32.2001C107.05 31.2901 104.22 30.0601 102.81 33.0501C101.4 36.0401 104.12 40.2301 106.24 41.2201C109.35 42.6601 110.75 39.5201 110.75 39.5201L111.08 52.5201C114.36 58.4201 120.81 58.3001 121.83 61.0001C122.44 58.6001 125.83 55.6101 123.61 53.0001V48.7801C125.327 49.0445 127.066 49.1282 128.8 49.0301C131.63 48.5801 133.11 46.4401 133.96 43.3801C135.32 38.4501 135.87 30.1701 133.96 20.6001C130.79 18.1501 119.79 18.6001 113.14 22.7701C113.63 31.2601 111.72 33.6401 110.69 34.5401Z" fill="#FFBDA7"/>
<path d="M135.54 13.8201C135.504 13.736 135.445 13.6631 135.372 13.6086C135.298 13.5542 135.211 13.5202 135.12 13.5101C134.979 13.5186 134.845 13.575 134.74 13.6701C133.949 14.3059 133.106 14.8745 132.22 15.3701C132.435 14.2336 132.435 13.0667 132.22 11.9301C132.09 11.2301 131.9 9.62013 131.03 9.45013C130.52 9.34013 130.03 9.77013 129.69 10.1301C126.23 13.3701 121.69 11.8701 117.54 12.0001C114.05 12.1201 109.84 13.5301 108.27 16.9301C107.55 18.4801 107.42 20.1101 108.85 21.1801C110.122 22.0367 111.578 22.5814 113.1 22.7701C120.1 23.9801 130 26.8401 135.1 20.3601C135.852 19.3911 136.231 18.1849 136.17 16.9601C136.179 15.8878 135.943 14.8275 135.48 13.8601C135.481 13.8535 135.484 13.8472 135.487 13.8415C135.491 13.8359 135.496 13.8311 135.501 13.8274C135.507 13.8236 135.513 13.8211 135.52 13.8198C135.527 13.8186 135.533 13.8187 135.54 13.8201Z" fill="#263238"/>
<path d="M123.59 48.7801C123.59 48.7801 117.26 47.5201 115.05 46.3601C113.752 45.6864 112.683 44.6422 111.98 43.3601C112.317 44.6528 112.912 45.8638 113.73 46.9201C115.35 48.9801 123.59 50.4801 123.59 50.4801V48.7801Z" fill="#F0997A"/>
<path d="M122.1 32.6201C122.105 32.7899 122.077 32.959 122.016 33.1177C121.955 33.2763 121.864 33.4213 121.746 33.5441C121.629 33.667 121.489 33.7653 121.333 33.8332C121.177 33.9012 121.01 33.9376 120.84 33.9401C120.577 33.9521 120.316 33.885 120.091 33.7474C119.866 33.6099 119.688 33.4082 119.579 33.1683C119.469 32.9284 119.434 32.6613 119.478 32.4014C119.522 32.1415 119.643 31.9007 119.825 31.7101C120.007 31.5194 120.242 31.3876 120.5 31.3316C120.757 31.2756 121.026 31.2981 121.27 31.396C121.515 31.4939 121.725 31.6628 121.873 31.8809C122.021 32.0991 122.1 32.3566 122.1 32.6201Z" fill="#263238"/>
<path d="M121.62 27.9001L118.79 29.1601C118.63 28.7745 118.624 28.3418 118.775 27.9524C118.926 27.563 119.222 27.2469 119.6 27.0701C119.787 26.9872 119.988 26.9429 120.192 26.94C120.396 26.9371 120.599 26.9755 120.788 27.0531C120.976 27.1307 121.147 27.2458 121.291 27.3913C121.434 27.5369 121.546 27.71 121.62 27.9001Z" fill="#263238"/>
<path d="M122.57 41.0701L126.57 42.5801C126.482 42.8509 126.341 43.1013 126.154 43.3164C125.968 43.5314 125.74 43.7066 125.484 43.8317C125.229 43.9567 124.95 44.029 124.666 44.0442C124.382 44.0594 124.098 44.0172 123.83 43.9201C123.294 43.6975 122.865 43.2775 122.63 42.747C122.396 42.2165 122.374 41.6161 122.57 41.0701Z" fill="#B16668"/>
<path d="M123.87 43.9202C124.228 44.0534 124.616 44.0845 124.99 44.0101C124.959 43.5008 124.735 43.0224 124.363 42.6729C123.992 42.3234 123.5 42.1292 122.99 42.1302C122.803 42.1291 122.617 42.1596 122.44 42.2201C122.506 42.6049 122.673 42.9651 122.925 43.2639C123.176 43.5626 123.502 43.7892 123.87 43.9202Z" fill="#F0997A"/>
<path d="M133.66 28.7102L130.73 27.6302C130.784 27.4257 130.881 27.235 131.015 27.0709C131.148 26.9068 131.315 26.773 131.504 26.6784C131.693 26.5838 131.9 26.5306 132.112 26.5223C132.323 26.514 132.534 26.5507 132.73 26.6302C133.124 26.7888 133.442 27.0943 133.615 27.4823C133.789 27.8703 133.805 28.3105 133.66 28.7102Z" fill="#263238"/>
<path d="M132.56 32.2001C132.55 32.4489 132.467 32.6894 132.322 32.8916C132.177 33.0937 131.975 33.2487 131.742 33.3372C131.51 33.4257 131.256 33.4438 131.013 33.3893C130.77 33.3348 130.548 33.2101 130.376 33.0306C130.203 32.8512 130.087 32.625 130.042 32.3801C129.997 32.1352 130.025 31.8824 130.122 31.6533C130.22 31.4241 130.382 31.2286 130.59 31.0912C130.798 30.9537 131.041 30.8803 131.29 30.8801C131.46 30.8827 131.628 30.919 131.785 30.9869C131.941 31.0547 132.082 31.1529 132.2 31.2756C132.318 31.3983 132.411 31.5432 132.472 31.7019C132.534 31.8605 132.564 32.0299 132.56 32.2001Z" fill="#263238"/>
<path d="M126.29 31.8901L126.71 39.1201L130.71 37.7501L126.71 31.8101C126.566 31.8062 126.423 31.8335 126.29 31.8901Z" fill="#F0997A"/>
<path d="M111.03 48.8601C110.22 48.9201 109.87 49.0401 109.21 50.3501C108.47 51.8401 107.83 53.2001 107.83 53.2001C108.002 55.3861 108.965 57.4343 110.54 58.9601C112.114 60.5729 113.905 61.9595 115.86 63.0801C116.558 62.1333 117.337 61.2499 118.19 60.4401C118.604 60.0043 119.172 59.7486 119.773 59.728C120.373 59.7074 120.958 59.9237 121.4 60.3301C121.031 59.5147 120.546 58.7568 119.96 58.0801C119.47 57.5601 117.48 56.9601 114.76 55.2501C113.043 54.0778 111.738 52.395 111.03 50.4401V48.8601Z" fill="#D8EAF6"/>
<path d="M122.1 60.2501C122.198 59.1611 122.6 58.1216 123.26 57.2501C123.96 55.8901 123.58 54.8201 123.59 53.6701C123.6 52.5201 123.59 49.9501 123.59 49.9501C124.093 49.9534 124.58 50.1243 124.975 50.4358C125.37 50.7474 125.65 51.1817 125.77 51.6701C126.35 53.1001 127.56 54.8701 127.56 58.1001C127.56 61.0001 127.29 61.5401 127.29 61.5401C126.44 60.7522 125.516 60.0488 124.53 59.4401C124.324 59.3046 124.09 59.2175 123.845 59.1855C123.601 59.1535 123.352 59.1773 123.118 59.2553C122.884 59.3333 122.671 59.4633 122.495 59.6357C122.318 59.808 122.183 60.0181 122.1 60.2501Z" fill="#D8EAF6"/>
<path d="M98.49 54.2001C92.88 54.2001 89.05 57.9501 85.29 64.2001C82.37 69.0301 71.47 87.5001 69.29 92.7101C67.29 97.4501 67.17 99.4101 70.67 102.71C73.46 105.39 90.21 119.71 93.21 122.48C95.3681 124.664 98.2642 125.962 101.33 126.12C105.9 126.4 108.08 124.72 108.86 123.71C113.53 117.65 104.62 116.53 101.4 114.64C99.8311 113.712 98.4061 112.56 97.17 111.22L97.32 108.75C97.32 108.75 93.8 108.84 92.7 107.99C91.6 107.14 82.63 96.0701 82.63 96.0701L97.43 74.8001C100.45 71.2901 102.42 59.1401 98.49 54.2001Z" fill="#FFBDA7"/>
<path d="M99.43 54.2001C94.95 53.5201 90.69 54.6101 86.2 61.7101C81.71 68.8101 70.33 89.0501 69.03 92.2201C67.73 95.3901 65.85 98.7201 69.57 102.16C73.29 105.6 77.03 108.82 77.03 108.82C77.97 106.04 82.12 101.22 85.54 99.6701L83.38 96.3401C83.38 96.3401 96.38 77.0101 98.76 73.6201C101.14 70.2301 103.03 62.4401 99.43 54.2001Z" fill="#D8EAF6"/>
</svg>
