<svg width="36" height="36" viewBox="0 0 36 36" fill="none" xmlns="http://www.w3.org/2000/svg">
<path d="M33.5385 12C34.643 12 35.5385 11.1046 35.5385 10V4.3077C35.5385 3.20314 34.643 2.30771 33.5385 2.30771H27.8462C26.7416 2.30771 25.8462 3.20314 25.8462 4.30771V5.53848H14.3077V3.00001C14.3071 2.38816 14.0638 1.80155 13.6311 1.3689C13.1985 0.93626 12.6119 0.692933 12 0.692322H2.76923C2.15738 0.692933 1.57077 0.93626 1.13812 1.3689C0.705479 1.80155 0.462151 2.38816 0.46154 3.00001V12.2308C0.462151 12.8426 0.705479 13.4292 1.13812 13.8619C1.57077 14.2945 2.15738 14.5379 2.76923 14.5385H12C12.6119 14.5379 13.1985 14.2945 13.6311 13.8619C14.0638 13.4292 14.3071 12.8426 14.3077 12.2308V8.76924C15.2255 8.77016 16.1054 9.13515 16.7544 9.78412C17.4033 10.4331 17.7683 11.313 17.7692 12.2308V23.5385H10.8462V22.5385C10.8462 21.4339 9.95072 20.5385 8.84616 20.5385H4.30769C3.20312 20.5385 2.30769 21.4339 2.30769 22.5385V27.7692C2.30769 28.8738 3.20312 29.7692 4.30769 29.7692H8.84616C9.95073 29.7692 10.8462 28.8738 10.8462 27.7692V26.7692H17.7692V29.0769C17.7698 29.6888 18.0132 30.2754 18.4458 30.708C18.8785 31.1407 19.4651 31.384 20.0769 31.3846H25.8462V32.6154C25.8462 33.72 26.7416 34.6154 27.8462 34.6154H33.5385C34.643 34.6154 35.5385 33.72 35.5385 32.6154V26.9231C35.5385 25.8185 34.643 24.9231 33.5385 24.9231H27.8462C26.7416 24.9231 25.8462 25.8185 25.8462 26.9231V28.1539H21V20.0769H25.8462V21.3077C25.8462 22.4123 26.7416 23.3077 27.8462 23.3077H33.5385C34.643 23.3077 35.5385 22.4123 35.5385 21.3077V15.6154C35.5385 14.5108 34.643 13.6154 33.5385 13.6154H27.8462C26.7416 13.6154 25.8462 14.5108 25.8462 15.6154V16.8462H21V12.2308C20.9957 10.9785 20.5802 9.76231 19.8173 8.76924H25.8462V10C25.8462 11.1046 26.7416 12 27.8462 12H33.5385ZM3.69231 11.3077V3.92309H11.0769V11.3077H3.69231ZM8.30769 26.7692H5.07692V23.5385H8.30769V26.7692ZM29.0769 28.1539H32.3077V31.3846H29.0769V28.1539ZM29.0769 16.8462H32.3077V20.0769H29.0769V16.8462ZM29.0769 5.53848H32.3077V8.76924H29.0769V5.53848Z" fill="#1DABF8"/>
</svg>
