<svg width="38" height="33" viewBox="0 0 38 33" fill="none" xmlns="http://www.w3.org/2000/svg">
<path d="M33.5714 11.7143H3.42857M33.5714 11.7143C34.2155 11.7143 34.8332 11.4584 35.2887 11.003C35.7441 10.5475 36 9.92981 36 9.28571V4.42857C36 3.78447 35.7441 3.16676 35.2887 2.71131C34.8332 2.25587 34.2155 2 33.5714 2H4.42857C3.78447 2 3.16676 2.25587 2.71131 2.71131C2.25587 3.16676 2 3.78447 2 4.42857V9.28571C2 9.92981 2.25587 10.5475 2.71131 11.003C3.16676 11.4584 2.78447 11.7143 3.42857 11.7143M33.5714 11.7143C34.2155 11.7143 34.8332 11.9702 35.2887 12.4256C35.7441 12.881 36 13.4988 36 14.1429V19C36 19.6441 35.7441 20.2618 35.2887 20.7173C34.8332 21.1727 34.2155 21.4286 33.5714 21.4286M3.42857 11.7143C2.78447 11.7143 3.16676 11.9702 2.71131 12.4256C2.25587 12.881 2 13.4988 2 14.1429V19C2 19.6441 2.25587 20.2618 2.71131 20.7173C3.16676 21.1727 3.78447 21.4286 4.42857 21.4286M33.5714 21.4286H4.42857M33.5714 21.4286C34.2155 21.4286 34.8332 21.6844 35.2887 22.1399C35.7441 22.5953 36 23.213 36 23.8571V28.7143C36 29.3584 35.7441 29.9761 35.2887 30.4315C34.8332 30.887 34.2155 31.1429 33.5714 31.1429H4.42857C3.78447 31.1429 3.16676 30.887 2.71131 30.4315C2.25587 29.9761 2 29.3584 2 28.7143V23.8571C2 23.213 2.25587 22.5953 2.71131 22.1399C3.16676 21.6844 3.78447 21.4286 4.42857 21.4286M7.70536 6.85714H13.9286M7.70536 16.5714H13.9286M7.70536 26.2857H13.9286" stroke="#1DABF8" stroke-width="3" stroke-linecap="round"/>
</svg>
