<svg width="200" height="58" viewBox="0 0 200 58" fill="none" xmlns="http://www.w3.org/2000/svg">
<path fill-rule="evenodd" clip-rule="evenodd" d="M20.366 0C19.4008 0 18.6184 0.782462 18.6184 1.74768V8.73482C18.6184 8.87458 18.693 9.00372 18.814 9.07354L24.2122 12.1868C24.3598 12.2719 24.4508 12.4293 24.4508 12.5997V19.2009C24.4508 19.4281 24.572 19.6379 24.7688 19.7514L31.6204 23.7028C31.8169 23.8161 32.0589 23.8161 32.2554 23.7028L40.3926 19.01C40.5399 18.925 40.7214 18.925 40.8688 19.01L50.2884 24.4424C50.4359 24.5275 50.5269 24.6849 50.5269 24.8553V35.7191C50.5269 35.8895 50.4359 36.0469 50.2884 36.132L40.8688 41.5644C40.7214 41.6494 40.5399 41.6494 40.3926 41.5644L32.2884 36.8906C32.0919 36.7773 31.8499 36.7773 31.6534 36.8906L24.5133 41.0085C24.3165 41.1219 24.1952 41.3318 24.1952 41.559V45.9898C24.1952 46.1615 24.1029 46.3199 23.9536 46.4045L18.8166 49.3151C18.6941 49.3845 18.6184 49.5145 18.6184 49.6553V55.9258C18.6184 56.891 19.4008 57.6735 20.366 57.6735H34.5564C51.7205 57.6735 62.1824 47.6806 62.1824 28.592C62.1824 9.54428 51.7205 0 34.0252 0H20.366ZM18.6184 36.1513C18.6184 36.2921 18.6941 36.4221 18.8166 36.4915L22.6551 38.6664C22.851 38.7774 23.0909 38.7764 23.2859 38.664L30.4164 34.5517C30.6132 34.4382 30.7345 34.2283 30.7345 34.0012V26.6113C30.7345 26.3842 30.6132 26.1743 30.4164 26.0608L23.2379 21.9209C23.0414 21.8075 22.7994 21.8075 22.6029 21.9209L18.814 24.106C18.693 24.1758 18.6184 24.3049 18.6184 24.4447V36.1513Z" fill="white"/>
<path d="M18.4887 39.7578C18.5833 39.7063 18.6976 39.7063 18.7922 39.7578L21.5996 41.2843C21.7019 41.3399 21.7656 41.447 21.7656 41.5634V44.5842C21.7656 44.7007 21.7019 44.8078 21.5996 44.8634L18.7922 46.3899C18.6976 46.4414 18.5833 46.4414 18.4887 46.3899L15.6813 44.8634C15.579 44.8078 15.5153 44.7007 15.5153 44.5842V41.5634C15.5153 41.447 15.579 41.3399 15.6813 41.2843L18.4887 39.7578Z" fill="white"/>
<path d="M11.2834 21.7723C11.4066 21.7044 11.5561 21.7044 11.6793 21.7723L15.3031 23.7693C15.4341 23.8415 15.5154 23.9791 15.5154 24.1286V28.0901C15.5154 28.2396 15.4341 28.3772 15.3031 28.4493L11.6793 30.4463C11.5561 30.5143 11.4066 30.5143 11.2834 30.4463L7.6596 28.4493C7.5287 28.3772 7.4474 28.2396 7.4474 28.0901V24.1286C7.4474 23.9791 7.5287 23.8415 7.6596 23.7693L11.2834 21.7723Z" fill="white"/>
<path d="M4.42987 12.469C4.57013 12.3933 4.73905 12.3933 4.87931 12.469L9.06062 14.7248C9.21373 14.8074 9.30918 14.9674 9.30918 15.1413V19.5988C9.30918 19.7728 9.21373 19.9328 9.06062 20.0154L4.87931 22.2712C4.73905 22.3469 4.57013 22.3469 4.42987 22.2712L0.248559 20.0154C0.0954478 19.9328 0 19.7728 0 19.5988V15.1413C0 14.9674 0.0954479 14.8074 0.248559 14.7248L4.42987 12.469Z" fill="white"/>
<path d="M81.8512 42.6341C82.2456 42.67 82.7656 42.7058 83.4111 42.7417C84.0567 42.7417 84.9353 42.7417 86.047 42.7417C90.6014 42.7417 93.9903 41.5938 96.2138 39.298C98.473 36.9663 99.6027 33.7199 99.6027 29.5587C99.6027 25.3258 98.5089 22.0793 96.3213 19.8194C94.1338 17.5594 90.7449 16.4295 86.1546 16.4295C84.1463 16.4295 82.7118 16.4833 81.8512 16.5909V42.6341ZM106.703 29.5587C106.703 32.7872 106.201 35.6031 105.197 38.0066C104.193 40.3741 102.759 42.365 100.894 43.9793C99.0648 45.5577 96.8413 46.7415 94.2234 47.5306C91.6414 48.284 88.7725 48.6606 85.6166 48.6606C84.1105 48.6606 82.407 48.5889 80.5064 48.4454C78.6057 48.3378 76.7947 48.0867 75.0733 47.6921V11.4791C76.7947 11.0845 78.6236 10.8334 80.5601 10.7258C82.4967 10.6182 84.218 10.5644 85.7242 10.5644C88.8442 10.5644 91.6952 10.941 94.2772 11.6943C96.8593 12.4118 99.0648 13.5597 100.894 15.1381C102.759 16.6806 104.193 18.6535 105.197 21.057C106.201 23.4245 106.703 26.2584 106.703 29.5587Z" fill="white"/>
<path d="M123.049 43.6565C125.057 43.6565 126.581 43.5488 127.621 43.3336V36.1233C127.263 36.0157 126.743 35.9081 126.061 35.8004C125.38 35.6928 124.627 35.639 123.802 35.639C123.085 35.639 122.35 35.6928 121.597 35.8004C120.879 35.9081 120.216 36.1054 119.606 36.3923C119.033 36.6793 118.566 37.0918 118.208 37.6299C117.849 38.1321 117.67 38.7778 117.67 39.567C117.67 41.1095 118.154 42.1857 119.122 42.7955C120.09 43.3695 121.399 43.6565 123.049 43.6565ZM122.511 19.3889C124.663 19.3889 126.474 19.658 127.944 20.196C129.414 20.7341 130.58 21.4874 131.441 22.456C132.337 23.4245 132.965 24.6083 133.323 26.0073C133.718 27.3705 133.915 28.8771 133.915 30.5272V47.5845C132.911 47.7997 131.387 48.0508 129.343 48.3378C127.335 48.6606 125.057 48.822 122.511 48.822C120.826 48.822 119.284 48.6606 117.885 48.3378C116.486 48.0149 115.285 47.4948 114.281 46.7773C113.313 46.0599 112.542 45.1272 111.968 43.9793C111.43 42.8314 111.161 41.4144 111.161 39.7284C111.161 38.1142 111.466 36.7511 112.075 35.639C112.721 34.527 113.582 33.6302 114.657 32.9486C115.733 32.2312 116.971 31.7289 118.369 31.442C119.804 31.1191 121.292 30.9577 122.834 30.9577C123.551 30.9577 124.304 31.0115 125.093 31.1191C125.882 31.1909 126.725 31.3344 127.621 31.5496V30.4734C127.621 29.7201 127.532 29.0027 127.352 28.3211C127.173 27.6395 126.85 27.0476 126.384 26.5454C125.954 26.0073 125.362 25.5948 124.609 25.3078C123.892 25.0208 122.977 24.8774 121.866 24.8774C120.359 24.8774 118.979 24.985 117.724 25.2002C116.468 25.4154 115.446 25.6665 114.657 25.9535L113.851 20.6803C114.675 20.3933 115.877 20.1064 117.455 19.8194C119.033 19.5324 120.718 19.3889 122.511 19.3889Z" fill="white"/>
<path d="M141.563 12.6629L148.072 11.5867V20.0884H158.078V25.5231H148.072V36.9842C148.072 39.2442 148.431 40.8584 149.148 41.827C149.865 42.7955 151.085 43.2798 152.806 43.2798C153.989 43.2798 155.029 43.1542 155.926 42.9031C156.858 42.652 157.593 42.4189 158.131 42.2036L159.207 47.3692C158.454 47.6921 157.468 48.0149 156.249 48.3378C155.029 48.6965 153.595 48.8759 151.945 48.8759C149.937 48.8759 148.252 48.6068 146.889 48.0687C145.562 47.5306 144.504 46.7594 143.715 45.755C142.926 44.7147 142.37 43.4771 142.047 42.0422C141.725 40.5714 141.563 38.9034 141.563 37.038V12.6629Z" fill="white"/>
<path d="M170.932 48.2302H164.423V20.0884H170.932V48.2302ZM171.632 11.8558C171.632 13.0754 171.237 14.044 170.448 14.7614C169.659 15.4788 168.727 15.8376 167.651 15.8376C166.539 15.8376 165.589 15.4788 164.8 14.7614C164.011 14.044 163.617 13.0754 163.617 11.8558C163.617 10.6002 164.011 9.61375 164.8 8.8963C165.589 8.17886 166.539 7.82014 167.651 7.82014C168.727 7.82014 169.659 8.17886 170.448 8.8963C171.237 9.61375 171.632 10.6002 171.632 11.8558Z" fill="white"/>
<path d="M189.134 43.6565C191.142 43.6565 192.666 43.5488 193.706 43.3336V36.1233C193.348 36.0157 192.828 35.9081 192.146 35.8004C191.465 35.6928 190.712 35.639 189.887 35.639C189.17 35.639 188.435 35.6928 187.682 35.8004C186.964 35.9081 186.301 36.1054 185.691 36.3923C185.117 36.6793 184.651 37.0918 184.293 37.6299C183.934 38.1321 183.755 38.7778 183.755 39.567C183.755 41.1095 184.239 42.1857 185.207 42.7955C186.175 43.3695 187.484 43.6565 189.134 43.6565ZM188.596 19.3889C190.748 19.3889 192.559 19.658 194.029 20.196C195.499 20.7341 196.665 21.4874 197.526 22.456C198.422 23.4245 199.05 24.6083 199.408 26.0073C199.803 27.3705 200 28.8771 200 30.5272V47.5845C198.996 47.7997 197.472 48.0508 195.428 48.3378C193.419 48.6606 191.142 48.822 188.596 48.822C186.911 48.822 185.368 48.6606 183.97 48.3378C182.571 48.0149 181.37 47.4948 180.366 46.7773C179.397 46.0599 178.626 45.1272 178.053 43.9793C177.515 42.8314 177.246 41.4144 177.246 39.7284C177.246 38.1142 177.551 36.7511 178.16 35.639C178.806 34.527 179.666 33.6302 180.742 32.9486C181.818 32.2312 183.055 31.7289 184.454 31.442C185.888 31.1191 187.377 30.9577 188.919 30.9577C189.636 30.9577 190.389 31.0115 191.178 31.1191C191.967 31.1909 192.81 31.3344 193.706 31.5496V30.4734C193.706 29.7201 193.617 29.0027 193.437 28.3211C193.258 27.6395 192.935 27.0476 192.469 26.5454C192.039 26.0073 191.447 25.5948 190.694 25.3078C189.977 25.0208 189.062 24.8774 187.95 24.8774C186.444 24.8774 185.064 24.985 183.808 25.2002C182.553 25.4154 181.531 25.6665 180.742 25.9535L179.935 20.6803C180.76 20.3933 181.962 20.1064 183.54 19.8194C185.117 19.5324 186.803 19.3889 188.596 19.3889Z" fill="white"/>
</svg>
