<svg width="42" height="36" viewBox="0 0 42 36" fill="none" xmlns="http://www.w3.org/2000/svg">
<path d="M31.4999 26H36.4999C37.1628 26.0007 37.7983 26.2643 38.267 26.733C38.7357 27.2017 38.9993 27.8372 38.9999 28.5V33.5C38.9993 34.1628 38.7357 34.7983 38.267 35.267C37.7983 35.7357 37.1628 35.9993 36.4999 36H31.4999C30.8371 35.9993 30.2016 35.7357 29.7329 35.267C29.2642 34.7983 29.0006 34.1628 28.9999 33.5V28.5C29.0006 27.8372 29.2642 27.2017 29.7329 26.733C30.2016 26.2643 30.8371 26.0007 31.4999 26ZM35.4999 32.5V29.5H32.4974L32.4999 32.5H35.4999ZM35.9999 6V17L38.2546 15.0675C38.9573 14.4651 40.0053 14.5054 40.6598 15.1598V15.1598C41.3848 15.8849 41.3447 17.0722 40.5723 17.7466L35.3015 22.349C34.5468 23.008 33.4208 23.0068 32.6675 22.3462L27.4312 17.755C26.6572 17.0763 26.6201 15.8839 27.3504 15.1585V15.1585C28.0086 14.5046 29.0591 14.4672 29.7621 15.0727L31.9999 17V6L19 6C17.8954 6 17 5.10457 17 4V4C17 2.89543 17.8954 2 19 2L31.9999 2C32.6628 2.00066 34.367 1.83296 35.267 2.73296C36.167 3.63296 35.9993 5.33716 35.9999 6ZM3.99995 6.75C3.99995 5.7835 4.78346 5 5.74995 5L10.75 5C11.7165 5 12.5 5.7835 12.5 6.75V6.75C12.5 7.7165 11.7165 8.5 10.75 8.5H5.74995C4.78346 8.5 3.99995 7.7165 3.99995 6.75V6.75ZM3.99995 1.75C3.99995 0.783502 4.78346 0 5.74995 0L13.25 0C14.2165 0 15 0.783502 15 1.75V1.75C15 2.7165 14.2165 3.5 13.25 3.5L5.74995 3.5C4.78346 3.5 3.99995 2.7165 3.99995 1.75V1.75Z" fill="white"/>
<path d="M6.00001 18.5L6.00001 29.5C6.00067 30.1628 5.83297 31.867 6.73297 32.767C7.63297 33.667 9.33717 33.4993 10 33.5H23C24.1046 33.5 25 32.6046 25 31.5C25 30.3954 24.1046 29.5 23 29.5L10 29.5L10 18.5L12.2378 20.4273C12.9408 21.0328 13.9913 20.9954 14.6495 20.3416C15.3798 19.6161 15.3427 18.4237 14.5687 17.745L9.33249 13.1538C8.57912 12.4932 7.4532 12.492 6.69847 13.151L1.42763 17.7534C0.655275 18.4278 0.615129 19.6151 1.34016 20.3402C1.99463 20.9946 3.04265 21.0349 3.74539 20.4325L6.00001 18.5Z" fill="white"/>
</svg>
