<svg width="60" height="60" viewBox="0 0 60 60" fill="none" xmlns="http://www.w3.org/2000/svg">
<rect width="60" height="60" rx="11" fill="url(#paint0_linear_413_485)"/>
<path d="M40.4998 38.0001H45.4998C46.1626 38.0007 46.7981 38.2643 47.2668 38.733C47.7355 39.2017 47.9991 39.8372 47.9998 40.5001V45.5001C47.9991 46.1629 47.7355 46.7984 47.2668 47.2671C46.7981 47.7358 46.1626 47.9994 45.4998 48.0001H40.4998C39.837 47.9994 39.2015 47.7358 38.7328 47.2671C38.2641 46.7984 38.0005 46.1629 37.9998 45.5001V40.5001C38.0005 39.8372 38.2641 39.2017 38.7328 38.733C39.2015 38.2643 39.837 38.0007 40.4998 38.0001ZM44.4998 44.5001V41.5001H41.4973L41.4998 44.5001H44.4998ZM44.9998 18.0001V29.0001L47.2544 27.0675C47.9572 26.4652 49.0052 26.5054 49.6597 27.1599V27.1599C50.3847 27.8849 50.3445 29.0722 49.5722 29.7466L44.3013 34.349C43.5466 35.008 42.4207 35.0069 41.6673 34.3463L36.4311 29.755C35.6571 29.0764 35.62 27.884 36.3503 27.1585V27.1585C37.0085 26.5047 38.059 26.4673 38.762 27.0728L40.9998 29.0001V18.0001H27.9998C26.8952 18.0001 25.9998 17.1046 25.9998 16.0001V16.0001C25.9998 14.8955 26.8952 14.0001 27.9998 14.0001H40.9998C41.6626 14.0007 43.3668 13.833 44.2668 14.733C45.1668 15.633 44.9991 17.3372 44.9998 18.0001ZM12.9998 18.7501C12.9998 17.7836 13.7833 17.0001 14.7498 17.0001H19.7498C20.7163 17.0001 21.4998 17.7836 21.4998 18.7501V18.7501C21.4998 19.7166 20.7163 20.5001 19.7498 20.5001H14.7498C13.7833 20.5001 12.9998 19.7166 12.9998 18.7501V18.7501ZM12.9998 13.7501C12.9998 12.7836 13.7833 12.0001 14.7498 12.0001H22.2498C23.2163 12.0001 23.9998 12.7836 23.9998 13.7501V13.7501C23.9998 14.7166 23.2163 15.5001 22.2498 15.5001H14.7498C13.7833 15.5001 12.9998 14.7166 12.9998 13.7501V13.7501Z" fill="white"/>
<path d="M14.9999 30.5001L14.9999 41.5001C15.0005 42.1629 14.8328 43.8671 15.7328 44.7671C16.6328 45.6671 18.337 45.4994 18.9999 45.5001H31.9999C33.1044 45.5001 33.9999 44.6046 33.9999 43.5001C33.9999 42.3955 33.1044 41.5001 31.9999 41.5001H18.9999L18.9999 30.5001L21.2377 32.4274C21.9407 33.0328 22.9912 32.9955 23.6494 32.3416C24.3797 31.6161 24.3426 30.4238 23.5686 29.7451L18.3324 25.1538C17.579 24.4932 16.4531 24.4921 15.6983 25.1511L10.4275 29.7535C9.65515 30.4279 9.61501 31.6152 10.34 32.3402C10.9945 32.9947 12.0425 33.0349 12.7453 32.4326L14.9999 30.5001Z" fill="white"/>
<defs>
<linearGradient id="paint0_linear_413_485" x1="1.25436" y1="0.416667" x2="58.1247" y2="58.7394" gradientUnits="userSpaceOnUse">
<stop stop-color="#93D9FF"/>
<stop offset="0.5" stop-color="#52C3FF"/>
<stop offset="1" stop-color="#42BDFF"/>
</linearGradient>
</defs>
</svg>
